<svg width="440" height="293" viewBox="0 0 440 293" fill="none" xmlns="http://www.w3.org/2000/svg">
<g filter="url(#filter0_d_1731_3843)">
<rect x="0.277344" y="0.1875" width="365.138" height="178.637" rx="9.07333" fill="white"/>
<rect x="1.41151" y="1.32167" width="362.869" height="176.369" rx="7.93916" stroke="#0885DA" stroke-width="2.26833"/>
</g>
<rect x="32.7842" y="49.2656" width="292.731" height="31.3633" rx="6.51116" fill="#EFF1F5"/>
<rect x="32.7842" y="88.625" width="292.731" height="31.3633" rx="6.51116" fill="#EFF1F5"/>
<path d="M40.1641 131.3H79.457C83.3628 131.3 86.5293 134.466 86.5293 138.372V149.612C86.5293 153.518 83.3628 156.685 79.457 156.685H40.1641C36.2582 156.685 33.0918 153.518 33.0918 149.612V138.372C33.0918 134.588 36.0631 131.498 39.7998 131.309L40.1641 131.3Z" stroke="#0885DA" stroke-width="0.614966"/>
<path d="M46.6277 142.552C46.5935 142.232 46.4494 141.983 46.1954 141.805C45.9439 141.627 45.6166 141.538 45.2137 141.538C44.9304 141.538 44.6874 141.58 44.4847 141.666C44.282 141.751 44.1269 141.867 44.0195 142.014C43.912 142.16 43.8571 142.328 43.8546 142.516C43.8546 142.672 43.89 142.808 43.9609 142.922C44.0341 143.037 44.133 143.135 44.2576 143.215C44.3821 143.294 44.5201 143.359 44.6715 143.413C44.8229 143.467 44.9756 143.512 45.1294 143.549L45.8328 143.725C46.116 143.79 46.3883 143.88 46.6497 143.992C46.9134 144.104 47.1491 144.246 47.3567 144.417C47.5667 144.588 47.7327 144.794 47.8549 145.036C47.977 145.278 48.038 145.561 48.038 145.886C48.038 146.325 47.9257 146.713 47.701 147.047C47.4763 147.379 47.1515 147.639 46.7266 147.827C46.3041 148.013 45.7925 148.106 45.1917 148.106C44.608 148.106 44.1013 148.015 43.6715 147.835C43.2441 147.654 42.9095 147.39 42.6677 147.043C42.4284 146.697 42.299 146.274 42.2794 145.776H43.6165C43.636 146.037 43.7166 146.255 43.8583 146.428C43.9999 146.601 44.1843 146.731 44.4114 146.816C44.641 146.902 44.8974 146.945 45.1807 146.945C45.4762 146.945 45.7351 146.901 45.9573 146.813C46.182 146.722 46.3578 146.598 46.4848 146.439C46.6118 146.278 46.6765 146.09 46.679 145.875C46.6765 145.679 46.6191 145.518 46.5068 145.391C46.3944 145.262 46.2369 145.154 46.0342 145.069C45.834 144.981 45.5995 144.903 45.3309 144.834L44.4774 144.615C43.8595 144.456 43.3711 144.215 43.0121 143.893C42.6555 143.568 42.4773 143.137 42.4773 142.6C42.4773 142.158 42.5969 141.771 42.8362 141.439C43.078 141.107 43.4065 140.849 43.8217 140.666C44.2368 140.48 44.7069 140.387 45.232 140.387C45.7644 140.387 46.2308 140.48 46.6313 140.666C47.0343 140.849 47.3505 141.104 47.5801 141.431C47.8097 141.756 47.9281 142.13 47.9354 142.552H46.6277ZM52.7773 145.626V142.365H54.1034V147.992H52.8176V146.992H52.759C52.632 147.307 52.4232 147.565 52.1326 147.765C51.8444 147.965 51.4891 148.065 51.0666 148.065C50.6978 148.065 50.3718 147.984 50.0885 147.82C49.8076 147.654 49.5879 147.413 49.4291 147.098C49.2704 146.781 49.191 146.397 49.191 145.948V142.365H50.5171V145.743C50.5171 146.1 50.6148 146.383 50.8101 146.593C51.0055 146.803 51.2619 146.908 51.5794 146.908C51.7748 146.908 51.9641 146.86 52.1472 146.765C52.3304 146.67 52.4806 146.528 52.5978 146.34C52.7175 146.15 52.7773 145.911 52.7773 145.626ZM55.5256 147.992V140.49H56.8517V143.296H56.9067C56.975 143.159 57.0715 143.014 57.196 142.86C57.3206 142.704 57.4891 142.571 57.7016 142.461C57.914 142.348 58.1851 142.292 58.5148 142.292C58.9495 142.292 59.3415 142.403 59.6907 142.626C60.0424 142.845 60.3208 143.171 60.5259 143.604C60.7335 144.033 60.8373 144.561 60.8373 145.186C60.8373 145.804 60.7359 146.329 60.5332 146.761C60.3305 147.194 60.0546 147.523 59.7053 147.75C59.3561 147.978 58.9605 148.091 58.5185 148.091C58.1961 148.091 57.9287 148.037 57.7162 147.93C57.5038 147.822 57.3328 147.693 57.2034 147.542C57.0764 147.388 56.9775 147.242 56.9067 147.106H56.8297V147.992H55.5256ZM56.8261 145.179C56.8261 145.543 56.8773 145.861 56.9799 146.135C57.0849 146.408 57.2351 146.622 57.4305 146.776C57.6283 146.927 57.8676 147.003 58.1485 147.003C58.4415 147.003 58.687 146.925 58.8848 146.769C59.0826 146.61 59.2316 146.394 59.3317 146.12C59.4343 145.844 59.4856 145.531 59.4856 145.179C59.4856 144.83 59.4355 144.519 59.3354 144.248C59.2352 143.977 59.0863 143.765 58.8885 143.611C58.6906 143.457 58.444 143.38 58.1485 143.38C57.8652 143.38 57.6246 143.455 57.4268 143.604C57.229 143.753 57.0788 143.961 56.9763 144.23C56.8761 144.499 56.8261 144.815 56.8261 145.179ZM61.9646 147.992V142.365H63.2321V143.322H63.298C63.4153 142.999 63.6094 142.748 63.8805 142.567C64.1516 142.384 64.4752 142.292 64.8513 142.292C65.2322 142.292 65.5534 142.385 65.8147 142.571C66.0784 142.754 66.264 143.004 66.3715 143.322H66.4301C66.5546 143.009 66.7647 142.76 67.0602 142.574C67.3581 142.386 67.711 142.292 68.1188 142.292C68.6366 142.292 69.0591 142.456 69.3863 142.783C69.7136 143.11 69.8772 143.588 69.8772 144.215V147.992H68.5474V144.421C68.5474 144.071 68.4546 143.816 68.269 143.655C68.0834 143.491 67.8563 143.41 67.5877 143.41C67.2678 143.41 67.0174 143.51 66.8367 143.71C66.6584 143.908 66.5693 144.165 66.5693 144.483V147.992H65.2689V144.366C65.2689 144.075 65.1809 143.843 65.0051 143.67C64.8317 143.496 64.6046 143.41 64.3237 143.41C64.1333 143.41 63.9599 143.458 63.8036 143.556C63.6473 143.651 63.5227 143.787 63.4299 143.963C63.3371 144.136 63.2907 144.339 63.2907 144.571V147.992H61.9646ZM71.2225 147.992V142.365H72.5486V147.992H71.2225ZM71.8892 141.567C71.6792 141.567 71.4985 141.497 71.347 141.358C71.1956 141.216 71.1199 141.047 71.1199 140.849C71.1199 140.649 71.1956 140.479 71.347 140.34C71.4985 140.198 71.6792 140.127 71.8892 140.127C72.1017 140.127 72.2824 140.198 72.4314 140.34C72.5828 140.479 72.6585 140.649 72.6585 140.849C72.6585 141.047 72.5828 141.216 72.4314 141.358C72.2824 141.497 72.1017 141.567 71.8892 141.567ZM76.7219 142.365V143.391H73.4873V142.365H76.7219ZM74.2859 141.017H75.6119V146.3C75.6119 146.478 75.6388 146.615 75.6925 146.71C75.7487 146.803 75.822 146.866 75.9123 146.901C76.0027 146.935 76.1028 146.952 76.2127 146.952C76.2957 146.952 76.3714 146.946 76.4398 146.934C76.5107 146.921 76.5644 146.91 76.601 146.901L76.8245 147.937C76.7536 147.962 76.6523 147.989 76.5204 148.018C76.391 148.047 76.2322 148.064 76.0442 148.069C75.7121 148.079 75.4129 148.029 75.1467 147.919C74.8805 147.807 74.6693 147.633 74.513 147.399C74.3591 147.164 74.2834 146.871 74.2859 146.52V141.017Z" fill="#0885DA"/>
<g filter="url(#filter1_d_1731_3843)">
<rect x="76.7393" y="114.344" width="343.704" height="159.911" rx="9.33853" fill="white"/>
<rect x="77.9066" y="115.511" width="341.369" height="157.577" rx="8.17121" stroke="#0885DA" stroke-width="2.33463"/>
</g>
<path d="M33.8066 35.4453V25.0794H40.5485V26.6535H35.6844V29.4677H40.1992V31.0418H35.6844V33.8712H40.589V35.4453H33.8066ZM44.2155 30.89V35.4453H42.3833V27.6709H44.1345V28.9919H44.2256C44.4045 28.5567 44.6896 28.2108 45.081 27.9543C45.4758 27.6979 45.9634 27.5697 46.5438 27.5697C47.0803 27.5697 47.5476 27.6844 47.9458 27.9138C48.3473 28.1433 48.6578 28.4757 48.8771 28.911C49.0998 29.3462 49.2095 29.8743 49.2061 30.4952V35.4453H47.3739V30.7786C47.3739 30.259 47.2389 29.8524 46.9689 29.5588C46.7024 29.2653 46.3329 29.1185 45.8605 29.1185C45.5399 29.1185 45.2548 29.1893 45.0051 29.3311C44.7588 29.4694 44.5647 29.6702 44.423 29.9334C44.2847 30.1966 44.2155 30.5154 44.2155 30.89ZM54.9509 27.6709V29.0881H50.4816V27.6709H54.9509ZM51.585 25.8083H53.4173V33.1069C53.4173 33.3532 53.4544 33.5422 53.5286 33.6738C53.6062 33.802 53.7074 33.8898 53.8323 33.937C53.9571 33.9842 54.0955 34.0079 54.2473 34.0079C54.3621 34.0079 54.4667 33.9994 54.5611 33.9825C54.659 33.9657 54.7332 33.9505 54.7838 33.937L55.0926 35.3694C54.9947 35.4031 54.8547 35.4403 54.6725 35.4807C54.4937 35.5212 54.2743 35.5449 54.0145 35.5516C53.5556 35.5651 53.1422 35.4959 52.7744 35.3441C52.4066 35.1889 52.1148 34.9493 51.8988 34.6254C51.6862 34.3014 51.5816 33.8965 51.585 33.4106V25.8083ZM59.8415 35.5972C59.0621 35.5972 58.3889 35.4352 57.822 35.1113C57.2585 34.7839 56.8249 34.3217 56.5212 33.7244C56.2175 33.1238 56.0657 32.4169 56.0657 31.6037C56.0657 30.8039 56.2175 30.1021 56.5212 29.4981C56.8283 28.8907 57.2568 28.4183 57.8068 28.0809C58.3568 27.7401 59.003 27.5697 59.7453 27.5697C60.2245 27.5697 60.6767 27.6473 61.1018 27.8025C61.5304 27.9543 61.9083 28.1905 62.2356 28.5111C62.5663 28.8317 62.8261 29.24 63.0151 29.736C63.204 30.2286 63.2985 30.8158 63.2985 31.4974V32.0592H56.9261V30.8242H61.5422C61.5388 30.4733 61.4629 30.1611 61.3144 29.8878C61.1659 29.6111 60.9584 29.3935 60.6918 29.2349C60.4286 29.0763 60.1216 28.997 59.7707 28.997C59.3961 28.997 59.0671 29.0881 58.7837 29.2703C58.5002 29.4492 58.2792 29.6854 58.1206 29.9789C57.9654 30.2691 57.8861 30.588 57.8827 30.9355V32.0136C57.8827 32.4658 57.9654 32.8538 58.1307 33.1778C58.2961 33.4983 58.5272 33.7447 58.8242 33.9167C59.1211 34.0855 59.4687 34.1698 59.8668 34.1698C60.1334 34.1698 60.3747 34.1327 60.5906 34.0585C60.8066 33.9809 60.9938 33.8678 61.1524 33.7194C61.311 33.5709 61.4308 33.387 61.5118 33.1677L63.2226 33.36C63.1146 33.8121 62.9088 34.2069 62.6051 34.5444C62.3048 34.8784 61.9201 35.1383 61.4511 35.3238C60.982 35.5061 60.4455 35.5972 59.8415 35.5972ZM64.8486 35.4453V27.6709H66.6251V28.9666H66.7061C66.8479 28.5179 67.0908 28.172 67.435 27.929C67.7825 27.6827 68.179 27.5595 68.6244 27.5595C68.7257 27.5595 68.8387 27.5646 68.9635 27.5747C69.0918 27.5815 69.1981 27.5933 69.2824 27.6102V29.2956C69.2048 29.2686 69.0816 29.245 68.9129 29.2248C68.7476 29.2011 68.5873 29.1893 68.4321 29.1893C68.098 29.1893 67.7977 29.2619 67.5311 29.407C67.268 29.5487 67.0604 29.7461 66.9086 29.9992C66.7567 30.2522 66.6808 30.5441 66.6808 30.8748V35.4453H64.8486ZM75.174 38.3607C74.9243 38.3607 74.6931 38.3405 74.4805 38.3C74.2713 38.2629 74.1043 38.219 73.9795 38.1684L74.4046 36.741C74.6712 36.8187 74.9091 36.8558 75.1183 36.8524C75.3275 36.849 75.5114 36.7832 75.67 36.655C75.832 36.5302 75.9686 36.3209 76.08 36.0274L76.2369 35.6073L73.4176 27.6709H75.3612L77.153 33.5422H77.234L79.0308 27.6709H80.9795L77.8667 36.3867C77.7216 36.7984 77.5292 37.151 77.2897 37.4446C77.0501 37.7415 76.7565 37.9676 76.409 38.1228C76.0648 38.2814 75.6531 38.3607 75.174 38.3607ZM85.3741 35.5972C84.6149 35.5972 83.9569 35.4301 83.4001 35.0961C82.8434 34.762 82.4114 34.2947 82.1044 33.694C81.8007 33.0934 81.6488 32.3916 81.6488 31.5885C81.6488 30.7854 81.8007 30.0818 82.1044 29.4778C82.4114 28.8738 82.8434 28.4048 83.4001 28.0708C83.9569 27.7367 84.6149 27.5697 85.3741 27.5697C86.1333 27.5697 86.7913 27.7367 87.3481 28.0708C87.9048 28.4048 88.335 28.8738 88.6387 29.4778C88.9458 30.0818 89.0993 30.7854 89.0993 31.5885C89.0993 32.3916 88.9458 33.0934 88.6387 33.694C88.335 34.2947 87.9048 34.762 87.3481 35.0961C86.7913 35.4301 86.1333 35.5972 85.3741 35.5972ZM85.3842 34.1293C85.7959 34.1293 86.1401 34.0163 86.4167 33.7902C86.6934 33.5608 86.8993 33.2537 87.0342 32.869C87.1726 32.4844 87.2418 32.0558 87.2418 31.5834C87.2418 31.1076 87.1726 30.6774 87.0342 30.2927C86.8993 29.9047 86.6934 29.5959 86.4167 29.3665C86.1401 29.137 85.7959 29.0223 85.3842 29.0223C84.9624 29.0223 84.6115 29.137 84.3314 29.3665C84.0547 29.5959 83.8472 29.9047 83.7089 30.2927C83.5739 30.6774 83.5064 31.1076 83.5064 31.5834C83.5064 32.0558 83.5739 32.4844 83.7089 32.869C83.8472 33.2537 84.0547 33.5608 84.3314 33.7902C84.6115 34.0163 84.9624 34.1293 85.3842 34.1293ZM95.6096 32.1756V27.6709H97.4419V35.4453H95.6653V34.0635H95.5843C95.4089 34.4988 95.1204 34.8548 94.7188 35.1315C94.3207 35.4082 93.8297 35.5465 93.2459 35.5465C92.7364 35.5465 92.2859 35.4335 91.8945 35.2074C91.5065 34.978 91.2028 34.6456 90.9835 34.2103C90.7641 33.7717 90.6545 33.2419 90.6545 32.621V27.6709H92.4867V32.3376C92.4867 32.8302 92.6217 33.2216 92.8916 33.5118C93.1616 33.802 93.5159 33.9471 93.9545 33.9471C94.2245 33.9471 94.486 33.8813 94.7391 33.7497C94.9921 33.6181 95.1997 33.4224 95.3616 33.1626C95.527 32.8994 95.6096 32.5704 95.6096 32.1756ZM99.326 35.4453V27.6709H101.103V28.9666H101.184C101.325 28.5179 101.568 28.172 101.912 27.929C102.26 27.6827 102.656 27.5595 103.102 27.5595C103.203 27.5595 103.316 27.5646 103.441 27.5747C103.569 27.5815 103.676 27.5933 103.76 27.6102V29.2956C103.682 29.2686 103.559 29.245 103.39 29.2248C103.225 29.2011 103.065 29.1893 102.91 29.1893C102.575 29.1893 102.275 29.2619 102.009 29.407C101.745 29.5487 101.538 29.7461 101.386 29.9992C101.234 30.2522 101.158 30.5441 101.158 30.8748V35.4453H99.326ZM108.594 35.4453V25.0794H112.562C113.311 25.0794 113.933 25.1975 114.429 25.4337C114.929 25.6666 115.302 25.9854 115.548 26.3903C115.798 26.7953 115.923 27.2542 115.923 27.7671C115.923 28.1889 115.842 28.5499 115.68 28.8502C115.518 29.1472 115.3 29.3884 115.027 29.574C114.753 29.7596 114.448 29.8929 114.111 29.9739V30.0751C114.478 30.0953 114.831 30.2084 115.168 30.4142C115.509 30.6167 115.788 30.9035 116.004 31.2747C116.22 31.6458 116.327 32.0946 116.327 32.621C116.327 33.1575 116.198 33.6401 115.938 34.0686C115.678 34.4938 115.287 34.8295 114.763 35.0758C114.24 35.3222 113.582 35.4453 112.79 35.4453H108.594ZM110.471 33.8763H112.491C113.173 33.8763 113.663 33.7463 113.964 33.4865C114.267 33.2233 114.419 32.8859 114.419 32.4742C114.419 32.1672 114.343 31.8905 114.192 31.6442C114.04 31.3945 113.824 31.1987 113.544 31.057C113.264 30.9119 112.93 30.8394 112.542 30.8394H110.471V33.8763ZM110.471 29.488H112.329C112.653 29.488 112.945 29.4289 113.205 29.3108C113.464 29.1893 113.669 29.0189 113.817 28.7996C113.969 28.5769 114.045 28.3137 114.045 28.01C114.045 27.6085 113.903 27.2778 113.62 27.018C113.34 26.7581 112.923 26.6282 112.369 26.6282H110.471V29.488ZM120.117 35.6022C119.625 35.6022 119.181 35.5145 118.786 35.339C118.395 35.1602 118.084 34.897 117.855 34.5494C117.629 34.2019 117.516 33.7733 117.516 33.2638C117.516 32.8252 117.597 32.4624 117.759 32.1756C117.921 31.8888 118.142 31.6593 118.422 31.4872C118.702 31.3152 119.017 31.1852 119.368 31.0975C119.722 31.0064 120.089 30.9406 120.467 30.9001C120.922 30.8529 121.292 30.8107 121.575 30.7736C121.858 30.7331 122.064 30.6723 122.192 30.5914C122.324 30.507 122.39 30.3771 122.39 30.2016V30.1713C122.39 29.79 122.277 29.4947 122.051 29.2855C121.825 29.0763 121.499 28.9717 121.074 28.9717C120.625 28.9717 120.269 29.0696 120.006 29.2653C119.746 29.461 119.571 29.6921 119.48 29.9587L117.769 29.7157C117.904 29.2433 118.126 28.8485 118.437 28.5313C118.747 28.2108 119.127 27.9712 119.576 27.8126C120.024 27.6507 120.52 27.5697 121.064 27.5697C121.438 27.5697 121.811 27.6135 122.182 27.7013C122.554 27.789 122.893 27.9341 123.2 28.1366C123.507 28.3356 123.753 28.6073 123.939 28.9515C124.128 29.2956 124.222 29.7259 124.222 30.2421V35.4453H122.461V34.3773H122.4C122.289 34.5933 122.132 34.7958 121.929 34.9847C121.73 35.1703 121.479 35.3205 121.175 35.4352C120.875 35.5465 120.522 35.6022 120.117 35.6022ZM120.593 34.2559C120.961 34.2559 121.28 34.1833 121.55 34.0382C121.82 33.8898 122.027 33.694 122.172 33.4511C122.321 33.2081 122.395 32.9433 122.395 32.6564V31.7403C122.338 31.7876 122.24 31.8314 122.101 31.8719C121.966 31.9124 121.815 31.9478 121.646 31.9782C121.477 32.0086 121.31 32.0356 121.145 32.0592C120.979 32.0828 120.836 32.1031 120.715 32.1199C120.441 32.157 120.197 32.2178 119.981 32.3021C119.765 32.3865 119.594 32.5046 119.469 32.6564C119.345 32.8049 119.282 32.9972 119.282 33.2335C119.282 33.5709 119.405 33.8256 119.652 33.9977C119.898 34.1698 120.212 34.2559 120.593 34.2559ZM127.897 30.89V35.4453H126.064V27.6709H127.816V28.9919H127.907C128.086 28.5567 128.371 28.2108 128.762 27.9543C129.157 27.6979 129.645 27.5697 130.225 27.5697C130.762 27.5697 131.229 27.6844 131.627 27.9138C132.029 28.1433 132.339 28.4757 132.558 28.911C132.781 29.3462 132.891 29.8743 132.887 30.4952V35.4453H131.055V30.7786C131.055 30.259 130.92 29.8524 130.65 29.5588C130.384 29.2653 130.014 29.1185 129.542 29.1185C129.221 29.1185 128.936 29.1893 128.686 29.3311C128.44 29.4694 128.246 29.6702 128.104 29.9334C127.966 30.1966 127.897 30.5154 127.897 30.89ZM136.42 33.0057L136.415 30.7938H136.709L139.503 27.6709H141.644L138.207 31.4974H137.827L136.42 33.0057ZM134.75 35.4453V25.0794H136.582V35.4453H134.75ZM139.629 35.4453L137.098 31.9073L138.333 30.6167L141.821 35.4453H139.629ZM149.994 35.4453H146.481V25.0794H150.065C151.094 25.0794 151.978 25.2869 152.717 25.702C153.459 26.1137 154.03 26.7058 154.428 27.4786C154.826 28.2513 155.025 29.1758 155.025 30.2522C155.025 31.332 154.824 32.26 154.423 33.0361C154.024 33.8121 153.449 34.4077 152.697 34.8228C151.948 35.2378 151.047 35.4453 149.994 35.4453ZM148.359 33.8206H149.903C150.625 33.8206 151.227 33.689 151.71 33.4258C152.192 33.1592 152.555 32.7627 152.798 32.2363C153.041 31.7066 153.162 31.0452 153.162 30.2522C153.162 29.4593 153.041 28.8013 152.798 28.2783C152.555 27.7519 152.196 27.3588 151.72 27.099C151.247 26.8358 150.66 26.7042 149.958 26.7042H148.359V33.8206ZM160.17 35.5972C159.39 35.5972 158.717 35.4352 158.15 35.1113C157.587 34.7839 157.153 34.3217 156.85 33.7244C156.546 33.1238 156.394 32.4169 156.394 31.6037C156.394 30.8039 156.546 30.1021 156.85 29.4981C157.157 28.8907 157.585 28.4183 158.135 28.0809C158.685 27.7401 159.331 27.5697 160.074 27.5697C160.553 27.5697 161.005 27.6473 161.43 27.8025C161.859 27.9543 162.237 28.1905 162.564 28.5111C162.895 28.8317 163.154 29.24 163.343 29.736C163.532 30.2286 163.627 30.8158 163.627 31.4974V32.0592H157.255V30.8242H161.871C161.867 30.4733 161.791 30.1611 161.643 29.8878C161.494 29.6111 161.287 29.3935 161.02 29.2349C160.757 29.0763 160.45 28.997 160.099 28.997C159.725 28.997 159.396 29.0881 159.112 29.2703C158.829 29.4492 158.608 29.6854 158.449 29.9789C158.294 30.2691 158.214 30.588 158.211 30.9355V32.0136C158.211 32.4658 158.294 32.8538 158.459 33.1778C158.624 33.4983 158.856 33.7447 159.153 33.9167C159.449 34.0855 159.797 34.1698 160.195 34.1698C160.462 34.1698 160.703 34.1327 160.919 34.0585C161.135 33.9809 161.322 33.8678 161.481 33.7194C161.639 33.5709 161.759 33.387 161.84 33.1677L163.551 33.36C163.443 33.8121 163.237 34.2069 162.933 34.5444C162.633 34.8784 162.248 35.1383 161.779 35.3238C161.31 35.5061 160.774 35.5972 160.17 35.5972ZM169.059 27.6709V29.0881H164.59V27.6709H169.059ZM165.693 25.8083H167.525V33.1069C167.525 33.3532 167.563 33.5422 167.637 33.6738C167.714 33.802 167.816 33.8898 167.941 33.937C168.065 33.9842 168.204 34.0079 168.356 34.0079C168.47 34.0079 168.575 33.9994 168.669 33.9825C168.767 33.9657 168.841 33.9505 168.892 33.937L169.201 35.3694C169.103 35.4031 168.963 35.4403 168.781 35.4807C168.602 35.5212 168.383 35.5449 168.123 35.5516C167.664 35.5651 167.25 35.4959 166.883 35.3441C166.515 35.1889 166.223 34.9493 166.007 34.6254C165.794 34.3014 165.69 33.8965 165.693 33.4106V25.8083ZM172.829 35.6022C172.336 35.6022 171.892 35.5145 171.497 35.339C171.106 35.1602 170.796 34.897 170.566 34.5494C170.34 34.2019 170.227 33.7733 170.227 33.2638C170.227 32.8252 170.308 32.4624 170.47 32.1756C170.632 31.8888 170.853 31.6593 171.133 31.4872C171.413 31.3152 171.729 31.1852 172.08 31.0975C172.434 31.0064 172.8 30.9406 173.178 30.9001C173.633 30.8529 174.003 30.8107 174.286 30.7736C174.57 30.7331 174.776 30.6723 174.904 30.5914C175.035 30.507 175.101 30.3771 175.101 30.2016V30.1713C175.101 29.79 174.988 29.4947 174.762 29.2855C174.536 29.0763 174.21 28.9717 173.785 28.9717C173.336 28.9717 172.98 29.0696 172.717 29.2653C172.457 29.461 172.282 29.6921 172.191 29.9587L170.48 29.7157C170.615 29.2433 170.838 28.8485 171.148 28.5313C171.459 28.2108 171.838 27.9712 172.287 27.8126C172.736 27.6507 173.232 27.5697 173.775 27.5697C174.15 27.5697 174.523 27.6135 174.894 27.7013C175.265 27.789 175.604 27.9341 175.911 28.1366C176.218 28.3356 176.464 28.6073 176.65 28.9515C176.839 29.2956 176.933 29.7259 176.933 30.2421V35.4453H175.172V34.3773H175.111C175 34.5933 174.843 34.7958 174.641 34.9847C174.442 35.1703 174.19 35.3205 173.886 35.4352C173.586 35.5465 173.234 35.6022 172.829 35.6022ZM173.304 34.2559C173.672 34.2559 173.991 34.1833 174.261 34.0382C174.531 33.8898 174.739 33.694 174.884 33.4511C175.032 33.2081 175.106 32.9433 175.106 32.6564V31.7403C175.049 31.7876 174.951 31.8314 174.813 31.8719C174.678 31.9124 174.526 31.9478 174.357 31.9782C174.188 32.0086 174.021 32.0356 173.856 32.0592C173.691 32.0828 173.547 32.1031 173.426 32.1199C173.153 32.157 172.908 32.2178 172.692 32.3021C172.476 32.3865 172.306 32.5046 172.181 32.6564C172.056 32.8049 171.993 32.9972 171.993 33.2335C171.993 33.5709 172.117 33.8256 172.363 33.9977C172.609 34.1698 172.923 34.2559 173.304 34.2559ZM178.776 35.4453V27.6709H180.608V35.4453H178.776ZM179.697 26.5675C179.407 26.5675 179.157 26.4713 178.948 26.279C178.739 26.0833 178.634 25.8488 178.634 25.5755C178.634 25.2988 178.739 25.0642 178.948 24.8719C179.157 24.6762 179.407 24.5783 179.697 24.5783C179.991 24.5783 180.24 24.6762 180.446 24.8719C180.655 25.0642 180.76 25.2988 180.76 25.5755C180.76 25.8488 180.655 26.0833 180.446 26.279C180.24 26.4713 179.991 26.5675 179.697 26.5675ZM184.324 25.0794V35.4453H182.492V25.0794H184.324ZM192.353 29.7259L190.683 29.9081C190.636 29.7394 190.553 29.5808 190.435 29.4323C190.32 29.2838 190.165 29.164 189.969 29.0729C189.774 28.9818 189.534 28.9363 189.251 28.9363C188.869 28.9363 188.549 29.0189 188.289 29.1843C188.032 29.3496 187.906 29.5639 187.909 29.8271C187.906 30.0532 187.989 30.2371 188.157 30.3788C188.329 30.5205 188.613 30.6369 189.008 30.728L190.334 31.0115C191.069 31.1701 191.616 31.4214 191.974 31.7656C192.335 32.1098 192.517 32.5603 192.52 33.117C192.517 33.6063 192.373 34.0382 192.09 34.4128C191.81 34.7839 191.42 35.0741 190.921 35.2833C190.421 35.4926 189.848 35.5972 189.2 35.5972C188.248 35.5972 187.482 35.3981 186.902 34.9999C186.322 34.5984 185.976 34.0399 185.864 33.3246L187.651 33.1525C187.732 33.5034 187.904 33.7683 188.167 33.9471C188.431 34.126 188.773 34.2154 189.195 34.2154C189.63 34.2154 189.979 34.126 190.243 33.9471C190.509 33.7683 190.642 33.5473 190.642 33.2841C190.642 33.0614 190.556 32.8775 190.384 32.7324C190.216 32.5873 189.952 32.4759 189.595 32.3983L188.269 32.1199C187.523 31.9647 186.971 31.7032 186.614 31.3354C186.256 30.9642 186.079 30.4952 186.082 29.9283C186.079 29.4492 186.209 29.0341 186.472 28.6832C186.738 28.3289 187.108 28.0556 187.58 27.8632C188.056 27.6675 188.604 27.5697 189.225 27.5697C190.136 27.5697 190.853 27.7637 191.376 28.1517C191.903 28.5398 192.228 29.0645 192.353 29.7259ZM195.16 35.5567C194.853 35.5567 194.59 35.4487 194.37 35.2327C194.151 35.0168 194.043 34.7536 194.046 34.4431C194.043 34.1395 194.151 33.8796 194.37 33.6637C194.59 33.4477 194.853 33.3397 195.16 33.3397C195.457 33.3397 195.715 33.4477 195.934 33.6637C196.157 33.8796 196.27 34.1395 196.273 34.4431C196.27 34.649 196.216 34.8362 196.111 35.005C196.01 35.1737 195.875 35.3087 195.706 35.4099C195.541 35.5077 195.359 35.5567 195.16 35.5567ZM195.16 30.0093C194.853 30.0093 194.59 29.9013 194.37 29.6854C194.151 29.466 194.043 29.2028 194.046 28.8958C194.043 28.5921 194.151 28.3323 194.37 28.1163C194.59 27.897 194.853 27.7873 195.16 27.7873C195.457 27.7873 195.715 27.897 195.934 28.1163C196.157 28.3323 196.27 28.5921 196.273 28.8958C196.27 29.0982 196.216 29.2838 196.111 29.4525C196.01 29.6213 195.875 29.7562 195.706 29.8575C195.541 29.9587 195.359 30.0093 195.16 30.0093Z" fill="#01202B"/>
<path d="M44.5135 68.9453H43.3121L46.0117 61.4436H47.3193L50.0189 68.9453H48.8175L46.6966 62.8062H46.638L44.5135 68.9453ZM44.715 66.0076H48.6123V66.96H44.715V66.0076ZM53.2936 69.0589C52.749 69.0589 52.2802 68.9355 51.887 68.6889C51.4963 68.4398 51.1959 68.0967 50.9859 67.6596C50.7759 67.2225 50.6709 66.7219 50.6709 66.1578C50.6709 65.5864 50.7784 65.0821 50.9933 64.645C51.2082 64.2055 51.511 63.8624 51.9017 63.6157C52.2924 63.3691 52.7527 63.2458 53.2826 63.2458C53.7099 63.2458 54.0909 63.3251 54.4254 63.4839C54.76 63.6401 55.0298 63.8599 55.2349 64.1432C55.4425 64.4265 55.5658 64.7573 55.6049 65.1359H54.539C54.4804 64.8721 54.3461 64.645 54.1361 64.4545C53.9285 64.2641 53.6501 64.1688 53.3009 64.1688C52.9957 64.1688 52.7283 64.2494 52.4987 64.4106C52.2716 64.5693 52.0946 64.7964 51.9676 65.0919C51.8406 65.3849 51.7771 65.7317 51.7771 66.1322C51.7771 66.5424 51.8394 66.8965 51.9639 67.1944C52.0885 67.4923 52.2643 67.7231 52.4914 67.8867C52.7209 68.0503 52.9908 68.1321 53.3009 68.1321C53.5085 68.1321 53.6965 68.0943 53.865 68.0186C54.0359 67.9404 54.1788 67.8293 54.2936 67.6853C54.4108 67.5412 54.4926 67.3678 54.539 67.1651H55.6049C55.5658 67.529 55.4474 67.8538 55.2496 68.1395C55.0518 68.4252 54.7868 68.6498 54.4547 68.8134C54.1251 68.9771 53.738 69.0589 53.2936 69.0589ZM59.1461 69.0589C58.6015 69.0589 58.1326 68.9355 57.7395 68.6889C57.3488 68.4398 57.0484 68.0967 56.8384 67.6596C56.6284 67.2225 56.5234 66.7219 56.5234 66.1578C56.5234 65.5864 56.6308 65.0821 56.8457 64.645C57.0606 64.2055 57.3634 63.8624 57.7541 63.6157C58.1449 63.3691 58.6052 63.2458 59.1351 63.2458C59.5624 63.2458 59.9434 63.3251 60.2779 63.4839C60.6125 63.6401 60.8823 63.8599 61.0874 64.1432C61.295 64.4265 61.4183 64.7573 61.4574 65.1359H60.3915C60.3329 64.8721 60.1985 64.645 59.9885 64.4545C59.781 64.2641 59.5026 64.1688 59.1534 64.1688C58.8481 64.1688 58.5807 64.2494 58.3512 64.4106C58.1241 64.5693 57.9471 64.7964 57.8201 65.0919C57.6931 65.3849 57.6296 65.7317 57.6296 66.1322C57.6296 66.5424 57.6919 66.8965 57.8164 67.1944C57.9409 67.4923 58.1168 67.7231 58.3439 67.8867C58.5734 68.0503 58.8433 68.1321 59.1534 68.1321C59.361 68.1321 59.549 68.0943 59.7175 68.0186C59.8884 67.9404 60.0313 67.8293 60.146 67.6853C60.2633 67.5412 60.3451 67.3678 60.3915 67.1651H61.4574C61.4183 67.529 61.2999 67.8538 61.1021 68.1395C60.9043 68.4252 60.6393 68.6498 60.3072 68.8134C59.9775 68.9771 59.5905 69.0589 59.1461 69.0589ZM64.9985 69.0589C64.4711 69.0589 64.0108 68.938 63.6176 68.6962C63.2244 68.4545 62.9192 68.1163 62.7019 67.6816C62.4845 67.2469 62.3759 66.739 62.3759 66.1578C62.3759 65.5742 62.4845 65.0638 62.7019 64.6267C62.9192 64.1896 63.2244 63.8502 63.6176 63.6084C64.0108 63.3667 64.4711 63.2458 64.9985 63.2458C65.526 63.2458 65.9863 63.3667 66.3795 63.6084C66.7726 63.8502 67.0779 64.1896 67.2952 64.6267C67.5125 65.0638 67.6212 65.5742 67.6212 66.1578C67.6212 66.739 67.5125 67.2469 67.2952 67.6816C67.0779 68.1163 66.7726 68.4545 66.3795 68.6962C65.9863 68.938 65.526 69.0589 64.9985 69.0589ZM65.0022 68.1395C65.3441 68.1395 65.6273 68.0491 65.852 67.8684C66.0767 67.6877 66.2427 67.4472 66.3502 67.1468C66.46 66.8464 66.515 66.5156 66.515 66.1541C66.515 65.7952 66.46 65.4655 66.3502 65.1652C66.2427 64.8624 66.0767 64.6194 65.852 64.4362C65.6273 64.2531 65.3441 64.1615 65.0022 64.1615C64.6579 64.1615 64.3722 64.2531 64.1451 64.4362C63.9204 64.6194 63.7531 64.8624 63.6432 65.1652C63.5358 65.4655 63.4821 65.7952 63.4821 66.1541C63.4821 66.5156 63.5358 66.8464 63.6432 67.1468C63.7531 67.4472 63.9204 67.6877 64.1451 67.8684C64.3722 68.0491 64.6579 68.1395 65.0022 68.1395ZM72.4077 66.612V63.319H73.5066V68.9453H72.4297V67.971H72.3711C72.2417 68.2713 72.0341 68.5216 71.7484 68.7219C71.4651 68.9197 71.1123 69.0186 70.6898 69.0186C70.3284 69.0186 70.0085 68.9392 69.7301 68.7805C69.4542 68.6193 69.2369 68.3812 69.0781 68.0662C68.9218 67.7512 68.8437 67.3617 68.8437 66.8977V63.319H69.9389V66.7659C69.9389 67.1492 70.0451 67.4545 70.2576 67.6816C70.47 67.9087 70.746 68.0223 71.0854 68.0223C71.2905 68.0223 71.4945 67.971 71.6971 67.8684C71.9023 67.7658 72.072 67.6108 72.2063 67.4032C72.343 67.1956 72.4102 66.9319 72.4077 66.612ZM76.0734 65.6047V68.9453H74.9782V63.319H76.0295V64.2348H76.0991C76.2285 63.9368 76.4312 63.6975 76.7071 63.5168C76.9855 63.3361 77.3359 63.2458 77.7584 63.2458C78.1418 63.2458 78.4775 63.3264 78.7657 63.4875C79.0538 63.6463 79.2773 63.8831 79.436 64.1981C79.5947 64.5132 79.6741 64.9026 79.6741 65.3666V68.9453H78.5789V65.4985C78.5789 65.0907 78.4727 64.772 78.2602 64.5425C78.0478 64.3105 77.7559 64.1945 77.3848 64.1945C77.1308 64.1945 76.9049 64.2494 76.7071 64.3593C76.5118 64.4692 76.3567 64.6304 76.2419 64.8428C76.1296 65.0528 76.0734 65.3068 76.0734 65.6047ZM83.7693 63.319V64.1981H80.6961V63.319H83.7693ZM81.5202 61.9711H82.6155V67.2933C82.6155 67.5058 82.6472 67.6657 82.7107 67.7732C82.7742 67.8782 82.856 67.9502 82.9561 67.9893C83.0587 68.0259 83.1698 68.0442 83.2894 68.0442C83.3773 68.0442 83.4543 68.0381 83.5202 68.0259C83.5861 68.0137 83.6374 68.0039 83.674 67.9966L83.8718 68.9014C83.8083 68.9258 83.718 68.9502 83.6008 68.9746C83.4836 69.0015 83.3371 69.0161 83.1612 69.0186C82.8731 69.0235 82.6045 68.9722 82.3554 68.8647C82.1063 68.7573 81.9048 68.5912 81.751 68.3666C81.5972 68.1419 81.5202 67.8599 81.5202 67.5204V61.9711ZM93.8534 61.4436V68.9453H92.8131L89 63.4436H88.9304V68.9453H87.7985V61.4436H88.8461L92.6629 66.9527H92.7325V61.4436H93.8534ZM98.9806 66.612V63.319H100.079V68.9453H99.0025V67.971H98.9439C98.8145 68.2713 98.6069 68.5216 98.3212 68.7219C98.038 68.9197 97.6851 69.0186 97.2626 69.0186C96.9012 69.0186 96.5813 68.9392 96.303 68.7805C96.027 68.6193 95.8097 68.3812 95.6509 68.0662C95.4947 67.7512 95.4165 67.3617 95.4165 66.8977V63.319H96.5117V66.7659C96.5117 67.1492 96.618 67.4545 96.8304 67.6816C97.0429 67.9087 97.3188 68.0223 97.6582 68.0223C97.8634 68.0223 98.0673 67.971 98.27 67.8684C98.4751 67.7658 98.6448 67.6108 98.7791 67.4032C98.9159 67.1956 98.983 66.9319 98.9806 66.612ZM101.551 68.9453V63.319H102.602V64.2348H102.672C102.789 63.9246 102.981 63.6829 103.247 63.5095C103.513 63.3337 103.832 63.2458 104.203 63.2458C104.579 63.2458 104.894 63.3337 105.148 63.5095C105.404 63.6853 105.594 63.9271 105.716 64.2348H105.774C105.909 63.9344 106.122 63.6951 106.415 63.5168C106.708 63.3361 107.058 63.2458 107.463 63.2458C107.973 63.2458 108.39 63.4057 108.712 63.7256C109.037 64.0455 109.199 64.5278 109.199 65.1725V68.9453H108.104V65.275C108.104 64.8941 108 64.6182 107.793 64.4472C107.585 64.2763 107.337 64.1908 107.049 64.1908C106.693 64.1908 106.415 64.3007 106.218 64.5205C106.02 64.7378 105.921 65.0174 105.921 65.3593V68.9453H104.829V65.2054C104.829 64.9002 104.734 64.6548 104.544 64.4692C104.353 64.2836 104.105 64.1908 103.8 64.1908C103.593 64.1908 103.401 64.2458 103.225 64.3556C103.052 64.4631 102.911 64.6133 102.804 64.8062C102.699 64.9991 102.646 65.2225 102.646 65.4765V68.9453H101.551ZM110.755 68.9453V61.4436H111.85V64.2311H111.916C111.98 64.1139 112.071 63.9784 112.191 63.8245C112.311 63.6707 112.477 63.5364 112.689 63.4216C112.902 63.3044 113.182 63.2458 113.532 63.2458C113.986 63.2458 114.391 63.3605 114.748 63.5901C115.104 63.8196 115.384 64.1505 115.587 64.5827C115.792 65.015 115.894 65.5351 115.894 66.1432C115.894 66.7512 115.793 67.2726 115.59 67.7072C115.387 68.1395 115.109 68.4728 114.755 68.7072C114.401 68.9392 113.997 69.0552 113.543 69.0552C113.201 69.0552 112.921 68.9978 112.704 68.883C112.489 68.7683 112.32 68.634 112.198 68.4801C112.076 68.3263 111.982 68.1895 111.916 68.0699H111.825V68.9453H110.755ZM111.828 66.1322C111.828 66.5278 111.886 66.8745 112 67.1724C112.115 67.4704 112.281 67.7036 112.499 67.8721C112.716 68.0381 112.982 68.1212 113.297 68.1212C113.624 68.1212 113.898 68.0345 114.118 67.8611C114.337 67.6853 114.504 67.4472 114.616 67.1468C114.731 66.8464 114.788 66.5082 114.788 66.1322C114.788 65.761 114.732 65.4277 114.619 65.1322C114.51 64.8367 114.344 64.6035 114.121 64.4326C113.902 64.2616 113.627 64.1762 113.297 64.1762C112.98 64.1762 112.711 64.258 112.491 64.4216C112.274 64.5852 112.109 64.8135 111.997 65.1065C111.885 65.3996 111.828 65.7415 111.828 66.1322ZM119.549 69.0589C118.995 69.0589 118.517 68.9404 118.117 68.7036C117.719 68.4642 117.411 68.1285 117.194 67.6962C116.979 67.2616 116.871 66.7524 116.871 66.1688C116.871 65.5925 116.979 65.0846 117.194 64.645C117.411 64.2055 117.714 63.8624 118.102 63.6157C118.493 63.3691 118.949 63.2458 119.472 63.2458C119.789 63.2458 120.097 63.2983 120.395 63.4033C120.693 63.5083 120.96 63.6731 121.197 63.8978C121.434 64.1224 121.621 64.4143 121.758 64.7732C121.894 65.1297 121.963 65.5632 121.963 66.0736V66.4618H117.49V65.6413H120.89C120.89 65.3532 120.831 65.098 120.714 64.8758C120.597 64.6511 120.432 64.4741 120.219 64.3447C120.009 64.2152 119.763 64.1505 119.479 64.1505C119.172 64.1505 118.903 64.2262 118.673 64.3776C118.446 64.5266 118.271 64.7219 118.146 64.9637C118.024 65.203 117.963 65.4631 117.963 65.7439V66.3849C117.963 66.761 118.029 67.0809 118.161 67.3446C118.295 67.6083 118.482 67.8098 118.721 67.949C118.96 68.0857 119.24 68.1541 119.56 68.1541C119.767 68.1541 119.957 68.1248 120.128 68.0662C120.299 68.0052 120.446 67.9148 120.571 67.7951C120.695 67.6755 120.791 67.5278 120.857 67.3519L121.893 67.5387C121.81 67.844 121.661 68.1114 121.446 68.3409C121.234 68.568 120.966 68.7451 120.644 68.8721C120.324 68.9966 119.959 69.0589 119.549 69.0589ZM123.178 68.9453V63.319H124.237V64.2128H124.295C124.398 63.91 124.578 63.6719 124.837 63.4985C125.099 63.3227 125.394 63.2348 125.724 63.2348C125.792 63.2348 125.873 63.2372 125.965 63.2421C126.061 63.247 126.135 63.2531 126.189 63.2604V64.308C126.145 64.2958 126.067 64.2824 125.954 64.2677C125.842 64.2506 125.73 64.2421 125.617 64.2421C125.359 64.2421 125.128 64.297 124.925 64.4069C124.725 64.5144 124.566 64.6646 124.449 64.8575C124.332 65.0479 124.273 65.2653 124.273 65.5095V68.9453H123.178Z" fill="#636363" fill-opacity="0.4"/>
<path d="M45.0117 100.803V108.305H43.8798V100.803H45.0117ZM46.66 108.305V100.803H51.3119V101.777H47.7918V104.063H50.9786V105.034H47.7918V108.305H46.66ZM56.7954 102.774C56.7563 102.427 56.5951 102.158 56.3119 101.968C56.0286 101.775 55.6721 101.678 55.2423 101.678C54.9346 101.678 54.6684 101.727 54.4438 101.825C54.2191 101.92 54.0445 102.052 53.92 102.221C53.7979 102.387 53.7368 102.576 53.7368 102.788C53.7368 102.967 53.7783 103.12 53.8613 103.25C53.9468 103.379 54.0579 103.488 54.1947 103.576C54.3339 103.661 54.4828 103.733 54.6416 103.792C54.8003 103.848 54.9529 103.895 55.0994 103.931L55.832 104.122C56.0713 104.18 56.3167 104.26 56.5683 104.36C56.8198 104.46 57.053 104.592 57.2679 104.755C57.4828 104.919 57.6562 105.122 57.788 105.363C57.9223 105.605 57.9895 105.894 57.9895 106.231C57.9895 106.656 57.8796 107.034 57.6598 107.363C57.4425 107.693 57.1262 107.953 56.7111 108.144C56.2984 108.334 55.799 108.429 55.213 108.429C54.6513 108.429 54.1654 108.34 53.7551 108.162C53.3449 107.984 53.0238 107.731 52.7918 107.404C52.5598 107.074 52.4316 106.683 52.4072 106.231H53.5427C53.5646 106.503 53.6526 106.728 53.8064 106.909C53.9627 107.087 54.1617 107.22 54.4035 107.308C54.6477 107.394 54.9151 107.437 55.2056 107.437C55.5255 107.437 55.81 107.387 56.0591 107.286C56.3106 107.184 56.5084 107.042 56.6525 106.861C56.7966 106.678 56.8686 106.465 56.8686 106.22C56.8686 105.998 56.8051 105.816 56.6781 105.675C56.5536 105.533 56.3839 105.416 56.169 105.323C55.9565 105.23 55.716 105.148 55.4474 105.078L54.561 104.836C53.9602 104.672 53.4841 104.432 53.1324 104.114C52.7832 103.797 52.6086 103.377 52.6086 102.854C52.6086 102.422 52.7258 102.045 52.9603 101.722C53.1947 101.4 53.5121 101.15 53.9126 100.971C54.3131 100.791 54.7649 100.7 55.2679 100.7C55.7758 100.7 56.2239 100.79 56.6122 100.968C57.0029 101.146 57.3106 101.391 57.5353 101.704C57.7599 102.014 57.8772 102.371 57.8869 102.774H56.7954ZM65.5727 103.242H64.4299C64.3859 102.998 64.3041 102.783 64.1844 102.598C64.0648 102.412 63.9183 102.255 63.7449 102.125C63.5715 101.996 63.3774 101.898 63.1625 101.832C62.95 101.766 62.7241 101.733 62.4848 101.733C62.0526 101.733 61.6656 101.842 61.3237 102.059C60.9842 102.277 60.7156 102.595 60.5178 103.015C60.3225 103.435 60.2248 103.948 60.2248 104.554C60.2248 105.164 60.3225 105.68 60.5178 106.1C60.7156 106.52 60.9855 106.837 61.3273 107.052C61.6692 107.267 62.0538 107.374 62.4812 107.374C62.718 107.374 62.9427 107.343 63.1551 107.279C63.37 107.213 63.5642 107.117 63.7376 106.99C63.9109 106.863 64.0575 106.708 64.1771 106.524C64.2992 106.339 64.3835 106.126 64.4299 105.887L65.5727 105.891C65.5116 106.26 65.3932 106.599 65.2174 106.909C65.044 107.217 64.8206 107.483 64.5471 107.708C64.276 107.93 63.9659 108.102 63.6167 108.224C63.2675 108.346 62.8865 108.407 62.4738 108.407C61.8243 108.407 61.2455 108.253 60.7376 107.946C60.2297 107.636 59.8292 107.192 59.5362 106.616C59.2456 106.04 59.1003 105.352 59.1003 104.554C59.1003 103.753 59.2468 103.065 59.5398 102.492C59.8329 101.915 60.2333 101.473 60.7413 101.166C61.2492 100.855 61.8267 100.7 62.4738 100.7C62.8719 100.7 63.2431 100.758 63.5874 100.873C63.9341 100.985 64.2455 101.151 64.5214 101.371C64.7974 101.588 65.0257 101.854 65.2064 102.169C65.3871 102.482 65.5092 102.84 65.5727 103.242ZM75.8875 103.242H74.7447C74.7007 102.998 74.6189 102.783 74.4993 102.598C74.3796 102.412 74.2331 102.255 74.0597 102.125C73.8864 101.996 73.6922 101.898 73.4773 101.832C73.2649 101.766 73.039 101.733 72.7997 101.733C72.3675 101.733 71.9804 101.842 71.6385 102.059C71.2991 102.277 71.0305 102.595 70.8327 103.015C70.6373 103.435 70.5396 103.948 70.5396 104.554C70.5396 105.164 70.6373 105.68 70.8327 106.1C71.0305 106.52 71.3003 106.837 71.6422 107.052C71.9841 107.267 72.3687 107.374 72.796 107.374C73.0329 107.374 73.2575 107.343 73.47 107.279C73.6849 107.213 73.879 107.117 74.0524 106.99C74.2258 106.863 74.3723 106.708 74.492 106.524C74.6141 106.339 74.6983 106.126 74.7447 105.887L75.8875 105.891C75.8265 106.26 75.7081 106.599 75.5322 106.909C75.3589 107.217 75.1354 107.483 74.8619 107.708C74.5909 107.93 74.2807 108.102 73.9315 108.224C73.5823 108.346 73.2014 108.407 72.7887 108.407C72.1391 108.407 71.5604 108.253 71.0525 107.946C70.5445 107.636 70.144 107.192 69.851 106.616C69.5604 106.04 69.4151 105.352 69.4151 104.554C69.4151 103.753 69.5616 103.065 69.8547 102.492C70.1477 101.915 70.5482 101.473 71.0561 101.166C71.564 100.855 72.1416 100.7 72.7887 100.7C73.1867 100.7 73.5579 100.758 73.9022 100.873C74.249 100.985 74.5603 101.151 74.8363 101.371C75.1122 101.588 75.3405 101.854 75.5212 102.169C75.7019 102.482 75.824 102.84 75.8875 103.242ZM79.5239 108.418C78.9965 108.418 78.5362 108.297 78.143 108.056C77.7498 107.814 77.4446 107.476 77.2273 107.041C77.0099 106.606 76.9013 106.098 76.9013 105.517C76.9013 104.934 77.0099 104.423 77.2273 103.986C77.4446 103.549 77.7498 103.21 78.143 102.968C78.5362 102.726 78.9965 102.605 79.5239 102.605C80.0514 102.605 80.5117 102.726 80.9049 102.968C81.298 103.21 81.6033 103.549 81.8206 103.986C82.0379 104.423 82.1466 104.934 82.1466 105.517C82.1466 106.098 82.0379 106.606 81.8206 107.041C81.6033 107.476 81.298 107.814 80.9049 108.056C80.5117 108.297 80.0514 108.418 79.5239 108.418ZM79.5276 107.499C79.8695 107.499 80.1527 107.408 80.3774 107.228C80.6021 107.047 80.7681 106.807 80.8756 106.506C80.9854 106.206 81.0404 105.875 81.0404 105.514C81.0404 105.155 80.9854 104.825 80.8756 104.525C80.7681 104.222 80.6021 103.979 80.3774 103.796C80.1527 103.612 79.8695 103.521 79.5276 103.521C79.1833 103.521 78.8976 103.612 78.6705 103.796C78.4458 103.979 78.2785 104.222 78.1686 104.525C78.0612 104.825 78.0075 105.155 78.0075 105.514C78.0075 105.875 78.0612 106.206 78.1686 106.506C78.2785 106.807 78.4458 107.047 78.6705 107.228C78.8976 107.408 79.1833 107.499 79.5276 107.499ZM85.4753 108.415C85.0211 108.415 84.6157 108.299 84.2592 108.067C83.9051 107.832 83.6267 107.499 83.424 107.067C83.2238 106.632 83.1237 106.111 83.1237 105.503C83.1237 104.894 83.225 104.374 83.4277 103.942C83.6328 103.51 83.9137 103.179 84.2702 102.949C84.6267 102.72 85.0309 102.605 85.4826 102.605C85.8318 102.605 86.1126 102.664 86.3251 102.781C86.54 102.896 86.706 103.03 86.8233 103.184C86.9429 103.338 87.0357 103.473 87.1016 103.59H87.1676V100.803H88.2628V108.305H87.1932V107.429H87.1016C87.0357 107.549 86.9405 107.686 86.8159 107.839C86.6938 107.993 86.5253 108.128 86.3104 108.242C86.0956 108.357 85.8172 108.415 85.4753 108.415ZM85.717 107.481C86.0321 107.481 86.2982 107.397 86.5156 107.231C86.7353 107.063 86.9014 106.83 87.0137 106.532C87.1285 106.234 87.1859 105.887 87.1859 105.492C87.1859 105.101 87.1297 104.759 87.0174 104.466C86.9051 104.173 86.7402 103.945 86.5229 103.781C86.3056 103.617 86.0369 103.536 85.717 103.536C85.3874 103.536 85.1127 103.621 84.8929 103.792C84.6731 103.963 84.5071 104.196 84.3947 104.492C84.2848 104.787 84.2299 105.12 84.2299 105.492C84.2299 105.868 84.2861 106.206 84.3984 106.506C84.5107 106.807 84.6768 107.045 84.8965 107.22C85.1188 107.394 85.3923 107.481 85.717 107.481ZM92.2508 108.418C91.6965 108.418 91.2191 108.3 90.8186 108.063C90.4206 107.824 90.1129 107.488 89.8956 107.056C89.6807 106.621 89.5732 106.112 89.5732 105.528C89.5732 104.952 89.6807 104.444 89.8956 104.004C90.1129 103.565 90.4157 103.222 90.804 102.975C91.1947 102.728 91.6513 102.605 92.1739 102.605C92.4914 102.605 92.799 102.658 93.097 102.763C93.3949 102.868 93.6623 103.032 93.8991 103.257C94.136 103.482 94.3228 103.774 94.4596 104.133C94.5963 104.489 94.6647 104.923 94.6647 105.433V105.821H90.1922V105.001H93.5915C93.5915 104.713 93.5329 104.457 93.4156 104.235C93.2984 104.01 93.1336 103.833 92.9211 103.704C92.7111 103.575 92.4645 103.51 92.1812 103.51C91.8735 103.51 91.6049 103.586 91.3754 103.737C91.1483 103.886 90.9725 104.081 90.8479 104.323C90.7258 104.562 90.6648 104.822 90.6648 105.103V105.744C90.6648 106.12 90.7307 106.44 90.8626 106.704C90.9969 106.968 91.1837 107.169 91.423 107.308C91.6623 107.445 91.9419 107.513 92.2618 107.513C92.4694 107.513 92.6586 107.484 92.8296 107.426C93.0005 107.365 93.1482 107.274 93.2728 107.155C93.3973 107.035 93.4926 106.887 93.5585 106.711L94.5951 106.898C94.5121 107.203 94.3631 107.471 94.1482 107.7C93.9358 107.927 93.6684 108.104 93.346 108.231C93.0261 108.356 92.6611 108.418 92.2508 108.418Z" fill="#636363" fill-opacity="0.4"/>
<path d="M153.046 236.023H151.349L154.439 227.247H156.402L159.496 236.023H157.799L155.455 229.047H155.386L153.046 236.023ZM153.102 232.582H157.73V233.859H153.102V232.582ZM163.254 236.152C162.597 236.152 162.033 236.008 161.561 235.719C161.093 235.431 160.732 235.032 160.477 234.524C160.226 234.012 160.1 233.424 160.1 232.758C160.1 232.089 160.229 231.499 160.486 230.988C160.743 230.474 161.106 230.074 161.574 229.788C162.046 229.5 162.603 229.355 163.246 229.355C163.78 229.355 164.253 229.454 164.664 229.651C165.078 229.845 165.408 230.121 165.654 230.478C165.9 230.832 166.04 231.247 166.074 231.721H164.591C164.531 231.404 164.388 231.14 164.163 230.928C163.94 230.714 163.641 230.607 163.267 230.607C162.95 230.607 162.671 230.692 162.431 230.864C162.191 231.032 162.004 231.275 161.87 231.592C161.739 231.909 161.673 232.289 161.673 232.732C161.673 233.181 161.739 233.566 161.87 233.889C162.001 234.209 162.186 234.456 162.423 234.631C162.663 234.802 162.944 234.888 163.267 234.888C163.496 234.888 163.7 234.845 163.88 234.759C164.063 234.671 164.216 234.544 164.338 234.378C164.461 234.212 164.546 234.011 164.591 233.774H166.074C166.037 234.239 165.9 234.652 165.663 235.012C165.425 235.369 165.103 235.649 164.694 235.852C164.286 236.052 163.806 236.152 163.254 236.152ZM170.219 236.152C169.562 236.152 168.998 236.008 168.526 235.719C168.058 235.431 167.696 235.032 167.442 234.524C167.191 234.012 167.065 233.424 167.065 232.758C167.065 232.089 167.194 231.499 167.451 230.988C167.708 230.474 168.071 230.074 168.539 229.788C169.011 229.5 169.568 229.355 170.21 229.355C170.745 229.355 171.218 229.454 171.629 229.651C172.043 229.845 172.373 230.121 172.619 230.478C172.865 230.832 173.005 231.247 173.039 231.721H171.556C171.496 231.404 171.353 231.14 171.128 230.928C170.905 230.714 170.606 230.607 170.232 230.607C169.915 230.607 169.636 230.692 169.396 230.864C169.156 231.032 168.969 231.275 168.835 231.592C168.703 231.909 168.638 232.289 168.638 232.732C168.638 233.181 168.703 233.566 168.835 233.889C168.966 234.209 169.151 234.456 169.388 234.631C169.628 234.802 169.909 234.888 170.232 234.888C170.46 234.888 170.665 234.845 170.845 234.759C171.028 234.671 171.18 234.544 171.303 234.378C171.426 234.212 171.51 234.011 171.556 233.774H173.039C173.002 234.239 172.865 234.652 172.627 235.012C172.39 235.369 172.067 235.649 171.659 235.852C171.25 236.052 170.77 236.152 170.219 236.152ZM177.184 236.152C176.541 236.152 175.984 236.011 175.513 235.728C175.041 235.445 174.676 235.049 174.416 234.541C174.158 234.032 174.03 233.438 174.03 232.758C174.03 232.078 174.158 231.482 174.416 230.971C174.676 230.46 175.041 230.062 175.513 229.78C175.984 229.497 176.541 229.355 177.184 229.355C177.827 229.355 178.384 229.497 178.855 229.78C179.327 230.062 179.691 230.46 179.948 230.971C180.208 231.482 180.338 232.078 180.338 232.758C180.338 233.438 180.208 234.032 179.948 234.541C179.691 235.049 179.327 235.445 178.855 235.728C178.384 236.011 177.827 236.152 177.184 236.152ZM177.192 234.909C177.541 234.909 177.832 234.814 178.067 234.622C178.301 234.428 178.475 234.168 178.59 233.842C178.707 233.516 178.765 233.154 178.765 232.754C178.765 232.351 178.707 231.987 178.59 231.661C178.475 231.332 178.301 231.071 178.067 230.877C177.832 230.682 177.541 230.585 177.192 230.585C176.835 230.585 176.538 230.682 176.301 230.877C176.067 231.071 175.891 231.332 175.774 231.661C175.66 231.987 175.603 232.351 175.603 232.754C175.603 233.154 175.66 233.516 175.774 233.842C175.891 234.168 176.067 234.428 176.301 234.622C176.538 234.814 176.835 234.909 177.192 234.909ZM185.85 233.255V229.441H187.401V236.023H185.897V234.854H185.829C185.68 235.222 185.436 235.523 185.096 235.758C184.759 235.992 184.343 236.109 183.849 236.109C183.417 236.109 183.036 236.013 182.705 235.822C182.376 235.628 182.119 235.346 181.933 234.978C181.747 234.606 181.655 234.158 181.655 233.632V229.441H183.206V233.392C183.206 233.809 183.32 234.141 183.549 234.386C183.777 234.632 184.077 234.755 184.449 234.755C184.677 234.755 184.899 234.699 185.113 234.588C185.327 234.476 185.503 234.311 185.64 234.091C185.78 233.868 185.85 233.589 185.85 233.255ZM190.548 232.167V236.023H188.997V229.441H190.479V230.56H190.556C190.708 230.191 190.949 229.898 191.281 229.681C191.615 229.464 192.028 229.355 192.519 229.355C192.973 229.355 193.369 229.452 193.706 229.647C194.046 229.841 194.309 230.122 194.495 230.491C194.683 230.86 194.776 231.307 194.773 231.832V236.023H193.222V232.072C193.222 231.632 193.108 231.288 192.879 231.04C192.653 230.791 192.341 230.667 191.941 230.667C191.669 230.667 191.428 230.727 191.216 230.847C191.008 230.964 190.844 231.134 190.724 231.357C190.606 231.579 190.548 231.849 190.548 232.167ZM199.637 229.441V230.641H195.853V229.441H199.637ZM196.787 227.864H198.339V234.044C198.339 234.252 198.37 234.412 198.433 234.524C198.499 234.632 198.584 234.706 198.69 234.746C198.796 234.786 198.913 234.806 199.042 234.806C199.139 234.806 199.227 234.799 199.307 234.785C199.39 234.771 199.453 234.758 199.496 234.746L199.757 235.959C199.674 235.988 199.556 236.019 199.402 236.053C199.25 236.088 199.064 236.108 198.844 236.113C198.456 236.125 198.106 236.066 197.795 235.938C197.483 235.806 197.236 235.603 197.053 235.329C196.873 235.055 196.785 234.712 196.787 234.301V227.864ZM211.509 230.208H209.906C209.86 229.945 209.776 229.712 209.653 229.51C209.53 229.304 209.378 229.13 209.195 228.987C209.012 228.844 208.803 228.737 208.569 228.665C208.338 228.591 208.088 228.554 207.819 228.554C207.342 228.554 206.919 228.674 206.551 228.914C206.182 229.151 205.894 229.5 205.685 229.96C205.476 230.417 205.372 230.975 205.372 231.635C205.372 232.307 205.476 232.872 205.685 233.332C205.896 233.789 206.185 234.135 206.551 234.369C206.919 234.601 207.341 234.716 207.815 234.716C208.078 234.716 208.323 234.682 208.552 234.614C208.783 234.542 208.99 234.438 209.173 234.301C209.359 234.164 209.515 233.995 209.64 233.795C209.769 233.595 209.858 233.366 209.906 233.109L211.509 233.118C211.449 233.535 211.319 233.926 211.119 234.292C210.922 234.658 210.663 234.981 210.343 235.261C210.023 235.538 209.649 235.755 209.22 235.912C208.792 236.066 208.316 236.143 207.793 236.143C207.022 236.143 206.334 235.965 205.728 235.608C205.122 235.251 204.645 234.735 204.297 234.061C203.948 233.386 203.774 232.578 203.774 231.635C203.774 230.69 203.949 229.881 204.301 229.21C204.652 228.535 205.131 228.02 205.736 227.663C206.342 227.306 207.028 227.127 207.793 227.127C208.282 227.127 208.736 227.196 209.156 227.333C209.576 227.47 209.95 227.671 210.279 227.937C210.607 228.2 210.877 228.523 211.089 228.905C211.303 229.285 211.443 229.72 211.509 230.208ZM215.767 236.152C215.125 236.152 214.568 236.011 214.096 235.728C213.625 235.445 213.259 235.049 212.999 234.541C212.742 234.032 212.613 233.438 212.613 232.758C212.613 232.078 212.742 231.482 212.999 230.971C213.259 230.46 213.625 230.062 214.096 229.78C214.568 229.497 215.125 229.355 215.767 229.355C216.41 229.355 216.967 229.497 217.439 229.78C217.91 230.062 218.274 230.46 218.532 230.971C218.792 231.482 218.921 232.078 218.921 232.758C218.921 233.438 218.792 234.032 218.532 234.541C218.274 235.049 217.91 235.445 217.439 235.728C216.967 236.011 216.41 236.152 215.767 236.152ZM215.776 234.909C216.125 234.909 216.416 234.814 216.65 234.622C216.885 234.428 217.059 234.168 217.173 233.842C217.29 233.516 217.349 233.154 217.349 232.754C217.349 232.351 217.29 231.987 217.173 231.661C217.059 231.332 216.885 231.071 216.65 230.877C216.416 230.682 216.125 230.585 215.776 230.585C215.419 230.585 215.122 230.682 214.885 230.877C214.65 231.071 214.475 231.332 214.358 231.661C214.243 231.987 214.186 232.351 214.186 232.754C214.186 233.154 214.243 233.516 214.358 233.842C214.475 234.168 214.65 234.428 214.885 234.622C215.122 234.814 215.419 234.909 215.776 234.909ZM221.789 232.167V236.023H220.238V229.441H221.721V230.56H221.798C221.949 230.191 222.191 229.898 222.522 229.681C222.857 229.464 223.269 229.355 223.761 229.355C224.215 229.355 224.611 229.452 224.948 229.647C225.288 229.841 225.551 230.122 225.736 230.491C225.925 230.86 226.018 231.307 226.015 231.832V236.023H224.464V232.072C224.464 231.632 224.349 231.288 224.121 231.04C223.895 230.791 223.582 230.667 223.182 230.667C222.911 230.667 222.669 230.727 222.458 230.847C222.249 230.964 222.085 231.134 221.965 231.357C221.848 231.579 221.789 231.849 221.789 232.167ZM229.143 232.167V236.023H227.592V229.441H229.075V230.56H229.152C229.303 230.191 229.545 229.898 229.876 229.681C230.21 229.464 230.623 229.355 231.115 229.355C231.569 229.355 231.964 229.452 232.302 229.647C232.642 229.841 232.904 230.122 233.09 230.491C233.279 230.86 233.371 231.307 233.369 231.832V236.023H231.817V232.072C231.817 231.632 231.703 231.288 231.474 231.04C231.249 230.791 230.936 230.667 230.536 230.667C230.265 230.667 230.023 230.727 229.812 230.847C229.603 230.964 229.439 231.134 229.319 231.357C229.202 231.579 229.143 231.849 229.143 232.167ZM237.86 236.152C237.2 236.152 236.63 236.015 236.15 235.741C235.673 235.463 235.306 235.072 235.049 234.566C234.791 234.058 234.663 233.459 234.663 232.771C234.663 232.094 234.791 231.499 235.049 230.988C235.308 230.474 235.671 230.074 236.137 229.788C236.603 229.5 237.15 229.355 237.778 229.355C238.184 229.355 238.567 229.421 238.927 229.552C239.29 229.681 239.61 229.881 239.887 230.152C240.167 230.424 240.387 230.77 240.547 231.19C240.707 231.607 240.787 232.104 240.787 232.681V233.157H235.391V232.111H239.3C239.297 231.814 239.232 231.549 239.107 231.318C238.981 231.084 238.805 230.9 238.58 230.765C238.357 230.631 238.097 230.564 237.8 230.564C237.483 230.564 237.204 230.641 236.964 230.795C236.724 230.947 236.537 231.147 236.403 231.395C236.271 231.641 236.204 231.911 236.201 232.205V233.118C236.201 233.501 236.271 233.829 236.411 234.104C236.551 234.375 236.747 234.584 236.998 234.729C237.25 234.872 237.544 234.944 237.881 234.944C238.107 234.944 238.311 234.912 238.494 234.849C238.677 234.784 238.835 234.688 238.97 234.562C239.104 234.436 239.205 234.281 239.274 234.095L240.722 234.258C240.631 234.641 240.457 234.975 240.2 235.261C239.945 235.543 239.62 235.763 239.222 235.921C238.825 236.075 238.371 236.152 237.86 236.152ZM244.97 236.152C244.313 236.152 243.749 236.008 243.278 235.719C242.809 235.431 242.448 235.032 242.193 234.524C241.942 234.012 241.816 233.424 241.816 232.758C241.816 232.089 241.945 231.499 242.202 230.988C242.459 230.474 242.822 230.074 243.29 229.788C243.762 229.5 244.319 229.355 244.962 229.355C245.496 229.355 245.969 229.454 246.38 229.651C246.794 229.845 247.124 230.121 247.37 230.478C247.616 230.832 247.756 231.247 247.79 231.721H246.307C246.247 231.404 246.104 231.14 245.879 230.928C245.656 230.714 245.357 230.607 244.983 230.607C244.666 230.607 244.387 230.692 244.147 230.864C243.907 231.032 243.72 231.275 243.586 231.592C243.455 231.909 243.389 232.289 243.389 232.732C243.389 233.181 243.455 233.566 243.586 233.889C243.718 234.209 243.902 234.456 244.139 234.631C244.379 234.802 244.66 234.888 244.983 234.888C245.212 234.888 245.416 234.845 245.596 234.759C245.779 234.671 245.932 234.544 246.054 234.378C246.177 234.212 246.262 234.011 246.307 233.774H247.79C247.753 234.239 247.616 234.652 247.379 235.012C247.142 235.369 246.819 235.649 246.41 235.852C246.002 236.052 245.522 236.152 244.97 236.152ZM252.351 229.441V230.641H248.567V229.441H252.351ZM249.501 227.864H251.052V234.044C251.052 234.252 251.084 234.412 251.147 234.524C251.212 234.632 251.298 234.706 251.404 234.746C251.509 234.786 251.627 234.806 251.755 234.806C251.852 234.806 251.941 234.799 252.021 234.785C252.104 234.771 252.167 234.758 252.209 234.746L252.471 235.959C252.388 235.988 252.269 236.019 252.115 236.053C251.964 236.088 251.778 236.108 251.558 236.113C251.169 236.125 250.819 236.066 250.508 235.938C250.197 235.806 249.95 235.603 249.767 235.329C249.587 235.055 249.498 234.712 249.501 234.301V227.864ZM256.492 236.152C255.832 236.152 255.262 236.015 254.782 235.741C254.305 235.463 253.937 235.072 253.68 234.566C253.423 234.058 253.295 233.459 253.295 232.771C253.295 232.094 253.423 231.499 253.68 230.988C253.94 230.474 254.303 230.074 254.769 229.788C255.234 229.5 255.782 229.355 256.41 229.355C256.816 229.355 257.199 229.421 257.559 229.552C257.921 229.681 258.241 229.881 258.519 230.152C258.799 230.424 259.019 230.77 259.178 231.19C259.338 231.607 259.418 232.104 259.418 232.681V233.157H254.023V232.111H257.931C257.929 231.814 257.864 231.549 257.739 231.318C257.613 231.084 257.437 230.9 257.211 230.765C256.989 230.631 256.729 230.564 256.432 230.564C256.114 230.564 255.836 230.641 255.596 230.795C255.356 230.947 255.169 231.147 255.035 231.395C254.903 231.641 254.836 231.911 254.833 232.205V233.118C254.833 233.501 254.903 233.829 255.043 234.104C255.183 234.375 255.379 234.584 255.63 234.729C255.882 234.872 256.176 234.944 256.513 234.944C256.739 234.944 256.943 234.912 257.126 234.849C257.309 234.784 257.467 234.688 257.601 234.562C257.736 234.436 257.837 234.281 257.906 234.095L259.354 234.258C259.263 234.641 259.088 234.975 258.831 235.261C258.577 235.543 258.251 235.763 257.854 235.921C257.457 236.075 257.003 236.152 256.492 236.152ZM263.174 236.139C262.656 236.139 262.194 236.006 261.785 235.741C261.377 235.475 261.054 235.089 260.817 234.584C260.579 234.078 260.461 233.464 260.461 232.741C260.461 232.009 260.581 231.392 260.821 230.89C261.064 230.384 261.391 230.002 261.802 229.745C262.214 229.485 262.672 229.355 263.178 229.355C263.564 229.355 263.881 229.421 264.129 229.552C264.378 229.681 264.575 229.837 264.721 230.02C264.866 230.2 264.979 230.37 265.059 230.53H265.123V227.247H266.679V236.023H265.153V234.986H265.059C264.979 235.146 264.863 235.316 264.712 235.496C264.561 235.673 264.361 235.825 264.112 235.951C263.863 236.076 263.551 236.139 263.174 236.139ZM263.606 234.866C263.935 234.866 264.215 234.778 264.446 234.601C264.678 234.421 264.853 234.171 264.973 233.851C265.093 233.531 265.153 233.158 265.153 232.732C265.153 232.307 265.093 231.937 264.973 231.622C264.856 231.308 264.682 231.064 264.451 230.89C264.222 230.715 263.941 230.628 263.606 230.628C263.261 230.628 262.972 230.718 262.741 230.898C262.509 231.078 262.335 231.327 262.218 231.644C262.101 231.961 262.042 232.324 262.042 232.732C262.042 233.144 262.101 233.511 262.218 233.834C262.338 234.154 262.514 234.406 262.745 234.592C262.979 234.775 263.266 234.866 263.606 234.866ZM276.164 229.66C276.124 229.285 275.955 228.994 275.658 228.785C275.364 228.577 274.981 228.473 274.509 228.473C274.178 228.473 273.894 228.523 273.657 228.623C273.42 228.723 273.238 228.858 273.112 229.03C272.987 229.201 272.922 229.397 272.92 229.617C272.92 229.8 272.961 229.958 273.044 230.092C273.13 230.227 273.245 230.341 273.391 230.435C273.537 230.527 273.698 230.604 273.875 230.667C274.052 230.73 274.231 230.782 274.411 230.825L275.234 231.031C275.565 231.108 275.884 231.212 276.189 231.344C276.498 231.475 276.774 231.641 277.016 231.841C277.262 232.041 277.456 232.282 277.599 232.565C277.742 232.848 277.814 233.179 277.814 233.559C277.814 234.074 277.682 234.526 277.419 234.918C277.156 235.306 276.776 235.611 276.279 235.831C275.785 236.048 275.187 236.156 274.484 236.156C273.801 236.156 273.208 236.051 272.705 235.839C272.205 235.628 271.814 235.319 271.531 234.914C271.251 234.508 271.1 234.014 271.077 233.431H272.641C272.664 233.736 272.758 233.991 272.924 234.194C273.09 234.396 273.305 234.548 273.571 234.648C273.84 234.748 274.14 234.798 274.471 234.798C274.817 234.798 275.119 234.746 275.379 234.644C275.642 234.538 275.848 234.392 275.997 234.206C276.145 234.018 276.221 233.798 276.224 233.546C276.221 233.318 276.154 233.129 276.022 232.981C275.891 232.829 275.707 232.704 275.469 232.604C275.235 232.501 274.961 232.409 274.647 232.329L273.648 232.072C272.925 231.887 272.354 231.605 271.934 231.228C271.517 230.848 271.308 230.344 271.308 229.715C271.308 229.198 271.448 228.745 271.728 228.357C272.011 227.968 272.395 227.667 272.881 227.453C273.367 227.236 273.917 227.127 274.531 227.127C275.154 227.127 275.699 227.236 276.168 227.453C276.639 227.667 277.009 227.965 277.278 228.348C277.546 228.728 277.685 229.165 277.694 229.66H276.164ZM283.358 233.255V229.441H284.909V236.023H283.405V234.854H283.336C283.188 235.222 282.944 235.523 282.604 235.758C282.266 235.992 281.851 236.109 281.356 236.109C280.925 236.109 280.544 236.013 280.212 235.822C279.884 235.628 279.627 235.346 279.441 234.978C279.255 234.606 279.162 234.158 279.162 233.632V229.441H280.714V233.392C280.714 233.809 280.828 234.141 281.057 234.386C281.285 234.632 281.585 234.755 281.956 234.755C282.185 234.755 282.406 234.699 282.621 234.588C282.835 234.476 283.011 234.311 283.148 234.091C283.288 233.868 283.358 233.589 283.358 233.255ZM289.376 236.152C288.718 236.152 288.154 236.008 287.683 235.719C287.214 235.431 286.853 235.032 286.599 234.524C286.347 234.012 286.221 233.424 286.221 232.758C286.221 232.089 286.35 231.499 286.607 230.988C286.864 230.474 287.227 230.074 287.696 229.788C288.167 229.5 288.724 229.355 289.367 229.355C289.901 229.355 290.374 229.454 290.785 229.651C291.2 229.845 291.53 230.121 291.775 230.478C292.021 230.832 292.161 231.247 292.195 231.721H290.713C290.653 231.404 290.51 231.14 290.284 230.928C290.061 230.714 289.763 230.607 289.388 230.607C289.071 230.607 288.793 230.692 288.553 230.864C288.313 231.032 288.126 231.275 287.991 231.592C287.86 231.909 287.794 232.289 287.794 232.732C287.794 233.181 287.86 233.566 287.991 233.889C288.123 234.209 288.307 234.456 288.544 234.631C288.784 234.802 289.066 234.888 289.388 234.888C289.617 234.888 289.821 234.845 290.001 234.759C290.184 234.671 290.337 234.544 290.46 234.378C290.583 234.212 290.667 234.011 290.713 233.774H292.195C292.158 234.239 292.021 234.652 291.784 235.012C291.547 235.369 291.224 235.649 290.815 235.852C290.407 236.052 289.927 236.152 289.376 236.152ZM296.34 236.152C295.683 236.152 295.119 236.008 294.648 235.719C294.179 235.431 293.818 235.032 293.563 234.524C293.312 234.012 293.186 233.424 293.186 232.758C293.186 232.089 293.315 231.499 293.572 230.988C293.829 230.474 294.192 230.074 294.66 229.788C295.132 229.5 295.689 229.355 296.332 229.355C296.866 229.355 297.339 229.454 297.75 229.651C298.165 229.845 298.494 230.121 298.74 230.478C298.986 230.832 299.126 231.247 299.16 231.721H297.677C297.617 231.404 297.475 231.14 297.249 230.928C297.026 230.714 296.727 230.607 296.353 230.607C296.036 230.607 295.758 230.692 295.518 230.864C295.278 231.032 295.09 231.275 294.956 231.592C294.825 231.909 294.759 232.289 294.759 232.732C294.759 233.181 294.825 233.566 294.956 233.889C295.088 234.209 295.272 234.456 295.509 234.631C295.749 234.802 296.03 234.888 296.353 234.888C296.582 234.888 296.786 234.845 296.966 234.759C297.149 234.671 297.302 234.544 297.425 234.378C297.547 234.212 297.632 234.011 297.677 233.774H299.16C299.123 234.239 298.986 234.652 298.749 235.012C298.512 235.369 298.189 235.649 297.78 235.852C297.372 236.052 296.892 236.152 296.34 236.152ZM303.348 236.152C302.688 236.152 302.118 236.015 301.638 235.741C301.161 235.463 300.794 235.072 300.537 234.566C300.28 234.058 300.151 233.459 300.151 232.771C300.151 232.094 300.28 231.499 300.537 230.988C300.797 230.474 301.16 230.074 301.625 229.788C302.091 229.5 302.638 229.355 303.267 229.355C303.672 229.355 304.055 229.421 304.415 229.552C304.778 229.681 305.098 229.881 305.375 230.152C305.655 230.424 305.875 230.77 306.035 231.19C306.195 231.607 306.275 232.104 306.275 232.681V233.157H300.88V232.111H304.788C304.785 231.814 304.721 231.549 304.595 231.318C304.469 231.084 304.294 230.9 304.068 230.765C303.845 230.631 303.585 230.564 303.288 230.564C302.971 230.564 302.692 230.641 302.452 230.795C302.212 230.947 302.025 231.147 301.891 231.395C301.76 231.641 301.692 231.911 301.69 232.205V233.118C301.69 233.501 301.76 233.829 301.9 234.104C302.04 234.375 302.235 234.584 302.487 234.729C302.738 234.872 303.032 234.944 303.369 234.944C303.595 234.944 303.799 234.912 303.982 234.849C304.165 234.784 304.324 234.688 304.458 234.562C304.592 234.436 304.694 234.281 304.762 234.095L306.211 234.258C306.119 234.641 305.945 234.975 305.688 235.261C305.434 235.543 305.108 235.763 304.711 235.921C304.314 236.075 303.859 236.152 303.348 236.152ZM312.79 231.181L311.376 231.335C311.336 231.192 311.266 231.058 311.166 230.932C311.069 230.807 310.937 230.705 310.771 230.628C310.606 230.551 310.403 230.512 310.163 230.512C309.84 230.512 309.569 230.582 309.349 230.722C309.132 230.862 309.024 231.044 309.027 231.267C309.024 231.458 309.094 231.614 309.237 231.734C309.383 231.854 309.623 231.952 309.957 232.029L311.08 232.269C311.703 232.404 312.166 232.617 312.468 232.908C312.774 233.199 312.928 233.581 312.931 234.052C312.928 234.466 312.807 234.832 312.567 235.149C312.33 235.463 312 235.709 311.577 235.886C311.154 236.063 310.669 236.152 310.12 236.152C309.314 236.152 308.666 235.983 308.174 235.646C307.683 235.306 307.39 234.834 307.296 234.228L308.809 234.082C308.877 234.379 309.023 234.604 309.246 234.755C309.469 234.906 309.759 234.982 310.116 234.982C310.484 234.982 310.78 234.906 311.003 234.755C311.229 234.604 311.341 234.416 311.341 234.194C311.341 234.005 311.269 233.849 311.123 233.726C310.98 233.604 310.757 233.509 310.454 233.444L309.332 233.208C308.7 233.077 308.233 232.855 307.93 232.544C307.627 232.229 307.477 231.832 307.48 231.352C307.477 230.947 307.587 230.595 307.81 230.298C308.036 229.998 308.349 229.767 308.749 229.604C309.152 229.438 309.616 229.355 310.141 229.355C310.913 229.355 311.52 229.52 311.963 229.848C312.408 230.177 312.684 230.621 312.79 231.181ZM319.413 231.181L317.999 231.335C317.959 231.192 317.889 231.058 317.789 230.932C317.692 230.807 317.56 230.705 317.394 230.628C317.229 230.551 317.026 230.512 316.786 230.512C316.463 230.512 316.192 230.582 315.972 230.722C315.755 230.862 315.647 231.044 315.65 231.267C315.647 231.458 315.717 231.614 315.86 231.734C316.006 231.854 316.246 231.952 316.58 232.029L317.703 232.269C318.326 232.404 318.789 232.617 319.092 232.908C319.397 233.199 319.551 233.581 319.554 234.052C319.551 234.466 319.43 234.832 319.19 235.149C318.953 235.463 318.623 235.709 318.2 235.886C317.777 236.063 317.292 236.152 316.743 236.152C315.937 236.152 315.289 235.983 314.798 235.646C314.306 235.306 314.013 234.834 313.919 234.228L315.432 234.082C315.5 234.379 315.646 234.604 315.869 234.755C316.092 234.906 316.382 234.982 316.739 234.982C317.107 234.982 317.403 234.906 317.626 234.755C317.852 234.604 317.964 234.416 317.964 234.194C317.964 234.005 317.892 233.849 317.746 233.726C317.603 233.604 317.38 233.509 317.077 233.444L315.955 233.208C315.323 233.077 314.856 232.855 314.553 232.544C314.25 232.229 314.1 231.832 314.103 231.352C314.1 230.947 314.21 230.595 314.433 230.298C314.659 229.998 314.972 229.767 315.372 229.604C315.775 229.438 316.239 229.355 316.765 229.355C317.536 229.355 318.143 229.52 318.586 229.848C319.032 230.177 319.307 230.621 319.413 231.181ZM324.168 229.441V230.641H320.276V229.441H324.168ZM321.249 236.023V228.82C321.249 228.377 321.341 228.008 321.523 227.714C321.709 227.42 321.958 227.2 322.269 227.054C322.581 226.908 322.926 226.836 323.306 226.836C323.575 226.836 323.813 226.857 324.022 226.9C324.23 226.943 324.385 226.981 324.485 227.016L324.176 228.215C324.11 228.195 324.028 228.175 323.928 228.155C323.828 228.133 323.716 228.121 323.593 228.121C323.305 228.121 323.1 228.191 322.981 228.331C322.863 228.468 322.805 228.665 322.805 228.923V236.023H321.249ZM329.578 233.255V229.441H331.129V236.023H329.625V234.854H329.556C329.408 235.222 329.164 235.523 328.824 235.758C328.487 235.992 328.071 236.109 327.577 236.109C327.145 236.109 326.764 236.013 326.432 235.822C326.104 235.628 325.847 235.346 325.661 234.978C325.475 234.606 325.382 234.158 325.382 233.632V229.441H326.934V233.392C326.934 233.809 327.048 234.141 327.277 234.386C327.505 234.632 327.805 234.755 328.177 234.755C328.405 234.755 328.627 234.699 328.841 234.588C329.055 234.476 329.231 234.311 329.368 234.091C329.508 233.868 329.578 233.589 329.578 233.255ZM334.276 227.247V236.023H332.724V227.247H334.276ZM337.422 227.247V236.023H335.871V227.247H337.422ZM339.982 238.492C339.77 238.492 339.575 238.475 339.395 238.44C339.218 238.409 339.076 238.372 338.97 238.329L339.33 237.12C339.556 237.186 339.757 237.218 339.935 237.215C340.112 237.212 340.267 237.156 340.402 237.048C340.539 236.942 340.655 236.765 340.749 236.516L340.882 236.161L338.495 229.441H340.14L341.657 234.412H341.726L343.247 229.441H344.897L342.262 236.821C342.139 237.169 341.976 237.468 341.773 237.716C341.57 237.968 341.322 238.159 341.027 238.29C340.736 238.425 340.387 238.492 339.982 238.492Z" fill="#01202B"/>
<path d="M244.316 148.812C245.274 144.166 251.91 144.166 252.868 148.812C253.575 152.236 257.819 153.483 260.265 150.984C263.582 147.594 269.165 151.181 267.459 155.607C266.202 158.87 269.099 162.213 272.507 161.433C277.131 160.375 279.888 166.411 276.06 169.212C273.238 171.277 273.868 175.656 277.157 176.842C281.619 178.452 280.674 185.02 275.94 185.307C272.45 185.519 270.612 189.543 272.738 192.319C275.621 196.085 271.275 201.101 267.137 198.782C264.087 197.074 260.365 199.465 260.652 202.95C261.042 207.677 254.675 209.547 252.447 205.359C250.804 202.273 246.381 202.273 244.738 205.359C242.51 209.547 236.143 207.677 236.533 202.95C236.82 199.465 233.098 197.074 230.048 198.782C225.909 201.101 221.564 196.085 224.447 192.319C226.573 189.543 224.735 185.519 221.245 185.307C216.51 185.02 215.566 178.452 220.028 176.842C223.317 175.656 223.947 171.277 221.125 169.212C217.297 166.411 220.054 160.375 224.678 161.433C228.086 162.213 230.983 158.87 229.726 155.607C228.02 151.181 233.603 147.594 236.92 150.984C239.366 153.483 243.61 152.236 244.316 148.812Z" fill="#06FF4E"/>
<path d="M237.981 176.428L242.892 183.795C243.944 185.139 246.61 187.022 248.855 183.795L259.203 168.535" stroke="white" stroke-width="3.36974" stroke-linecap="square"/>
<defs>
<filter id="filter0_d_1731_3843" x="0.277344" y="0.1875" width="383.284" height="196.783" filterUnits="userSpaceOnUse" color-interpolation-filters="sRGB">
<feFlood flood-opacity="0" result="BackgroundImageFix"/>
<feColorMatrix in="SourceAlpha" type="matrix" values="0 0 0 0 0 0 0 0 0 0 0 0 0 0 0 0 0 0 127 0" result="hardAlpha"/>
<feOffset dx="9.07333" dy="9.07333"/>
<feGaussianBlur stdDeviation="4.53666"/>
<feComposite in2="hardAlpha" operator="out"/>
<feColorMatrix type="matrix" values="0 0 0 0 0 0 0 0 0 0 0 0 0 0 0 0 0 0 0.25 0"/>
<feBlend mode="normal" in2="BackgroundImageFix" result="effect1_dropShadow_1731_3843"/>
<feBlend mode="normal" in="SourceGraphic" in2="effect1_dropShadow_1731_3843" result="shape"/>
</filter>
<filter id="filter1_d_1731_3843" x="76.7393" y="114.344" width="362.381" height="178.587" filterUnits="userSpaceOnUse" color-interpolation-filters="sRGB">
<feFlood flood-opacity="0" result="BackgroundImageFix"/>
<feColorMatrix in="SourceAlpha" type="matrix" values="0 0 0 0 0 0 0 0 0 0 0 0 0 0 0 0 0 0 127 0" result="hardAlpha"/>
<feOffset dx="9.33853" dy="9.33853"/>
<feGaussianBlur stdDeviation="4.66926"/>
<feComposite in2="hardAlpha" operator="out"/>
<feColorMatrix type="matrix" values="0 0 0 0 0 0 0 0 0 0 0 0 0 0 0 0 0 0 0.25 0"/>
<feBlend mode="normal" in2="BackgroundImageFix" result="effect1_dropShadow_1731_3843"/>
<feBlend mode="normal" in="SourceGraphic" in2="effect1_dropShadow_1731_3843" result="shape"/>
</filter>
</defs>
</svg>
