<svg width="438" height="293" viewBox="0 0 438 293" fill="none" xmlns="http://www.w3.org/2000/svg">
<g filter="url(#filter0_d_1731_3844)">
<rect x="0.277344" y="0.71875" width="420.165" height="274.054" rx="8.68155" fill="white"/>
<rect x="1.36254" y="1.80394" width="417.995" height="271.884" rx="7.59636" stroke="#0885DA" stroke-width="2.17039"/>
</g>
<rect x="36.9062" y="84.9062" width="363.536" height="48.1454" rx="6.51116" fill="#F1F3F6"/>
<rect x="36.9062" y="142.723" width="363.536" height="48.1454" rx="6.51116" fill="#EFF1F5"/>
<rect x="36.9062" y="200.539" width="363.536" height="48.1454" rx="6.51116" fill="#EFF1F5"/>
<rect x="56.1426" y="104.105" width="159.803" height="9.74979" rx="4.8749" fill="#0885DA"/>
<rect x="337.404" y="92.9492" width="41.0745" height="32.0598" rx="6.51116" fill="white"/>
<rect x="337.404" y="150.754" width="41.0745" height="32.0598" rx="6.51116" fill="white"/>
<rect x="352.546" y="99.1246" width="14.5174" height="17.4931" rx="2.17622" stroke="#0885DA" stroke-width="0.483605"/>
<rect x="352.546" y="156.929" width="14.5174" height="17.4931" rx="2.17622" stroke="#0885DA" stroke-width="0.483605"/>
<rect x="350.656" y="101.351" width="14.5174" height="17.4931" rx="2.17622" fill="white" stroke="#0885DA" stroke-width="0.483605"/>
<rect x="350.656" y="159.152" width="14.5174" height="17.4931" rx="2.17622" fill="white" stroke="#0885DA" stroke-width="0.483605"/>
<rect x="56.1426" y="161.922" width="193.73" height="9.74979" rx="4.8749" fill="#0885DA"/>
<path d="M47.7603 47.9873C47.7004 47.4271 47.4482 46.991 47.0035 46.6789C46.563 46.3667 45.9901 46.2106 45.2846 46.2106C44.7886 46.2106 44.3631 46.2855 44.0082 46.4351C43.6533 46.5848 43.3818 46.7879 43.1937 47.0444C43.0055 47.301 42.9093 47.5939 42.9051 47.9231C42.9051 48.1968 42.9671 48.4341 43.0911 48.6351C43.2193 48.836 43.3925 49.0071 43.6106 49.1482C43.8286 49.285 44.0702 49.4004 44.3353 49.4945C44.6004 49.5886 44.8677 49.6677 45.1371 49.7318L46.3685 50.0397C46.8645 50.1551 47.3413 50.3112 47.7988 50.5079C48.2606 50.7046 48.6732 50.9526 49.0366 51.2519C49.4044 51.5512 49.6951 51.9125 49.9089 52.3358C50.1227 52.7591 50.2296 53.2551 50.2296 53.8238C50.2296 54.5935 50.0329 55.2712 49.6395 55.857C49.2461 56.4385 48.6775 56.8939 47.9335 57.2231C47.1937 57.5481 46.2979 57.7105 45.2461 57.7105C44.2242 57.7105 43.3369 57.5523 42.5844 57.2359C41.8361 56.9195 41.2503 56.4577 40.827 55.8506C40.408 55.2434 40.1813 54.5037 40.1471 53.6314H42.4882C42.5224 54.0889 42.6635 54.4695 42.9115 54.773C43.1595 55.0766 43.4823 55.3032 43.88 55.4529C44.2819 55.6026 44.7308 55.6774 45.2268 55.6774C45.7442 55.6774 46.1975 55.6004 46.5866 55.4465C46.9799 55.2883 47.2878 55.0702 47.5102 54.7923C47.7325 54.5101 47.8458 54.1808 47.8501 53.8046C47.8458 53.4625 47.7453 53.1803 47.5486 52.9579C47.3519 52.7313 47.0762 52.5432 46.7213 52.3935C46.3706 52.2396 45.9602 52.1028 45.4898 51.983L43.9954 51.5982C42.9136 51.3203 42.0584 50.8991 41.4299 50.3347C40.8056 49.766 40.4935 49.0113 40.4935 48.0706C40.4935 47.2967 40.703 46.619 41.122 46.0375C41.5453 45.456 42.1204 45.0049 42.8473 44.6842C43.5742 44.3592 44.3973 44.1967 45.3166 44.1967C46.2488 44.1967 47.0655 44.3592 47.7667 44.6842C48.4722 45.0049 49.0259 45.4517 49.4279 46.0246C49.8298 46.5933 50.0372 47.2475 50.05 47.9873H47.7603ZM54.5701 51.7393V57.5117H52.2483V44.3763H54.5188V49.3342H54.6343C54.8651 48.7783 55.2222 48.34 55.7054 48.0193C56.1928 47.6944 56.8128 47.5319 57.5653 47.5319C58.2495 47.5319 58.846 47.6751 59.3548 47.9616C59.8636 48.2481 60.257 48.6671 60.5349 49.2187C60.8171 49.7703 60.9582 50.4437 60.9582 51.239V57.5117H58.6364V51.5982C58.6364 50.9355 58.4654 50.4202 58.1233 50.0525C57.7856 49.6805 57.3109 49.4945 56.6995 49.4945C56.289 49.4945 55.9213 49.5843 55.5963 49.7639C55.2756 49.9392 55.0234 50.1936 54.8395 50.5271C54.6599 50.8606 54.5701 51.2647 54.5701 51.7393ZM66.1598 57.7105C65.5355 57.7105 64.9733 57.5994 64.473 57.377C63.977 57.1504 63.5836 56.8169 63.2928 56.3765C63.0064 55.9361 62.8631 55.393 62.8631 54.7474C62.8631 54.1915 62.9657 53.7319 63.171 53.3684C63.3762 53.005 63.6563 52.7142 64.0112 52.4961C64.3661 52.2781 64.7659 52.1135 65.2106 52.0023C65.6595 51.8868 66.1235 51.8035 66.6024 51.7521C67.1796 51.6923 67.6478 51.6388 68.007 51.5918C68.3661 51.5405 68.627 51.4635 68.7895 51.3609C68.9562 51.254 69.0396 51.0894 69.0396 50.867V50.8286C69.0396 50.3454 68.8964 49.9713 68.6099 49.7062C68.3234 49.4411 67.9108 49.3085 67.372 49.3085C66.8033 49.3085 66.3522 49.4325 66.0187 49.6805C65.6895 49.9285 65.4671 50.2214 65.3517 50.5592L63.1838 50.2513C63.3548 49.6527 63.6371 49.1524 64.0304 48.7505C64.4238 48.3443 64.9048 48.0407 65.4735 47.8397C66.0422 47.6345 66.6708 47.5319 67.3592 47.5319C67.8338 47.5319 68.3063 47.5875 68.7766 47.6986C69.247 47.8098 69.6767 47.9937 70.0658 48.2502C70.4549 48.5025 70.767 48.8467 71.0022 49.2828C71.2417 49.719 71.3614 50.2642 71.3614 50.9184V57.5117H69.1294V56.1584H69.0524C68.9113 56.4321 68.7125 56.6886 68.4559 56.9281C68.2037 57.1632 67.8851 57.3535 67.5003 57.4989C67.1197 57.64 66.6729 57.7105 66.1598 57.7105ZM66.7627 56.0045C67.2288 56.0045 67.6328 55.9126 67.9749 55.7287C68.317 55.5406 68.5799 55.2926 68.7638 54.9847C68.9519 54.6768 69.046 54.3412 69.046 53.9777V52.8168C68.9733 52.8767 68.8493 52.9323 68.674 52.9836C68.503 53.0349 68.3106 53.0798 68.0968 53.1183C67.883 53.1568 67.6713 53.191 67.4618 53.2209C67.2523 53.2508 67.0706 53.2765 66.9166 53.2979C66.5703 53.3449 66.2603 53.4219 65.9866 53.5288C65.713 53.6357 65.4971 53.7853 65.3388 53.9777C65.1806 54.1659 65.1015 54.4096 65.1015 54.7089C65.1015 55.1365 65.2576 55.4593 65.5697 55.6774C65.8819 55.8954 66.2795 56.0045 66.7627 56.0045ZM73.696 57.5117V47.6602H75.9472V49.3021H76.0499C76.2294 48.7334 76.5373 48.2951 76.9734 47.9873C77.4138 47.6751 77.9163 47.5191 78.4807 47.5191C78.6089 47.5191 78.7522 47.5255 78.9104 47.5383C79.0729 47.5468 79.2076 47.5618 79.3145 47.5832V49.719C79.2161 49.6848 79.0601 49.6548 78.8463 49.6292C78.6367 49.5993 78.4336 49.5843 78.2369 49.5843C77.8136 49.5843 77.4331 49.6762 77.0953 49.8601C76.7618 50.0397 76.4988 50.2898 76.3064 50.6105C76.114 50.9312 76.0178 51.301 76.0178 51.7201V57.5117H73.696ZM84.8127 57.7041C83.825 57.7041 82.9719 57.4989 82.2536 57.0884C81.5395 56.6737 80.9901 56.0879 80.6052 55.331C80.2204 54.5699 80.028 53.6741 80.028 52.6437C80.028 51.6303 80.2204 50.7409 80.6052 49.9755C80.9943 49.2059 81.5374 48.6073 82.2343 48.1797C82.9313 47.7478 83.7501 47.5319 84.6908 47.5319C85.298 47.5319 85.8709 47.6302 86.4097 47.8269C86.9527 48.0193 87.4316 48.3186 87.8464 48.7248C88.2654 49.1311 88.5947 49.6484 88.8341 50.277C89.0736 50.9013 89.1933 51.6453 89.1933 52.509V53.2209H81.1183V51.6559H86.9677C86.9634 51.2113 86.8672 50.8157 86.6791 50.4694C86.4909 50.1188 86.228 49.843 85.8902 49.642C85.5567 49.4411 85.1676 49.3406 84.7229 49.3406C84.2483 49.3406 83.8314 49.456 83.4722 49.6869C83.113 49.9135 82.833 50.2128 82.632 50.5848C82.4353 50.9526 82.3348 51.3566 82.3305 51.797V53.1632C82.3305 53.7361 82.4353 54.2279 82.6448 54.6383C82.8543 55.0446 83.1472 55.3567 83.5235 55.5748C83.8998 55.7886 84.3402 55.8954 84.8447 55.8954C85.1825 55.8954 85.4883 55.8484 85.7619 55.7543C86.0356 55.656 86.2729 55.5128 86.4738 55.3246C86.6748 55.1365 86.8266 54.9034 86.9292 54.6255L89.0971 54.8692C88.9602 55.4422 88.6994 55.9425 88.3146 56.3701C87.934 56.7934 87.4466 57.1226 86.8523 57.3578C86.2579 57.5887 85.5781 57.7041 84.8127 57.7041ZM97.0806 61.2061C96.7642 61.2061 96.4713 61.1804 96.2019 61.1291C95.9368 61.0821 95.7252 61.0265 95.567 60.9623L96.1057 59.1536C96.4435 59.252 96.745 59.299 97.0101 59.2947C97.2752 59.2905 97.5082 59.2071 97.7092 59.0446C97.9144 58.8864 98.0876 58.6213 98.2287 58.2493L98.4275 57.717L94.855 47.6602H97.3179L99.5884 55.1001H99.691L101.968 47.6602H104.437L100.493 58.7047C100.309 59.2263 100.065 59.6732 99.7616 60.0452C99.458 60.4214 99.086 60.7079 98.6456 60.9046C98.2094 61.1056 97.6878 61.2061 97.0806 61.2061ZM110.006 57.7041C109.044 57.7041 108.21 57.4925 107.505 57.0692C106.799 56.6459 106.252 56.0537 105.863 55.2926C105.478 54.5315 105.285 53.6421 105.285 52.6244C105.285 51.6068 105.478 50.7153 105.863 49.9499C106.252 49.1845 106.799 48.5902 107.505 48.1668C108.21 47.7435 109.044 47.5319 110.006 47.5319C110.968 47.5319 111.802 47.7435 112.507 48.1668C113.213 48.5902 113.758 49.1845 114.143 49.9499C114.532 50.7153 114.727 51.6068 114.727 52.6244C114.727 53.6421 114.532 54.5315 114.143 55.2926C113.758 56.0537 113.213 56.6459 112.507 57.0692C111.802 57.4925 110.968 57.7041 110.006 57.7041ZM110.019 55.8441C110.54 55.8441 110.977 55.7009 111.327 55.4144C111.678 55.1237 111.939 54.7346 112.11 54.2471C112.285 53.7597 112.373 53.2166 112.373 52.618C112.373 52.0151 112.285 51.4699 112.11 50.9825C111.939 50.4908 111.678 50.0995 111.327 49.8088C110.977 49.518 110.54 49.3726 110.019 49.3726C109.484 49.3726 109.04 49.518 108.685 49.8088C108.334 50.0995 108.071 50.4908 107.896 50.9825C107.725 51.4699 107.639 52.0151 107.639 52.618C107.639 53.2166 107.725 53.7597 107.896 54.2471C108.071 54.7346 108.334 55.1237 108.685 55.4144C109.04 55.7009 109.484 55.8441 110.019 55.8441ZM122.976 53.3684V47.6602H125.298V57.5117H123.047V55.7608H122.944C122.722 56.3123 122.356 56.7634 121.847 57.1141C121.343 57.4647 120.721 57.64 119.981 57.64C119.335 57.64 118.765 57.4968 118.269 57.2103C117.777 56.9195 117.392 56.4983 117.114 55.9468C116.836 55.3909 116.697 54.7196 116.697 53.9328V47.6602H119.019V53.5737C119.019 54.1979 119.19 54.6939 119.532 55.0617C119.874 55.4294 120.323 55.6132 120.879 55.6132C121.221 55.6132 121.552 55.5299 121.873 55.3631C122.194 55.1963 122.457 54.9483 122.662 54.6191C122.871 54.2856 122.976 53.8687 122.976 53.3684ZM127.686 57.5117V47.6602H129.937V49.3021H130.039C130.219 48.7334 130.527 48.2951 130.963 47.9873C131.403 47.6751 131.906 47.5191 132.47 47.5191C132.599 47.5191 132.742 47.5255 132.9 47.5383C133.062 47.5468 133.197 47.5618 133.304 47.5832V49.719C133.206 49.6848 133.05 49.6548 132.836 49.6292C132.626 49.5993 132.423 49.5843 132.227 49.5843C131.803 49.5843 131.423 49.6762 131.085 49.8601C130.751 50.0397 130.488 50.2898 130.296 50.6105C130.104 50.9312 130.007 51.301 130.007 51.7201V57.5117H127.686ZM141.648 44.3763V57.5117H139.327V44.3763H141.648ZM144.036 57.5117V47.6602H146.358V57.5117H144.036ZM145.203 46.262C144.835 46.262 144.519 46.1401 144.254 45.8964C143.989 45.6484 143.856 45.3512 143.856 45.0049C143.856 44.6542 143.989 44.3571 144.254 44.1133C144.519 43.8653 144.835 43.7413 145.203 43.7413C145.575 43.7413 145.892 43.8653 146.152 44.1133C146.418 44.3571 146.55 44.6542 146.55 45.0049C146.55 45.3512 146.418 45.6484 146.152 45.8964C145.892 46.1401 145.575 46.262 145.203 46.262ZM151.067 51.7393V57.5117H148.745V47.6602H150.964V49.3342H151.08C151.306 48.7826 151.668 48.3443 152.164 48.0193C152.664 47.6944 153.282 47.5319 154.017 47.5319C154.697 47.5319 155.289 47.6773 155.794 47.968C156.303 48.2588 156.696 48.6799 156.974 49.2315C157.256 49.7831 157.395 50.4523 157.391 51.239V57.5117H155.069V51.5982C155.069 50.9397 154.898 50.4245 154.556 50.0525C154.218 49.6805 153.75 49.4945 153.151 49.4945C152.745 49.4945 152.384 49.5843 152.068 49.7639C151.755 49.9392 151.51 50.1936 151.33 50.5271C151.155 50.8606 151.067 51.2647 151.067 51.7393ZM161.868 54.4203L161.861 51.6175H162.233L165.774 47.6602H168.487L164.132 52.509H163.651L161.868 54.4203ZM159.751 57.5117V44.3763H162.073V57.5117H159.751ZM165.934 57.5117L162.727 53.0285L164.292 51.393L168.711 57.5117H165.934Z" fill="#01202B"/>
<defs>
<filter id="filter0_d_1731_3844" x="0.277344" y="0.71875" width="437.528" height="291.418" filterUnits="userSpaceOnUse" color-interpolation-filters="sRGB">
<feFlood flood-opacity="0" result="BackgroundImageFix"/>
<feColorMatrix in="SourceAlpha" type="matrix" values="0 0 0 0 0 0 0 0 0 0 0 0 0 0 0 0 0 0 127 0" result="hardAlpha"/>
<feOffset dx="8.68155" dy="8.68155"/>
<feGaussianBlur stdDeviation="4.34078"/>
<feComposite in2="hardAlpha" operator="out"/>
<feColorMatrix type="matrix" values="0 0 0 0 0 0 0 0 0 0 0 0 0 0 0 0 0 0 0.25 0"/>
<feBlend mode="normal" in2="BackgroundImageFix" result="effect1_dropShadow_1731_3844"/>
<feBlend mode="normal" in="SourceGraphic" in2="effect1_dropShadow_1731_3844" result="shape"/>
</filter>
</defs>
</svg>
