<svg width="32" height="29" viewBox="0 0 32 29" fill="none" xmlns="http://www.w3.org/2000/svg">
<path d="M31.4605 25.9644L23.9145 10.8723C23.7802 10.6037 23.5738 10.3778 23.3183 10.2199C23.0629 10.062 22.7685 9.97841 22.4682 9.97841C22.1679 9.97841 21.8736 10.062 21.6181 10.2199C21.3627 10.3778 21.1562 10.6037 21.022 10.8723L18.2592 16.398C16.3954 16.2346 14.601 15.6123 13.0362 14.5868C14.9367 12.3754 16.126 9.64227 16.4489 6.74439H19.2342C19.6631 6.74439 20.0744 6.57403 20.3776 6.27078C20.6809 5.96754 20.8512 5.55624 20.8512 5.12739C20.8512 4.69853 20.6809 4.28724 20.3776 3.98399C20.0744 3.68074 19.6631 3.51038 19.2342 3.51038H12.2272V1.89337C12.2272 1.46452 12.0568 1.05323 11.7536 0.749978C11.4503 0.44673 11.039 0.276367 10.6102 0.276367C10.1813 0.276367 9.77003 0.44673 9.46679 0.749978C9.16354 1.05323 8.99318 1.46452 8.99318 1.89337V3.51038H1.98615C1.55729 3.51038 1.146 3.68074 0.842751 3.98399C0.539503 4.28724 0.369141 4.69853 0.369141 5.12739C0.369141 5.55624 0.539503 5.96754 0.842751 6.27078C1.146 6.57403 1.55729 6.74439 1.98615 6.74439H13.1878C12.8838 8.85121 11.9895 10.8289 10.6085 12.4487C9.93569 11.6607 9.37484 10.7837 8.94179 9.84247C8.7626 9.45302 8.43608 9.15066 8.03403 9.00187C7.63198 8.85308 7.18729 8.87003 6.79774 9.04901C6.40818 9.22798 6.10564 9.55432 5.95662 9.95629C5.80761 10.3583 5.82431 10.803 6.00307 11.1926C6.5684 12.4216 7.30317 13.5654 8.18594 14.5905C6.34572 15.803 4.18992 16.4484 1.98615 16.4464C1.55729 16.4464 1.146 16.6168 0.842751 16.92C0.539503 17.2233 0.369141 17.6346 0.369141 18.0634C0.369141 18.4923 0.539503 18.9036 0.842751 19.2068C1.146 19.5101 1.55729 19.6804 1.98615 19.6804C5.09258 19.6837 8.11766 18.6876 10.6144 16.8392C12.4246 18.1701 14.5174 19.0656 16.7301 19.4561L13.4759 25.9644C13.3809 26.1543 13.3241 26.3611 13.309 26.573C13.2939 26.7849 13.3206 26.9976 13.3878 27.1992C13.4549 27.4007 13.5611 27.587 13.7002 27.7475C13.8394 27.908 14.0088 28.0395 14.1988 28.1344C14.3887 28.2294 14.5956 28.2861 14.8075 28.3011C15.0193 28.3161 15.2321 28.2892 15.4336 28.222C15.6351 28.1548 15.8213 28.0485 15.9817 27.9093C16.1422 27.7701 16.2736 27.6006 16.3685 27.4106L18.0775 23.9925H26.8589L28.568 27.4106C28.6629 27.6006 28.7943 27.7701 28.9547 27.9093C29.1151 28.0485 29.3014 28.1548 29.5029 28.222C29.7044 28.2892 29.9171 28.3161 30.129 28.3011C30.3409 28.2861 30.5477 28.2294 30.7377 28.1344C30.9277 28.0395 31.0971 27.908 31.2363 27.7475C31.3754 27.587 31.4816 27.4007 31.5487 27.1992C31.6158 26.9976 31.6426 26.7849 31.6275 26.573C31.6123 26.3611 31.5556 26.1543 31.4605 25.9644ZM19.6946 20.7585L22.4682 15.2112L25.2419 20.7585H19.6946Z" fill="black"/>
</svg>
