<svg width="23" height="22" viewBox="0 0 23 22" fill="none" xmlns="http://www.w3.org/2000/svg">
<path d="M17.1795 4.04952C16.9287 4.04952 16.6836 4.12388 16.4751 4.26321C16.2666 4.40254 16.104 4.60056 16.0081 4.83225C15.9121 5.06395 15.887 5.31889 15.9359 5.56485C15.9848 5.81081 16.1056 6.03674 16.2829 6.21407C16.4603 6.3914 16.6862 6.51216 16.9321 6.56108C17.1781 6.61001 17.4331 6.5849 17.6647 6.48893C17.8964 6.39296 18.0945 6.23044 18.2338 6.02193C18.3731 5.81341 18.4475 5.56826 18.4475 5.31748C18.4475 4.9812 18.3139 4.65869 18.0761 4.4209C17.8383 4.18311 17.5158 4.04952 17.1795 4.04952ZM22.04 6.60658C22.0195 5.72989 21.8553 4.8625 21.554 4.03895C21.2853 3.33432 20.8672 2.69626 20.3283 2.16871C19.8051 1.6271 19.1655 1.21158 18.458 0.953572C17.6367 0.643091 16.7683 0.475138 15.8904 0.456953C14.7704 0.393555 14.4111 0.393555 11.5371 0.393555C8.66302 0.393555 8.30376 0.393555 7.18373 0.456953C6.30583 0.475138 5.43747 0.643091 4.6161 0.953572C3.90993 1.21419 3.27093 1.62936 2.74585 2.16871C2.20425 2.69193 1.78873 3.33147 1.53072 4.03895C1.22024 4.86032 1.05229 5.72868 1.0341 6.60658C0.970703 7.72662 0.970703 8.08587 0.970703 10.9599C0.970703 13.834 0.970703 14.1932 1.0341 15.3133C1.05229 16.1912 1.22024 17.0595 1.53072 17.8809C1.78873 18.5884 2.20425 19.2279 2.74585 19.7511C3.27093 20.2905 3.90993 20.7057 4.6161 20.9663C5.43747 21.2768 6.30583 21.4447 7.18373 21.4629C8.30376 21.5263 8.66302 21.5263 11.5371 21.5263C14.4111 21.5263 14.7704 21.5263 15.8904 21.4629C16.7683 21.4447 17.6367 21.2768 18.458 20.9663C19.1655 20.7083 19.8051 20.2928 20.3283 19.7511C20.8696 19.2256 21.2881 18.5869 21.554 17.8809C21.8553 17.0574 22.0195 16.19 22.04 15.3133C22.04 14.1932 22.1034 13.834 22.1034 10.9599C22.1034 8.08587 22.1034 7.72662 22.04 6.60658ZM20.1381 15.1865C20.1304 15.8572 20.0089 16.5218 19.7788 17.1518C19.6101 17.6117 19.3392 18.0272 18.9864 18.367C18.6436 18.7162 18.229 18.9866 17.7712 19.1594C17.1412 19.3895 16.4766 19.511 15.8059 19.5187C14.7493 19.5715 14.3583 19.5821 11.5793 19.5821C8.80038 19.5821 8.40943 19.5821 7.35279 19.5187C6.65635 19.5317 5.96289 19.4245 5.30292 19.2017C4.86524 19.02 4.4696 18.7503 4.14061 18.4092C3.7899 18.0698 3.52232 17.6539 3.3587 17.1941C3.10073 16.555 2.95765 15.8753 2.93605 15.1865C2.93605 14.1298 2.87265 13.7389 2.87265 10.9599C2.87265 8.18097 2.87265 7.79001 2.93605 6.73338C2.94078 6.04768 3.06596 5.36814 3.30587 4.72577C3.49189 4.27977 3.77741 3.88221 4.14061 3.56347C4.46164 3.20016 4.85838 2.91162 5.30292 2.71816C5.94699 2.48574 6.62582 2.36427 7.31053 2.3589C8.36716 2.3589 8.75812 2.2955 11.5371 2.2955C14.316 2.2955 14.707 2.2955 15.7636 2.3589C16.4343 2.36659 17.0989 2.48807 17.729 2.71816C18.2091 2.89636 18.6401 3.18608 18.9864 3.56347C19.3326 3.88804 19.6032 4.28487 19.7788 4.72577C20.0137 5.36919 20.1352 6.04844 20.1381 6.73338C20.1909 7.79001 20.2015 8.18097 20.2015 10.9599C20.2015 13.7389 20.1909 14.1298 20.1381 15.1865ZM11.5371 5.53938C10.4654 5.54147 9.41848 5.86115 8.52846 6.45804C7.63845 7.05492 6.94533 7.90223 6.53668 8.89288C6.12803 9.88354 6.02219 10.9731 6.23254 12.0239C6.44288 13.0747 6.95997 14.0395 7.71847 14.7966C8.47696 15.5536 9.44283 16.0688 10.494 16.2771C11.5452 16.4854 12.6346 16.3774 13.6244 15.9668C14.6143 15.5563 15.4602 14.8615 16.0554 13.9703C16.6505 13.0791 16.9682 12.0316 16.9682 10.9599C16.9696 10.2468 16.83 9.54045 16.5574 8.88147C16.2848 8.2225 15.8847 7.62392 15.3799 7.12016C14.8752 6.6164 14.2758 6.2174 13.6163 5.94611C12.9568 5.67482 12.2502 5.53659 11.5371 5.53938ZM11.5371 14.4785C10.8412 14.4785 10.1609 14.2722 9.58224 13.8855C9.00361 13.4989 8.55263 12.9494 8.28631 12.3064C8.02 11.6635 7.95032 10.956 8.08608 10.2735C8.22185 9.59094 8.55696 8.96398 9.04905 8.4719C9.54113 7.97981 10.1681 7.6447 10.8506 7.50893C11.5332 7.37317 12.2406 7.44285 12.8836 7.70916C13.5265 7.97548 14.0761 8.42646 14.4627 9.0051C14.8493 9.58373 15.0557 10.264 15.0557 10.9599C15.0557 11.422 14.9647 11.8795 14.7878 12.3064C14.611 12.7333 14.3518 13.1212 14.0251 13.448C13.6984 13.7747 13.3105 14.0339 12.8836 14.2107C12.4567 14.3875 11.9991 14.4785 11.5371 14.4785Z" fill="#0D0D0D" fill-opacity="0.76"/>
</svg>
