<svg width="18" height="18" viewBox="0 0 18 18" fill="none" xmlns="http://www.w3.org/2000/svg">
<path d="M16.1188 0.71875H2.04441C1.34703 0.71875 0.839844 1.22594 0.839844 1.92332V15.9977C0.839844 16.6317 1.41043 17.2023 2.04441 17.2023H16.1188C16.8162 17.2023 17.3234 16.6951 17.3234 15.9977V1.92332C17.3234 1.22594 16.7528 0.71875 16.1188 0.71875ZM5.9117 14.6664H3.37577V7.05857H5.9117V14.6664ZM4.64374 6.0442C3.81956 6.0442 3.12218 5.34682 3.12218 4.52264C3.12218 3.69847 3.81956 3.00109 4.64374 3.00109C5.46791 3.00109 6.16529 3.69847 6.16529 4.52264C6.16529 5.34682 5.46791 6.0442 4.64374 6.0442ZM14.7875 14.6664H12.2515V10.8625C12.2515 9.8481 11.9979 8.83372 10.9836 8.83372C9.96919 8.83372 9.7156 9.8481 9.7156 10.8625V14.6664H7.17967V7.05857H9.7156V7.94615H9.84239C10.1594 7.31217 10.9836 6.80498 11.9345 6.80498C14.2803 6.80498 14.7875 8.32654 14.7875 10.2285V14.6664Z" fill="#0D0D0D" fill-opacity="0.76"/>
</svg>
