<svg width="75" height="76" viewBox="0 0 75 76" fill="none" xmlns="http://www.w3.org/2000/svg">
<g clip-path="url(#clip0_796_7029)">
<path fill-rule="evenodd" clip-rule="evenodd" d="M37.3962 66.4566C24.5413 66.4566 14.0237 55.939 14.0237 43.0841C14.0237 31.1057 22.9345 21.3185 34.4746 19.8577V27.0155C26.8786 28.4763 21.1815 35.0498 21.1815 43.0841C21.1815 51.9949 28.4854 59.2988 37.3962 59.2988C46.307 59.2988 53.6109 51.9949 53.6109 43.0841C53.6109 35.0498 47.9138 28.4763 40.3178 27.0155V19.8577C51.8579 21.3185 60.7687 31.1057 60.7687 43.0841C60.7687 55.939 50.2511 66.4566 37.3962 66.4566ZM66.3196 75.6595H55.3638H19.4286H12.8551H8.47274C7.88843 75.6595 7.4502 75.2213 7.4502 74.637C7.4502 74.0527 7.88843 73.6144 8.47274 73.6144H12.2708L19.5747 61.0517C21.3276 62.8046 23.5188 64.4115 25.856 65.5801L21.1815 73.6144H53.6109L48.9364 65.5801C51.2736 64.4115 53.4648 62.8046 55.2177 61.0517L62.5216 73.6144H66.3196C66.904 73.6144 67.3422 74.0527 67.3422 74.637C67.3422 75.2213 66.904 75.6595 66.3196 75.6595ZM40.9021 18.6891C40.756 18.6891 40.6099 18.6891 40.3178 18.6891V5.68812C40.4638 5.68812 40.4638 5.68812 40.6099 5.68812C41.9246 5.98028 43.5315 4.66557 44.9923 3.49695C46.8913 2.03617 48.9364 0.575388 51.1275 1.01362C52.4422 1.1597 53.6109 2.18225 54.7795 3.7891C54.7795 3.93518 54.9256 4.08126 54.9256 4.37342V15.1832C54.9256 15.6214 54.6334 16.0597 54.1952 16.2057C53.7569 16.3518 53.3187 16.2057 53.0265 15.7675C52.2962 14.5989 51.4197 14.0146 50.6893 13.8685C49.3746 13.5763 47.7677 14.891 46.307 16.0597C44.554 17.3744 42.8011 18.6891 40.9021 18.6891ZM37.3962 44.1066C36.8119 44.1066 36.3736 43.6684 36.3736 43.0841V4.37342C36.3736 3.7891 36.8119 3.35087 37.3962 3.35087C37.9805 3.35087 38.4187 3.7891 38.4187 4.37342V43.0841C38.4187 43.6684 37.9805 44.1066 37.3962 44.1066ZM37.3962 52.1409C32.4295 52.1409 28.1933 48.0508 28.1933 43.0841C28.1933 39.14 30.8227 35.6341 34.4746 34.4655V29.2067C28.0472 30.5214 23.2266 36.2184 23.2266 43.0841C23.2266 50.9723 29.508 57.2537 37.3962 57.2537C45.2844 57.2537 51.5658 50.8262 51.5658 43.0841C51.5658 36.2184 46.7452 30.5214 40.3178 29.2067V34.4655C43.9697 35.6341 46.5991 39.14 46.5991 43.0841C46.5991 48.0508 42.3629 52.1409 37.3962 52.1409ZM34.4746 36.6567C31.9913 37.8253 30.2384 40.1625 30.2384 43.0841C30.2384 47.0282 33.4521 50.0958 37.3962 50.0958C41.3403 50.0958 44.554 47.0282 44.554 43.0841C44.554 40.1625 42.8011 37.8253 40.3178 36.6567V43.0841C40.3178 44.691 39.0031 46.0057 37.3962 46.0057C35.7893 46.0057 34.4746 44.691 34.4746 43.0841V36.6567Z" fill="url(#paint0_linear_796_7029)"/>
</g>
<defs>
<linearGradient id="paint0_linear_796_7029" x1="37.3962" y1="75.6455" x2="37.3962" y2="0.881567" gradientUnits="userSpaceOnUse">
<stop stop-color="#1A9FE2"/>
<stop offset="0.49" stop-color="#3B87AE"/>
<stop offset="1" stop-color="#62C2F2"/>
</linearGradient>
<clipPath id="clip0_796_7029">
<rect width="74.792" height="74.792" fill="white" transform="translate(0 0.867676)"/>
</clipPath>
</defs>
</svg>
