<svg width="66" height="66" viewBox="0 0 66 66" fill="none" xmlns="http://www.w3.org/2000/svg">
<path d="M65.0002 33.6658V58.9798C65.0002 62.3047 62.3048 65.0001 58.9799 65.0001H33.6658C30.3409 65.0001 27.6455 62.3047 27.6455 58.9798V33.6658C27.6455 30.3409 30.3409 27.6455 33.6658 27.6455H58.9799C62.3048 27.6455 65.0002 30.3409 65.0002 33.6658Z" fill="url(#paint0_linear_796_7034)"/>
<path d="M38.3547 7.02024V32.3343C38.3547 35.6592 35.6593 38.3545 32.3344 38.3545H7.02024C3.69536 38.3545 1 35.6592 1 32.3343V7.02024C1 3.69536 3.69536 1 7.02024 1H32.3344C35.6593 1 38.3547 3.69536 38.3547 7.02024Z" fill="url(#paint1_linear_796_7034)"/>
<path d="M30.9392 28.5568C30.8472 29.1815 30.3147 29.632 29.7104 29.632C29.6592 29.632 29.5978 29.6218 29.5364 29.6218C26.6179 29.2224 23.3924 28.1268 20.6173 26.2016C17.9447 28.5363 14.4529 30.0109 10.3978 30.3386H10.2954C9.66051 30.3386 9.11776 29.8471 9.06663 29.202C9.00513 28.5261 9.51713 27.922 10.1929 27.8708C13.5516 27.5943 16.4394 26.4576 18.6717 24.6349C16.6954 22.7917 15.0876 20.416 14.2173 17.4157C14.0228 16.7603 14.4016 16.0743 15.0569 15.8797C15.7124 15.6851 16.3984 16.0743 16.5929 16.7296C17.3405 19.2896 18.7127 21.3171 20.4329 22.8941C22.3889 20.5901 23.5664 17.5693 23.7917 14.0672H9.65026C8.96413 14.0672 8.41113 13.5142 8.41113 12.8384C8.41113 12.1523 8.96413 11.5994 9.65026 11.5994H18.4362V9.04961C18.4362 8.36348 18.9892 7.81055 19.6752 7.81055C20.3613 7.81055 20.9143 8.36348 20.9143 9.04961V11.5994H29.7104C30.3965 11.5994 30.9494 12.1523 30.9494 12.8384C30.9494 13.5142 30.3965 14.0672 29.7104 14.0672H26.2698C26.0445 18.1223 24.6622 21.6551 22.3787 24.3994C24.7338 25.9456 27.4167 26.8365 29.8743 27.1642C30.5502 27.2563 31.0314 27.881 30.9392 28.5568Z" fill="url(#paint2_linear_796_7034)"/>
<path d="M60.012 18.584C58.7733 18.584 57.7686 17.5799 57.7686 16.3405V9.38119C57.7686 7.23542 56.0235 5.49026 53.8783 5.49026H47.0755C45.8367 5.49026 44.832 4.48623 44.832 3.24684C44.832 2.00745 45.8367 1.00342 47.0755 1.00342H53.8783C58.4972 1.00342 62.2555 4.76165 62.2555 9.38119V16.3405C62.2555 17.5799 61.2508 18.584 60.012 18.584Z" fill="url(#paint3_linear_796_7034)"/>
<path d="M55.1692 15.6773L59.0993 22.4834C59.505 23.186 60.5192 23.186 60.9249 22.4834L64.855 15.6773C65.2607 14.9746 64.7536 14.0962 63.9422 14.0962H56.082C55.2705 14.0962 54.7634 14.9746 55.1692 15.6773Z" fill="url(#paint4_linear_796_7034)"/>
<path d="M5.98756 47.416C7.22632 47.416 8.23098 48.42 8.23098 49.6594V56.6188C8.23098 58.7646 9.97614 60.5097 12.1213 60.5097H18.9242C20.1629 60.5097 21.1676 61.5138 21.1676 62.7531C21.1676 63.9925 20.1629 64.9966 18.9242 64.9966H12.1213C7.50237 64.9966 3.74414 61.2383 3.74414 56.6188V49.6594C3.74414 48.42 4.7488 47.416 5.98756 47.416Z" fill="url(#paint5_linear_796_7034)"/>
<path d="M10.8306 50.3227L6.90045 43.5167C6.49474 42.8141 5.48061 42.8141 5.07489 43.5167L1.14478 50.3227C0.739013 51.0254 1.24613 51.9039 2.05756 51.9039H9.91779C10.7292 51.9039 11.2363 51.0254 10.8306 50.3227Z" fill="url(#paint6_linear_796_7034)"/>
<path d="M55.8821 54.4996L47.6338 36.9165C47.3951 36.4073 46.8841 36.083 46.3226 36.083C45.7611 36.083 45.2501 36.4073 45.0116 36.9165L36.7626 54.4996C36.4226 55.2238 36.7344 56.0856 37.4585 56.426C37.6574 56.5193 37.8667 56.5627 38.0727 56.5627C38.6169 56.5627 39.1382 56.2544 39.3849 55.7292L41.4769 51.2702H51.1681L53.26 55.7292C53.6004 56.4524 54.4621 56.7654 55.1864 56.426C55.9104 56.0856 56.2221 55.2238 55.8821 54.4996ZM42.8359 48.3737L46.3226 40.9417L49.8093 48.3737H42.8359Z" fill="url(#paint7_linear_796_7034)"/>
<defs>
<linearGradient id="paint0_linear_796_7034" x1="34.5511" y1="46.3231" x2="55.6651" y2="46.3231" gradientUnits="userSpaceOnUse">
<stop stop-color="#9CDEFF"/>
<stop offset="1" stop-color="#1A9FE2"/>
</linearGradient>
<linearGradient id="paint1_linear_796_7034" x1="6.64806" y1="19.677" x2="29.7201" y2="19.677" gradientUnits="userSpaceOnUse">
<stop stop-color="#E9F8FF"/>
<stop offset="1" stop-color="#CCEEFF"/>
</linearGradient>
<linearGradient id="paint2_linear_796_7034" x1="14.8679" y1="19.0748" x2="26.1569" y2="19.0748" gradientUnits="userSpaceOnUse">
<stop stop-color="#9CDEFF"/>
<stop offset="1" stop-color="#1A9FE2"/>
</linearGradient>
<linearGradient id="paint3_linear_796_7034" x1="44.8318" y1="9.79413" x2="62.2558" y2="9.79413" gradientUnits="userSpaceOnUse">
<stop stop-color="#2EAAE7"/>
<stop offset="1" stop-color="#00AAFF"/>
</linearGradient>
<linearGradient id="paint4_linear_796_7034" x1="55.0262" y1="18.553" x2="64.9982" y2="18.553" gradientUnits="userSpaceOnUse">
<stop stop-color="#47B3EA"/>
<stop offset="1" stop-color="#339DD3"/>
</linearGradient>
<linearGradient id="paint5_linear_796_7034" x1="3.74381" y1="56.2058" x2="21.1678" y2="56.2058" gradientUnits="userSpaceOnUse">
<stop stop-color="#47B3EA"/>
<stop offset="1" stop-color="#339DD3"/>
</linearGradient>
<linearGradient id="paint6_linear_796_7034" x1="1.00161" y1="47.447" x2="10.9736" y2="47.447" gradientUnits="userSpaceOnUse">
<stop stop-color="#47B3EA"/>
<stop offset="1" stop-color="#339DD3"/>
</linearGradient>
<linearGradient id="paint7_linear_796_7034" x1="41.6109" y1="46.3232" x2="50.1559" y2="46.3232" gradientUnits="userSpaceOnUse">
<stop stop-color="#E9F8FF"/>
<stop offset="1" stop-color="#CCEEFF"/>
</linearGradient>
</defs>
</svg>
