<svg width="18" height="18" viewBox="0 0 18 18" fill="none" xmlns="http://www.w3.org/2000/svg">
<g clip-path="url(#clip0_857_422)">
<path d="M12.6312 6.80828L8.63838 10.8011L7.64016 11.7993L6.6423 10.8011L4.97852 9.13731L5.97673 8.1391L7.64051 9.80288L11.633 5.81006L12.6312 6.80828Z" fill="#00AAFF"/>
<path d="M3.399 9.13442H0.618594C0.531197 9.13442 0.447379 9.0997 0.38558 9.0379C0.323781 8.97611 0.289063 8.89229 0.289062 8.80489C0.289062 8.71749 0.323781 8.63368 0.38558 8.57188C0.447379 8.51008 0.531197 8.47536 0.618594 8.47536H3.399C3.4864 8.47536 3.57022 8.51008 3.63202 8.57188C3.69382 8.63368 3.72853 8.71749 3.72853 8.80489C3.72853 8.89229 3.69382 8.97611 3.63202 9.0379C3.57022 9.0997 3.4864 9.13442 3.399 9.13442ZM16.9916 9.13442H14.2117C14.1684 9.13443 14.1256 9.12591 14.0856 9.10935C14.0456 9.09279 14.0093 9.06852 13.9787 9.03792C13.9481 9.00732 13.9238 8.97099 13.9073 8.931C13.8907 8.89102 13.8822 8.84817 13.8822 8.80489C13.8822 8.71749 13.9169 8.63368 13.9787 8.57188C14.0405 8.51008 14.1243 8.47536 14.2117 8.47536H16.9916C17.079 8.47536 17.1629 8.51008 17.2247 8.57188C17.2865 8.63368 17.3212 8.71749 17.3212 8.80489C17.3212 8.89229 17.2865 8.97611 17.2247 9.0379C17.1629 9.0997 17.079 9.13442 16.9916 9.13442ZM8.80538 3.72805C8.71798 3.72805 8.63416 3.69333 8.57237 3.63153C8.51057 3.56973 8.47585 3.48591 8.47585 3.39851V0.618105C8.47585 0.530708 8.51057 0.446891 8.57237 0.385092C8.63416 0.323293 8.71798 0.288574 8.80538 0.288574C8.89278 0.288574 8.97659 0.323293 9.03839 0.385092C9.10019 0.446891 9.13491 0.530708 9.13491 0.618105V3.39851C9.13491 3.48591 9.10019 3.56973 9.03839 3.63153C8.97659 3.69333 8.89278 3.72805 8.80538 3.72805ZM8.80538 17.3423C8.71798 17.3423 8.63416 17.3075 8.57237 17.2457C8.51057 17.1839 8.47585 17.1001 8.47585 17.0127V14.2112C8.47585 14.1238 8.51057 14.04 8.57237 13.9782C8.63416 13.9164 8.71798 13.8817 8.80538 13.8817C8.98741 13.8817 9.13491 14.0292 9.13491 14.2112V17.0127C9.13491 17.1001 9.10019 17.1839 9.03839 17.2457C8.97659 17.3075 8.89278 17.3423 8.80538 17.3423ZM14.6138 14.9038C14.5705 14.9039 14.5276 14.8954 14.4876 14.8788C14.4476 14.8623 14.4113 14.838 14.3807 14.8073L12.4145 12.8411C12.3527 12.7793 12.318 12.6955 12.318 12.6081C12.318 12.5207 12.3527 12.4369 12.4145 12.3751C12.4763 12.3133 12.5602 12.2786 12.6476 12.2786C12.735 12.2786 12.8188 12.3133 12.8806 12.3751L14.8468 14.3413C14.8929 14.3874 14.9242 14.4461 14.937 14.51C14.9497 14.5739 14.9431 14.6402 14.9182 14.7004C14.8933 14.7606 14.851 14.8121 14.7969 14.8483C14.7427 14.8845 14.679 14.9038 14.6138 14.9038ZM2.87013 14.7769C2.80496 14.7769 2.74125 14.7575 2.68706 14.7213C2.63288 14.6851 2.59064 14.6337 2.5657 14.5734C2.54077 14.5132 2.53424 14.447 2.54695 14.3831C2.55967 14.3191 2.59105 14.2604 2.63713 14.2143L4.60605 12.2454C4.66821 12.1853 4.75147 12.1521 4.83792 12.1528C4.92436 12.1536 5.00705 12.1882 5.06817 12.2493C5.12929 12.3105 5.16395 12.3932 5.16468 12.4796C5.1654 12.5661 5.13214 12.6493 5.07205 12.7115L3.10313 14.6803C3.07256 14.711 3.03624 14.7353 2.99626 14.7519C2.95627 14.7684 2.91341 14.7769 2.87013 14.7769ZM12.4778 5.16722C12.4126 5.16722 12.3489 5.1479 12.2947 5.11169C12.2405 5.07549 12.1983 5.02402 12.1734 4.96381C12.1484 4.9036 12.1419 4.83734 12.1546 4.77342C12.1673 4.70949 12.1987 4.65077 12.2448 4.60469L14.2107 2.63879C14.2725 2.57744 14.3562 2.54309 14.4434 2.54328C14.5305 2.54347 14.614 2.57817 14.6757 2.63979C14.7373 2.70141 14.772 2.78493 14.7722 2.87207C14.7724 2.95922 14.7381 3.0429 14.6767 3.10479L12.7108 5.07069C12.6802 5.10133 12.6439 5.12563 12.6039 5.1422C12.564 5.15876 12.5211 5.16727 12.4778 5.16722ZM4.97614 5.31797C4.93286 5.31803 4.88999 5.30953 4.85 5.29296C4.81002 5.2764 4.7737 5.25209 4.74314 5.22144L2.77944 3.25778C2.71765 3.19598 2.68294 3.11217 2.68294 3.02478C2.68294 2.93739 2.71765 2.85358 2.77944 2.79178C2.84124 2.72999 2.92505 2.69528 3.01244 2.69528C3.09983 2.69528 3.18364 2.72999 3.24544 2.79178L5.2091 4.75544C5.25517 4.80152 5.28655 4.86023 5.29927 4.92414C5.31198 4.98806 5.30546 5.05431 5.28053 5.11452C5.25559 5.17473 5.21337 5.22619 5.15919 5.2624C5.10501 5.29862 5.04131 5.31795 4.97614 5.31797Z" fill="#00AAFF"/>
<path d="M6.76325 4.12705C6.69728 4.12705 6.63283 4.10725 6.57823 4.07023C6.52364 4.0332 6.4814 3.98064 6.457 3.91935L5.93836 2.61705C5.90603 2.53585 5.90727 2.44513 5.94182 2.36485C5.97637 2.28457 6.0414 2.2213 6.1226 2.18896C6.20379 2.15663 6.29451 2.15787 6.37479 2.19242C6.45507 2.22697 6.51834 2.292 6.55068 2.37319L7.06932 3.6755C7.08924 3.72549 7.09662 3.7796 7.09081 3.8331C7.085 3.8866 7.06617 3.93786 7.03598 3.98241C7.00579 4.02695 6.96514 4.06343 6.9176 4.08864C6.87006 4.11385 6.81706 4.12704 6.76325 4.12705ZM3.77216 7.15513C3.7324 7.15512 3.69298 7.14788 3.65581 7.13378L2.49547 6.6955C2.45498 6.68021 2.4179 6.6571 2.38635 6.62749C2.3548 6.59787 2.32939 6.56233 2.31158 6.52289C2.29377 6.48345 2.2839 6.44089 2.28253 6.39763C2.28117 6.35438 2.28834 6.31128 2.30364 6.2708C2.31892 6.23032 2.34203 6.19324 2.37165 6.16169C2.40127 6.13014 2.43681 6.10473 2.47625 6.08691C2.51569 6.0691 2.55825 6.05923 2.6015 6.05787C2.64476 6.0565 2.68785 6.06368 2.72834 6.07897L3.88868 6.51725C3.92917 6.53253 3.96624 6.55564 3.99779 6.58526C4.02935 6.61488 4.05475 6.65042 4.07257 6.68986C4.09038 6.7293 4.10025 6.77186 4.10161 6.81511C4.10298 6.85837 4.09581 6.90146 4.08051 6.94195C4.05685 7.00459 4.01467 7.05855 3.95959 7.09663C3.9045 7.13472 3.83913 7.15512 3.77216 7.15513ZM2.61216 11.7895C2.53969 11.7896 2.4692 11.7658 2.41162 11.7217C2.35404 11.6777 2.31258 11.616 2.29366 11.546C2.27473 11.476 2.2794 11.4018 2.30694 11.3347C2.33448 11.2677 2.38335 11.2116 2.44599 11.1751L3.60634 10.4993C3.68182 10.456 3.77136 10.4443 3.85542 10.4668C3.93949 10.4893 4.01125 10.5441 4.05505 10.6193C4.09885 10.6945 4.11113 10.7839 4.08921 10.8681C4.0673 10.9524 4.01296 11.0245 3.93807 11.0688L2.77772 11.7446C2.7275 11.774 2.67035 11.7895 2.61216 11.7895ZM6.02382 15.2924C5.96972 15.2924 5.91646 15.2791 5.86873 15.2536C5.821 15.2281 5.78028 15.1913 5.75016 15.1464C5.72005 15.1014 5.70145 15.0498 5.69603 14.9959C5.69061 14.9421 5.69852 14.8878 5.71907 14.8377L6.23169 13.5886C6.24811 13.5485 6.27226 13.5121 6.30276 13.4814C6.33326 13.4507 6.36951 13.4263 6.40944 13.4096C6.44937 13.3929 6.49219 13.3843 6.53547 13.3841C6.57875 13.384 6.62163 13.3924 6.66166 13.4088C6.7017 13.4253 6.73811 13.4494 6.76881 13.4799C6.79951 13.5104 6.8239 13.5467 6.84059 13.5866C6.85728 13.6265 6.86594 13.6694 6.86609 13.7126C6.86623 13.7559 6.85784 13.7988 6.84141 13.8388L6.32879 15.088C6.30397 15.1484 6.26172 15.2002 6.20741 15.2366C6.15311 15.273 6.0892 15.2924 6.02382 15.2924ZM11.6158 15.2924C11.5515 15.2925 11.4887 15.2737 11.435 15.2384C11.3812 15.2032 11.339 15.153 11.3134 15.0941L10.7707 13.845C10.7364 13.7649 10.7352 13.6745 10.7673 13.5935C10.7995 13.5125 10.8624 13.4475 10.9423 13.4128C11.0222 13.3781 11.1126 13.3765 11.1938 13.4082C11.2749 13.44 11.3402 13.5026 11.3752 13.5824L11.9179 14.8315C11.9397 14.8817 11.9486 14.9364 11.944 14.9909C11.9393 15.0454 11.9212 15.0978 11.8913 15.1435C11.8613 15.1893 11.8204 15.2268 11.7723 15.2528C11.7243 15.2788 11.6705 15.2924 11.6158 15.2924ZM14.9497 11.595C14.9047 11.5949 14.8603 11.5857 14.819 11.5678L13.7065 11.0866C13.6665 11.0696 13.6303 11.0448 13.6 11.0138C13.5696 10.9827 13.5457 10.9459 13.5296 10.9056C13.5134 10.8653 13.5055 10.8222 13.5061 10.7787C13.5067 10.7353 13.5159 10.6924 13.5331 10.6525C13.5504 10.6127 13.5753 10.5766 13.6066 10.5464C13.6378 10.5162 13.6747 10.4925 13.7151 10.4766C13.7555 10.4608 13.7987 10.453 13.8421 10.4539C13.8856 10.4548 13.9284 10.4642 13.9682 10.4817L15.0807 10.9629C15.1503 10.993 15.2074 11.0462 15.2424 11.1135C15.2773 11.1808 15.288 11.258 15.2727 11.3323C15.2573 11.4066 15.2167 11.4732 15.1579 11.5211C15.0991 11.5689 15.0255 11.595 14.9497 11.595ZM13.7456 6.93597C13.6816 6.936 13.619 6.9174 13.5654 6.88246C13.5119 6.84751 13.4696 6.79773 13.4439 6.73918C13.4086 6.6592 13.4066 6.56849 13.4382 6.48703C13.4699 6.40556 13.5326 6.34 13.6126 6.30476L14.817 5.77426C14.8968 5.74032 14.9867 5.73917 15.0673 5.77107C15.1479 5.80297 15.2127 5.86534 15.2477 5.94467C15.2826 6.024 15.2849 6.11391 15.254 6.19491C15.2232 6.27592 15.1616 6.34149 15.0827 6.37744L13.8783 6.90794C13.8365 6.9264 13.7913 6.93595 13.7456 6.93597ZM10.9815 4.18425C10.9302 4.18428 10.8797 4.17234 10.8338 4.1494C10.788 4.12646 10.7481 4.09314 10.7174 4.0521C10.6867 4.01105 10.666 3.96341 10.657 3.91296C10.6479 3.86252 10.6507 3.81065 10.6652 3.76149L11.066 2.40202C11.1175 2.22745 11.3007 2.1275 11.4753 2.17912C11.5591 2.20384 11.6297 2.26083 11.6715 2.33758C11.7133 2.41432 11.7229 2.50453 11.6982 2.58836L11.2974 3.94783C11.2773 4.01604 11.2357 4.07591 11.1787 4.11852C11.1218 4.16113 11.0526 4.18419 10.9815 4.18425Z" fill="#1A9FE2"/>
</g>
<defs>
<clipPath id="clip0_857_422">
<rect width="17.575" height="17.575" fill="white"/>
</clipPath>
</defs>
</svg>
