<svg width="21" height="19" viewBox="0 0 21 19" fill="none" xmlns="http://www.w3.org/2000/svg">
<path d="M1.79997 1.54698C1.99127 1.52475 2.18502 1.55523 2.36026 1.63512C2.5355 1.71501 2.68558 1.84128 2.79426 2.00028C4.35386 4.28156 6.22622 5.23042 8.30462 5.44597C8.40606 4.55734 8.64592 3.67928 9.0971 2.90582C9.75856 1.77099 10.8342 0.936245 12.3706 0.627707C14.4944 0.200826 16.1111 0.970058 17.0483 1.91152L18.9418 1.55755C19.1399 1.52042 19.3446 1.54075 19.5315 1.61614C19.7185 1.69152 19.88 1.81882 19.997 1.983C20.1139 2.14718 20.1815 2.3414 20.1917 2.54273C20.2019 2.74407 20.1542 2.94411 20.0544 3.11926L18.237 6.31242C18.4029 10.9204 17.1223 14.1368 14.3919 16.3526C12.9443 17.5276 10.8712 18.1943 8.59626 18.4003C6.30335 18.6074 3.71142 18.357 1.13534 17.6047C0.915235 17.5405 0.721985 17.4064 0.584754 17.2228C0.447524 17.0391 0.37376 16.8158 0.374595 16.5865C0.37543 16.3572 0.450818 16.1344 0.589383 15.9518C0.727948 15.7691 0.922169 15.6364 1.14274 15.5738C2.43817 15.2051 3.42507 14.887 4.31582 14.3302C3.04891 13.6582 2.1159 12.779 1.4555 11.7773C0.538341 10.3847 0.198103 8.83144 0.130479 7.43139C0.0628539 6.03135 0.264672 4.7338 0.478112 3.79868C0.599626 3.26507 0.741215 2.73042 0.936693 2.219C1.00565 2.03873 1.12266 1.88079 1.27503 1.76232C1.4274 1.64384 1.60826 1.56937 1.79997 1.54698Z" fill="#0D0D0D" fill-opacity="0.76"/>
</svg>
