<svg width="579" height="610" viewBox="0 0 579 610" fill="none" xmlns="http://www.w3.org/2000/svg">
<path opacity="0.5" d="M53.3144 288.988C45.0489 348.799 128.71 461.526 259.921 493.948C391.163 526.339 511.424 487.177 528.565 406.443C535.519 373.412 496.815 342.485 499.468 306.708C500.322 273.067 590.297 197.488 545.95 129.869C501.634 62.2205 322.385 66.582 263.642 120.049C204.869 173.576 184.19 188.155 169.123 196.359C147.407 209.169 61.5494 229.239 53.3144 288.988Z" fill="#D5F1FF"/>
<path fill-rule="evenodd" clip-rule="evenodd" d="M360.174 511.179C358.436 511.179 356.697 511.271 355.02 511.454C353.068 497.424 341.051 486.627 326.472 486.627C318.145 486.627 310.673 490.134 305.427 495.777C305.427 495.502 305.427 495.258 305.427 494.984C305.427 467.869 283.467 445.879 256.322 445.879C229.238 445.879 207.217 467.839 207.217 494.984C207.217 499.437 207.827 503.737 208.925 507.824C181.902 508.892 160.308 531.126 160.308 558.424C160.308 570.319 164.395 581.238 171.288 589.9H402.295C407.632 581.848 410.774 572.21 410.774 561.84C410.804 533.871 388.112 511.179 360.174 511.179Z" fill="#0F577C"/>
<path fill-rule="evenodd" clip-rule="evenodd" d="M243.664 521.733C241.926 521.733 240.218 521.794 238.51 521.977C236.588 507.978 224.541 497.15 209.992 497.15C201.666 497.15 194.193 500.688 188.947 506.3C188.947 506.056 188.947 505.782 188.947 505.538C188.947 478.423 166.987 456.433 139.842 456.433C112.697 456.433 90.7373 478.393 90.7373 505.538C90.7373 509.96 91.3168 514.261 92.4453 518.348C65.3919 519.415 43.7979 541.65 43.7979 568.947C43.7979 576.42 45.4448 583.496 48.3423 589.901H291.183C293.196 584.411 294.294 578.524 294.294 572.363C294.294 544.395 271.633 521.733 243.664 521.733Z" fill="#16648C"/>
<path fill-rule="evenodd" clip-rule="evenodd" d="M535.641 521.886C534.146 521.886 532.621 521.977 531.188 522.13C529.51 509.991 519.11 500.658 506.513 500.658C499.315 500.658 492.849 503.677 488.305 508.588C488.305 508.344 488.305 508.161 488.305 507.917C488.305 484.462 469.303 465.461 445.849 465.461C426.725 465.461 410.53 478.118 405.253 495.534C397.872 482.998 384.239 474.611 368.653 474.611C345.199 474.611 326.197 493.612 326.197 517.067C326.197 520.91 326.685 524.6 327.661 528.138C304.268 529.053 285.602 548.299 285.602 571.875C285.602 578.341 287.005 584.441 289.506 589.992H372.313H499.498H572.088C576.724 583.038 579.408 574.712 579.408 565.714C579.408 541.528 559.797 521.886 535.641 521.886Z" fill="#16648C"/>
<path fill-rule="evenodd" clip-rule="evenodd" d="M106.75 173.21C134.627 173.21 157.349 150.487 157.349 122.61C157.349 94.7637 134.627 72.0107 106.75 72.0107C78.9034 72.0107 56.1504 94.7332 56.1504 122.61C56.1504 150.487 78.9034 173.21 106.75 173.21Z" fill="#84D5FE"/>
<path fill-rule="evenodd" clip-rule="evenodd" d="M88.3585 112.515H140.819C142.344 112.515 143.594 113.765 143.594 115.29V145.638C143.594 147.163 142.344 148.413 140.819 148.413H103.426L93.7265 158.265C93.025 158.936 92.415 158.753 92.3845 158.448V148.413H88.3585C86.8335 148.413 85.583 147.163 85.583 145.638V115.29C85.583 113.765 86.8335 112.515 88.3585 112.515Z" fill="#8DC1DB"/>
<path fill-rule="evenodd" clip-rule="evenodd" d="M86.3452 110.837H138.805C140.33 110.837 141.581 112.087 141.581 113.612V143.96C141.581 145.485 140.33 146.735 138.805 146.735H101.443L91.7437 156.587C91.0422 157.258 90.4322 157.075 90.4017 156.77V146.735H86.3757C84.8507 146.735 83.6002 145.485 83.6002 143.96V113.612C83.5697 112.087 84.8202 110.837 86.3452 110.837Z" fill="white"/>
<path fill-rule="evenodd" clip-rule="evenodd" d="M99.2467 131.882C97.5387 131.882 96.1357 130.479 96.1357 128.771C96.1357 127.063 97.5387 125.66 99.2467 125.66C100.955 125.66 102.358 127.063 102.358 128.771C102.358 130.51 100.955 131.882 99.2467 131.882Z" fill="#8DC1DB"/>
<path fill-rule="evenodd" clip-rule="evenodd" d="M112.362 131.882C110.654 131.882 109.251 130.479 109.251 128.771C109.251 127.063 110.654 125.66 112.362 125.66C114.07 125.66 115.473 127.063 115.473 128.771C115.473 130.51 114.07 131.882 112.362 131.882Z" fill="#8DC1DB"/>
<path fill-rule="evenodd" clip-rule="evenodd" d="M125.934 131.882C124.226 131.882 122.823 130.479 122.823 128.771C122.823 127.063 124.226 125.66 125.934 125.66C127.642 125.66 129.045 127.063 129.045 128.771C129.045 130.51 127.642 131.882 125.934 131.882Z" fill="#8DC1DB"/>
<path fill-rule="evenodd" clip-rule="evenodd" d="M125.142 98.3018H72.6818C71.1568 98.3018 69.9062 99.5523 69.9062 101.077V131.425C69.9062 132.95 71.1568 134.2 72.6818 134.2H110.044L119.743 144.052C120.445 144.723 121.055 144.54 121.085 144.235V134.2H125.111C126.636 134.2 127.887 132.95 127.887 131.425V101.077C127.917 99.5218 126.667 98.3018 125.142 98.3018Z" fill="#8DC1DB"/>
<path fill-rule="evenodd" clip-rule="evenodd" d="M127.154 96.624H74.6944C73.1694 96.624 71.9189 97.8745 71.9189 99.3995V129.747C71.9189 131.272 73.1694 132.523 74.6944 132.523H112.057L121.756 142.374C122.457 143.045 123.067 142.862 123.098 142.557V132.523H127.124C128.649 132.523 129.899 131.272 129.899 129.747V99.3995C129.93 97.8745 128.679 96.624 127.154 96.624Z" fill="white"/>
<path fill-rule="evenodd" clip-rule="evenodd" d="M114.253 117.669C115.961 117.669 117.364 116.266 117.364 114.558C117.364 112.85 115.961 111.447 114.253 111.447C112.545 111.447 111.142 112.85 111.142 114.558C111.142 116.297 112.545 117.669 114.253 117.669Z" fill="#8DC1DB"/>
<path fill-rule="evenodd" clip-rule="evenodd" d="M101.138 117.669C102.846 117.669 104.249 116.266 104.249 114.558C104.249 112.85 102.846 111.447 101.138 111.447C99.4303 111.447 98.0273 112.85 98.0273 114.558C98.0273 116.297 99.4303 117.669 101.138 117.669Z" fill="#8DC1DB"/>
<path fill-rule="evenodd" clip-rule="evenodd" d="M87.5651 117.669C89.2731 117.669 90.6761 116.266 90.6761 114.558C90.6761 112.85 89.2731 111.447 87.5651 111.447C85.8571 111.447 84.4541 112.85 84.4541 114.558C84.4541 116.297 85.8571 117.669 87.5651 117.669Z" fill="#8DC1DB"/>
<path fill-rule="evenodd" clip-rule="evenodd" d="M307.928 501.634L406.199 428.983L463.081 387.137C460.489 383.843 456.737 381.738 452.254 381.738H163.602C159.362 381.738 155.367 383.843 152.774 387.137L209.657 428.983L307.928 501.634Z" fill="#066EA3"/>
<path fill-rule="evenodd" clip-rule="evenodd" d="M307.928 272.67L406.199 345.321L463.081 387.167C460.489 390.461 456.737 392.565 452.254 392.565H163.602C159.362 392.565 155.367 390.461 152.774 387.167L209.657 345.321L307.928 272.67Z" fill="#84D5FE"/>
<path d="M430.172 308.873H185.684V555.008H430.172V308.873Z" fill="white"/>
<path fill-rule="evenodd" clip-rule="evenodd" d="M463.082 387.137C464.729 389.241 465.888 392.078 465.888 395.128V574.254C465.888 581.788 459.788 587.644 452.254 587.644H163.602C156.313 587.644 150.213 581.757 150.213 574.254V395.128C150.213 392.078 151.158 389.241 152.805 387.137L209.688 428.983L307.959 501.634L406.23 428.983L463.082 387.137Z" fill="#84D5FE"/>
<path fill-rule="evenodd" clip-rule="evenodd" d="M307.928 467.778L209.657 540.185L152.774 582.275C155.123 585.569 159.118 587.674 163.602 587.674H452.284C456.737 587.674 460.733 585.569 463.112 582.275L406.229 540.185L307.928 467.778Z" fill="#1A9FE2"/>
<path d="M351.817 387.228C351.817 393.359 350.994 398.849 349.316 403.668C347.639 408.487 345.351 412.543 342.454 415.898C339.526 419.223 336.079 421.785 332.023 423.523C327.997 425.292 323.605 426.146 318.908 426.146C315.736 426.146 313.265 425.323 311.466 423.645C309.666 421.968 308.66 419.772 308.446 417.027C304.176 423.096 298.564 426.146 291.641 426.146C288.804 426.146 286.151 425.628 283.741 424.56C281.332 423.493 279.227 422.029 277.489 420.077C275.72 418.155 274.378 415.807 273.371 413.062C272.395 410.317 271.907 407.236 271.907 403.82C271.907 399.032 272.731 394.457 274.408 390.034C276.086 385.612 278.251 381.708 280.935 378.292C283.619 374.876 286.639 372.161 289.994 370.087C293.349 368.013 296.765 366.976 300.242 366.976C308.08 366.976 313.784 369.325 317.413 373.991L318.664 368.562H328.393L319.975 405.162C319.457 407.206 319.091 408.944 318.908 410.439C318.725 411.903 318.633 413.214 318.633 414.373C318.633 416.935 319.609 418.216 321.592 418.216C324.642 418.216 327.509 417.484 330.223 416.02C332.938 414.556 335.286 412.482 337.299 409.768C339.312 407.053 340.898 403.759 342.057 399.947C343.216 396.134 343.796 391.773 343.796 386.954C343.796 382.013 342.85 377.438 340.959 373.198C339.068 368.989 336.415 365.329 333.029 362.188C329.644 359.077 325.557 356.637 320.799 354.868C316.041 353.099 310.764 352.245 304.969 352.245C298.259 352.245 292.098 353.526 286.456 356.088C280.813 358.65 275.994 362.127 271.938 366.519C267.912 370.911 264.77 376.035 262.544 381.921C260.317 387.808 259.189 394.03 259.189 400.587C259.189 407.175 260.256 413.031 262.361 418.155C264.496 423.249 267.576 427.58 271.602 431.148C275.628 434.686 280.569 437.37 286.364 439.2C292.159 441.03 298.778 441.945 306.128 441.945C315.37 441.945 323.025 440.542 329.095 437.736L333.09 444.416C325.16 447.893 316.193 449.631 306.189 449.631C297.619 449.631 289.933 448.503 283.131 446.246C276.33 443.989 270.535 440.725 265.807 436.516C261.08 432.277 257.45 427.153 254.919 421.083C252.387 415.014 251.137 408.212 251.137 400.618C251.137 384.636 256.23 371.277 266.417 360.541C276.696 349.988 289.597 344.681 305.122 344.681C312.259 344.681 318.694 345.748 324.459 347.914C330.223 350.079 335.134 353.068 339.16 356.85C343.216 360.663 346.327 365.146 348.523 370.362C350.719 375.516 351.817 381.159 351.817 387.228ZM315.492 381.921C312.503 377.407 307.653 375.12 300.974 375.12C298.473 375.12 296.094 375.974 293.806 377.651C291.519 379.329 289.506 381.525 287.737 384.209C285.968 386.893 284.565 389.943 283.528 393.328C282.46 396.714 281.942 400.099 281.942 403.515C281.942 413.306 285.815 418.216 293.593 418.216C295.514 418.216 297.405 417.789 299.266 416.935C301.096 416.081 302.834 414.892 304.39 413.367C305.976 411.842 307.379 410.012 308.568 407.846C309.788 405.681 310.673 403.271 311.283 400.618L315.492 381.921Z" fill="#1A9FE2"/>
<path fill-rule="evenodd" clip-rule="evenodd" d="M174.368 410.865L160.948 424.072C150.365 431.392 120.353 423.187 128.374 443.5L182.451 449.265L179.157 425.444L174.368 410.865Z" fill="#066EA3"/>
<path fill-rule="evenodd" clip-rule="evenodd" d="M181.932 445.758L127.093 438.926C127.276 440.237 127.642 441.762 128.343 443.501L182.42 449.265L181.932 445.758Z" fill="#023C59"/>
<path fill-rule="evenodd" clip-rule="evenodd" d="M143.38 429.379C144.295 429.501 144.935 430.324 144.844 431.239C144.722 432.154 143.898 432.795 142.983 432.703C142.068 432.581 141.428 431.758 141.519 430.843C141.611 429.928 142.465 429.287 143.38 429.379Z" fill="white"/>
<path fill-rule="evenodd" clip-rule="evenodd" d="M150.334 428.891C151.249 429.013 151.89 429.836 151.798 430.751C151.676 431.666 150.853 432.307 149.938 432.215C149.023 432.093 148.382 431.27 148.474 430.324C148.596 429.409 149.45 428.769 150.334 428.891Z" fill="white"/>
<path fill-rule="evenodd" clip-rule="evenodd" d="M156.953 428.007C157.868 428.129 158.508 428.952 158.417 429.867C158.295 430.782 157.471 431.423 156.526 431.331C155.611 431.209 154.97 430.386 155.092 429.44C155.184 428.556 156.007 427.885 156.953 428.007Z" fill="white"/>
<path fill-rule="evenodd" clip-rule="evenodd" d="M216.672 410.652L212.189 428.952C207.034 440.725 177.175 449.54 194.712 462.594L243.695 439.017L228.384 420.473L216.672 410.652Z" fill="#1A9FE2"/>
<path fill-rule="evenodd" clip-rule="evenodd" d="M241.468 436.363L191.234 459.391C192.088 460.458 193.217 461.526 194.742 462.654L243.725 439.078L241.468 436.363Z" fill="#0D6591"/>
<path fill-rule="evenodd" clip-rule="evenodd" d="M200.049 442.708C200.873 442.311 201.879 442.677 202.276 443.531C202.672 444.355 202.306 445.361 201.452 445.758C200.598 446.154 199.622 445.788 199.226 444.934C198.86 444.08 199.226 443.074 200.049 442.708Z" fill="white"/>
<path fill-rule="evenodd" clip-rule="evenodd" d="M205.692 438.621C206.546 438.224 207.522 438.59 207.918 439.444C208.315 440.298 207.949 441.274 207.095 441.671C206.271 442.067 205.265 441.701 204.868 440.847C204.502 439.963 204.868 438.987 205.692 438.621Z" fill="white"/>
<path fill-rule="evenodd" clip-rule="evenodd" d="M210.846 434.412C211.7 434.015 212.676 434.381 213.073 435.235C213.469 436.089 213.103 437.065 212.28 437.462C211.426 437.858 210.45 437.492 210.053 436.638C209.657 435.784 210.023 434.778 210.846 434.412Z" fill="white"/>
<path fill-rule="evenodd" clip-rule="evenodd" d="M193.889 348.279L163.755 332.48L160.644 422.76L179.554 424.346L193.889 348.279Z" fill="#023C59"/>
<path fill-rule="evenodd" clip-rule="evenodd" d="M242.536 258.151L217.648 284.29C208.467 288.621 199.256 292.921 190.076 297.252C152.622 317.26 156.312 323.299 169.122 350.475L211.883 426.877L229.207 419.618C220.332 392.351 207.888 363.864 199.012 336.567C222.619 313.112 278.343 337.299 264.923 277.763L242.536 258.151Z" fill="#0D6591"/>
<path fill-rule="evenodd" clip-rule="evenodd" d="M194.072 179.218L187.057 175.894C188.338 172.569 189.619 169.306 190.93 165.981C188.856 159.546 191.266 150.091 193.736 148.169C198.586 144.57 208.437 146.827 206.607 154.147C205.418 163.389 197.762 167.262 194.072 179.218Z" fill="#ADE4FF"/>
<path fill-rule="evenodd" clip-rule="evenodd" d="M204.563 138.195C206.485 139.232 208.437 140.33 210.358 141.367C212.28 142.404 214.232 143.441 216.092 144.478C216.733 144.814 216.977 145.668 216.58 146.308C214.598 149.663 212.585 153.049 210.541 156.465C208.498 159.942 206.424 163.388 204.35 166.957C203.953 167.597 203.069 167.902 202.367 167.536C200.324 166.499 198.372 165.493 196.328 164.456C194.285 163.48 192.272 162.412 190.198 161.375C189.496 160.979 189.252 160.125 189.649 159.454C191.875 155.946 194.041 152.378 196.237 148.901C198.372 145.424 200.507 142.008 202.581 138.653C203.008 138.043 203.892 137.799 204.563 138.195Z" fill="#1A9FE2"/>
<path fill-rule="evenodd" clip-rule="evenodd" d="M233.416 215.055L232.47 181.962L193.979 198.219L198.92 169.701L188.672 167.322L178.638 204.99C176.411 218.745 183.182 221.307 193.644 219.538L233.416 215.055Z" fill="url(#paint0_linear_796_6637)"/>
<path fill-rule="evenodd" clip-rule="evenodd" d="M239.18 172.844L225.272 180.316C221.765 184.129 216.458 187.789 217.068 198.189V284.291L264.953 277.825C258.67 246.257 266.386 187.484 258.487 182.604C253.637 179.615 246.043 175.009 239.18 172.844Z" fill="#81CBF1"/>
<path fill-rule="evenodd" clip-rule="evenodd" d="M221.46 173.179L234.361 164.822L240.492 174.338C235.642 177.51 231.982 198.189 226.004 183.854L221.46 173.179Z" fill="#80D0F8"/>
<path fill-rule="evenodd" clip-rule="evenodd" d="M234.27 135.664L200.171 142.954C201.147 157.167 212.401 181.414 221.155 177.541C239.912 167.506 239.912 159.393 234.27 135.664Z" fill="#ADE4FF"/>
<path fill-rule="evenodd" clip-rule="evenodd" d="M208.803 168.878C208.406 164.212 221.308 165.554 223.748 161.558L229.39 138.592C229.207 154.574 236.863 161.741 231.464 170.525C228.933 172.965 225.578 175.192 221.186 177.54C217.16 179.34 212.646 175.222 208.803 168.878Z" fill="#033852"/>
<path fill-rule="evenodd" clip-rule="evenodd" d="M225.425 162.442C225.669 162.93 225.883 163.479 226.005 164.028C227.042 168.237 224.48 172.538 220.271 173.575C218.136 174.063 216.062 173.727 214.323 172.69C221.125 170.708 225.852 166.346 225.425 162.442Z" fill="white"/>
<path fill-rule="evenodd" clip-rule="evenodd" d="M227.438 141.977L200.506 146.125C195.657 148.108 183.67 138.958 190.502 126.88C197.975 116.723 211.791 128.161 228.2 126.544C241.956 128.466 244.091 143.38 237.503 157.227C229.512 158.844 232.531 141.123 227.438 141.977Z" fill="#033852"/>
<path fill-rule="evenodd" clip-rule="evenodd" d="M231.342 153.141C230.885 150.762 230.458 148.383 230.061 146.004C229.573 140.117 234.514 139.66 235.094 144.113C235.673 150.182 233.447 149.786 231.342 153.141Z" fill="#ADE4FF"/>
<path fill-rule="evenodd" clip-rule="evenodd" d="M206.546 260.623L198.494 259.372C193.736 259.189 189.039 258.976 184.281 258.793C175.162 257.908 184.281 261.019 190.412 263.49C187.453 271.298 176.107 277.245 177.358 282.888C179.127 287.646 188.399 281.363 190.168 279.929C199.165 273.311 199.074 271.115 202.185 264.344L206.546 260.623Z" fill="#ADE4FF"/>
<path fill-rule="evenodd" clip-rule="evenodd" d="M238.418 193.583C245.006 170.922 263.245 178.699 260.927 193.004L252.967 223.077C250.923 228.232 248.849 230.885 245.342 233.66L202.459 265.868L194.498 257.45L235.155 220.301C236.283 211.853 237.046 202.245 238.418 193.583Z" fill="url(#paint1_linear_796_6637)"/>
<path d="M414.251 200.843C365.207 200.843 325.222 160.796 325.222 111.691C325.222 62.6168 365.207 22.5703 414.251 22.5703C463.295 22.5703 503.281 62.6168 503.281 111.691C503.281 160.796 463.295 200.843 414.251 200.843Z" fill="url(#paint2_linear_796_6637)"/>
<path d="M331.627 216.245C319.579 216.245 309.728 207.949 309.728 197.762C309.728 187.575 319.549 179.279 331.627 179.279C343.674 179.279 353.495 187.575 353.495 197.762C353.495 207.949 343.674 216.245 331.627 216.245Z" fill="url(#paint3_linear_796_6637)"/>
<path d="M299.327 234.484C292.891 234.484 287.676 230.336 287.676 225.242C287.676 220.149 292.891 216.001 299.327 216.001C305.732 216.001 310.978 220.149 310.978 225.242C311.008 230.305 305.762 234.484 299.327 234.484Z" fill="url(#paint4_linear_796_6637)"/>
<path fill-rule="evenodd" clip-rule="evenodd" d="M453.291 56.0897C447.343 51.1487 429.958 56.0897 422.486 63.8977L420.046 84.2412C421.998 93.7267 428.006 95.8312 433.74 98.4237L408.883 134.475C405.375 130.418 398.513 125.264 392.505 125.691L372.558 134.597C365.421 144.479 370.423 163.45 375.73 167.567C408.212 177.846 481.076 105.957 453.291 56.0897Z" fill="white"/>
<path fill-rule="evenodd" clip-rule="evenodd" d="M515.237 539.85C515.206 539.911 515.206 540.003 515.176 540.064C515.145 540.186 515.115 540.277 515.084 540.399C515.054 540.46 515.054 540.521 515.023 540.552C514.993 540.674 514.932 540.765 514.901 540.857C514.871 540.918 514.871 540.948 514.84 541.009C514.81 541.07 514.779 541.131 514.749 541.192C514.718 541.284 514.657 541.345 514.627 541.406C514.596 541.467 514.535 541.558 514.505 541.619C514.474 541.68 514.413 541.772 514.383 541.833C514.352 541.894 514.291 541.955 514.261 542.016C514.078 542.29 513.864 542.534 513.62 542.778C513.59 542.809 513.559 542.839 513.559 542.87L513.529 542.9C513.498 542.931 513.437 542.992 513.407 543.022C513.163 543.266 512.919 543.48 512.644 543.693C512.37 543.907 512.095 544.09 511.821 544.273C511.699 544.364 511.577 544.425 511.455 544.486C511.333 544.547 511.211 544.639 511.089 544.7C510.052 545.279 508.893 545.767 507.795 546.164C507.581 546.255 507.368 546.316 507.124 546.408C507.002 546.438 506.91 546.469 506.788 546.53C506.575 546.591 506.361 546.682 506.148 546.743C505.355 547.018 504.653 547.231 504.013 547.475C503.891 547.536 503.769 547.567 503.647 547.628C503.616 547.658 503.555 547.658 503.525 547.689C503.464 547.719 503.372 547.75 503.311 547.78C503.25 547.811 503.159 547.841 503.098 547.872C503.037 547.902 502.976 547.933 502.915 547.963C502.823 548.024 502.732 548.055 502.64 548.116C502.488 548.207 502.335 548.329 502.213 548.421C502.183 548.451 502.152 548.482 502.122 548.512C501.939 548.726 501.847 548.939 501.878 549.183C502.762 552.355 513.529 548.512 512.095 555.253C507.978 562.451 489.495 555.253 488.702 557.754C488 559.553 498.309 563.122 494.07 566.324C487.909 570.96 473.94 561.566 471.591 564.22C465.644 570.289 484.462 572.912 478.24 577.304C473.848 580.69 463.509 577.03 460.062 579.287C458.507 580.446 466.589 582.001 464.241 585.356C462.441 587.43 459.544 589.108 456.585 590.907H438.499C438.224 590.541 437.919 590.145 437.614 589.748C437.767 588.864 437.858 587.949 437.919 587.003C438.407 580.476 437.614 572.211 439.231 567.209C439.78 565.531 440.573 564.22 441.793 563.457C442.22 563.244 442.616 563.152 442.982 563.152C444.507 563.122 445.3 564.891 445.88 566.812C446.703 569.557 447.1 572.668 448.472 571.814C449.082 571.54 449.54 571.082 449.875 570.472C451.187 568.063 450.546 563.244 450.424 558.943C450.333 556.381 450.455 553.972 451.278 552.355C451.858 551.227 452.773 550.495 454.206 550.312C455.06 550.251 455.731 550.312 456.311 550.495C459.513 551.532 458.69 555.985 459.086 558.516C459.269 559.614 459.666 560.346 460.733 560.285C460.733 560.285 460.764 560.285 460.794 560.285C464.637 558.638 462.167 552.386 462.197 547.719C462.197 545.645 462.746 543.876 464.546 542.992C465.217 542.656 465.796 542.443 466.315 542.351C470.798 541.589 469.639 549.763 473.513 549.244C476.959 549.671 474.245 530.243 486.201 531.432C497.791 534.452 483.425 541.558 487.299 545.066C490.837 547.048 509.899 524.844 514.871 534.818C515.542 536.831 515.603 538.478 515.237 539.85Z" fill="#4690B6"/>
<path fill-rule="evenodd" clip-rule="evenodd" d="M456.768 539.576C457.286 541.314 466.711 538.173 466.406 542.321C466.406 542.534 466.345 542.748 466.284 542.992C465.765 544.944 464.24 546.469 462.258 547.719C460.519 548.817 458.445 549.702 456.371 550.495C454.602 551.166 452.833 551.776 451.339 552.355C449.021 553.27 447.343 554.155 447.282 555.253C446.977 557.937 448.441 558.791 450.485 558.974C453.199 559.187 457.012 558.181 459.147 558.547C460.184 558.73 460.824 559.218 460.794 560.316C460.794 560.621 460.733 561.017 460.611 561.444C459.604 565.44 453.596 568.429 450.027 571.296C448.807 572.272 447.892 573.248 447.557 574.224C447.343 575.017 448.502 574.803 449.966 574.59C451.949 574.315 454.48 574.041 454.602 576.389C454.602 576.481 454.602 576.572 454.572 576.664C454.267 580.873 451.461 585.875 450.241 590.968H432.795C429.897 587.095 426.512 583.13 424.621 579.531C424.041 578.463 423.614 577.426 423.37 576.42C423.065 575.2 423.035 574.071 423.401 573.034C425.231 569.191 429.836 574.437 432.307 575.718C433.039 576.084 433.588 576.115 433.801 575.474C436.729 570.167 419.405 560.621 425.017 555.009C426.969 553.24 428.555 553.423 429.897 554.338C431.117 555.161 432.154 556.534 433.13 557.632C434.259 558.913 435.296 559.767 436.333 558.791C437.37 556.869 436.302 555.039 434.655 553.209C433.71 552.172 432.551 551.105 431.483 550.068C429.226 547.811 427.366 545.462 428.616 542.87C429.074 541.894 429.562 541.223 430.08 540.857C433.069 538.6 436.943 544.913 439.566 542.26C442.524 540.46 428.403 526.857 438.529 520.422C449.509 515.633 442.616 530.09 447.801 530.456C451.827 529.816 453.077 500.597 463.142 505.385C463.478 505.629 463.813 505.873 464.118 506.117C464.393 506.361 464.667 506.605 464.911 506.849C464.942 506.88 465.003 506.941 465.033 506.971C465.216 507.154 465.369 507.337 465.521 507.52C465.582 507.581 465.613 507.642 465.674 507.703C465.735 507.764 465.765 507.825 465.826 507.917C465.857 507.978 465.918 508.039 465.948 508.1L465.979 508.13C466.009 508.191 466.07 508.252 466.101 508.313C466.131 508.374 466.162 508.435 466.192 508.466C466.253 508.557 466.284 508.618 466.314 508.71C466.345 508.771 466.375 508.832 466.406 508.893C466.467 509.045 466.558 509.198 466.619 509.35C466.65 509.411 466.68 509.472 466.68 509.533C466.711 509.594 466.711 509.655 466.741 509.686C466.772 509.777 466.802 509.838 466.833 509.93C466.863 509.991 466.863 510.052 466.894 510.143C466.924 510.204 466.924 510.265 466.924 510.326C466.924 510.387 466.955 510.479 466.955 510.54C466.955 510.601 466.985 510.662 466.985 510.753C466.985 510.814 467.016 510.875 467.016 510.967C467.016 511.028 467.016 511.089 467.046 511.15C467.046 511.15 467.046 511.18 467.046 511.211C467.046 511.272 467.046 511.333 467.046 511.394C467.046 511.455 467.046 511.485 467.046 511.546C467.077 512.126 467.016 512.705 466.924 513.254C466.802 513.956 466.589 514.688 466.314 515.359C466.253 515.481 466.223 515.603 466.162 515.725C466.101 515.847 466.04 515.969 466.009 516.091C465.887 516.335 465.765 516.579 465.643 516.823C465.552 517.006 465.46 517.189 465.369 517.372C465.308 517.494 465.247 517.616 465.155 517.738C464.301 519.263 463.295 520.666 462.563 521.825C462.38 522.13 462.197 522.435 462.044 522.709C461.983 522.831 461.922 522.953 461.861 523.045C461.831 523.106 461.8 523.197 461.77 523.258C461.739 523.319 461.709 523.411 461.678 523.472C461.678 523.502 461.648 523.563 461.648 523.594C461.556 523.929 461.526 524.234 461.617 524.478C461.648 524.539 461.648 524.57 461.678 524.631C461.709 524.661 461.739 524.722 461.77 524.753C464.423 526.705 470.493 517.036 473.543 523.197C474.793 531.341 455.822 537.105 456.768 539.576Z" fill="#4690B6"/>
<path fill-rule="evenodd" clip-rule="evenodd" d="M449.966 574.529C449.661 577.487 448.807 580.873 447.984 584.258C447.435 586.515 446.886 588.803 446.52 590.907H428.159C425.505 588.162 422.73 585.631 421.388 582.916C420.595 580.812 422.73 580.019 424.59 579.47C426.115 579.012 427.457 578.738 426.908 578.067C426.176 577.274 424.895 576.755 423.34 576.359C418.917 575.2 412.299 574.925 409.767 571.692C404.826 565.928 423.706 567.971 419.405 560.651C417.789 557.479 401.929 563.213 397.11 557.205C393.785 553.087 404.643 552.111 404.43 550.22C404.277 547.597 384.605 550.068 382.348 542.077C382.622 535.184 392.108 541.558 393.755 538.691C393.907 538.295 393.724 537.898 393.297 537.471C393.267 537.441 393.267 537.441 393.236 537.41C392.901 537.075 392.413 536.709 391.833 536.343C391.772 536.312 391.711 536.251 391.62 536.19C391.498 536.099 391.345 536.007 391.193 535.916C391.132 535.885 391.071 535.855 391.04 535.794C390.949 535.733 390.827 535.672 390.735 535.58C390.674 535.55 390.613 535.489 390.522 535.458C390.491 535.428 390.43 535.397 390.4 535.397C390.308 535.336 390.247 535.306 390.156 535.245C389.912 535.092 389.668 534.94 389.424 534.757C389.332 534.696 389.271 534.635 389.18 534.604C389.088 534.543 389.027 534.482 388.936 534.421C388.844 534.36 388.783 534.299 388.692 534.238C387.655 533.537 386.587 532.713 385.672 531.798C385.55 531.676 385.459 531.585 385.367 531.463C385.215 531.31 385.093 531.158 384.971 531.005C384.818 530.822 384.666 530.609 384.513 530.395C384.452 530.304 384.391 530.243 384.33 530.151C384.269 530.06 384.208 529.968 384.178 529.907C384.147 529.846 384.117 529.785 384.056 529.724C384.025 529.663 383.995 529.602 383.964 529.541C383.934 529.511 383.934 529.48 383.903 529.419L383.873 529.358C383.873 529.358 383.873 529.358 383.873 529.328C383.873 529.328 383.873 529.297 383.842 529.267C383.812 529.206 383.781 529.175 383.781 529.114C383.781 529.084 383.751 529.053 383.751 529.053C383.72 528.992 383.69 528.901 383.659 528.84C383.598 528.687 383.537 528.565 383.507 528.413C383.507 528.413 383.507 528.413 383.507 528.382C383.476 528.321 383.446 528.23 383.446 528.169C383.415 528.077 383.385 527.955 383.354 527.864C383.324 527.772 383.324 527.711 383.293 527.62C383.293 527.589 383.293 527.559 383.263 527.559C383.232 527.467 383.232 527.376 383.202 527.284V527.254C382.958 525.607 383.324 523.685 384.666 521.489C391.925 513.041 404.979 539.21 408.883 538.142C413.488 535.702 401.288 525.302 413.275 525.21C425.17 526.949 417.789 545.127 421.235 545.554C424.956 547.048 425.78 538.478 430.141 540.735C430.568 540.948 430.995 541.253 431.483 541.68C433.801 543.632 432.825 546.774 431.575 549.946C430.995 551.41 430.385 552.874 429.989 554.216C429.379 556.29 429.348 558.15 430.904 559.34C432.124 559.767 432.734 558.852 433.191 557.51C433.649 556.198 434.015 554.46 434.716 553.087C435.57 551.44 436.973 550.373 439.688 551.288C444.72 553.209 440.847 561.109 439.352 567.117C438.651 569.954 438.468 572.394 440.023 573.553C440.603 574.163 441.182 573.675 441.823 572.699C442.982 570.96 444.293 567.697 446.001 566.721C446.764 566.263 447.618 566.294 448.533 567.087C449.326 567.941 449.783 569.069 449.997 570.381C450.027 570.625 450.058 570.899 450.088 571.143C450.119 572.241 450.088 573.339 449.966 574.529Z" fill="#4690B6"/>
<path fill-rule="evenodd" clip-rule="evenodd" d="M515.175 540.095C515.145 540.217 515.114 540.308 515.084 540.43C515.053 540.491 515.053 540.552 515.023 540.583C514.992 540.705 514.931 540.796 514.901 540.888C514.87 540.949 514.87 540.979 514.84 541.04C514.809 541.101 514.779 541.162 514.748 541.223C514.718 541.315 514.657 541.376 514.626 541.437C514.596 541.498 514.535 541.589 514.504 541.65C514.474 541.711 514.413 541.803 514.382 541.864C514.352 541.925 514.291 541.986 514.26 542.047C514.077 542.321 513.864 542.565 513.62 542.809C513.589 542.84 513.528 542.901 513.498 542.931C513.467 542.962 513.406 543.023 513.376 543.053C513.132 543.297 512.888 543.511 512.613 543.724C512.339 543.938 512.064 544.121 511.79 544.304C511.668 544.395 511.546 544.456 511.424 544.517C511.302 544.578 511.18 544.67 511.058 544.731C510.021 545.31 508.862 545.798 507.764 546.195C507.55 546.286 507.337 546.347 507.093 546.439C506.971 546.469 506.879 546.5 506.757 546.561C506.544 546.622 506.33 546.713 506.117 546.774C505.324 547.049 504.622 547.262 503.982 547.506C503.86 547.567 503.738 547.598 503.616 547.659C503.585 547.689 503.524 547.689 503.494 547.72C503.433 547.75 503.341 547.781 503.28 547.811C503.219 547.842 503.128 547.872 503.067 547.903C503.006 547.933 502.945 547.964 502.884 547.994C502.792 548.055 502.701 548.086 502.609 548.147C502.457 548.238 502.304 548.36 502.182 548.452C502.152 548.482 502.121 548.513 502.091 548.543C501.908 548.757 501.816 548.97 501.847 549.214C502.731 552.386 513.498 548.543 512.064 555.284C507.947 562.482 489.464 555.284 488.671 557.785C487.969 559.584 498.278 563.153 494.039 566.355C487.878 570.991 473.909 561.597 471.56 564.251C465.613 570.32 484.431 572.943 478.209 577.335C473.817 580.721 463.478 577.061 460.031 579.318C458.476 580.477 466.558 582.032 464.21 585.387C462.41 587.461 459.513 589.139 456.554 590.938H442.951C444.446 588.742 446.093 586.516 447.892 584.289C449.905 581.758 452.101 579.196 454.48 576.634C459.543 571.174 465.369 565.715 471.835 560.53C486.81 548.452 502.304 539.973 515.175 536.038C515.572 537.594 515.511 538.936 515.175 540.095Z" fill="#69AACB"/>
<path fill-rule="evenodd" clip-rule="evenodd" d="M456.768 539.576C457.286 541.314 466.711 538.173 466.406 542.321C466.406 542.534 466.345 542.748 466.284 542.992C465.765 544.944 464.24 546.469 462.258 547.719C460.519 548.817 458.445 549.702 456.371 550.495C454.602 551.166 452.833 551.776 451.339 552.355C449.021 553.27 447.343 554.155 447.282 555.253C446.977 557.937 448.441 558.791 450.485 558.974C453.199 559.187 457.012 558.181 459.147 558.547C460.184 558.73 460.824 559.218 460.794 560.316C460.794 560.621 460.733 561.017 460.611 561.444C459.604 565.44 453.596 568.429 450.027 571.296C448.807 572.272 447.892 573.248 447.557 574.224C447.343 575.017 448.502 574.803 449.966 574.59C451.949 574.315 454.48 574.041 454.602 576.389C454.602 576.481 454.602 576.572 454.572 576.664C454.267 580.873 451.461 585.875 450.241 590.968H441.152C440.938 585.356 441.121 579.256 441.792 572.821C442.097 569.679 442.524 566.446 443.073 563.152C443.653 559.553 444.385 555.863 445.239 552.142C449.539 533.384 456.463 517.158 464.179 506.117C464.454 506.361 464.728 506.605 464.972 506.849C465.003 506.88 465.064 506.941 465.094 506.971C465.277 507.154 465.43 507.337 465.582 507.52C465.643 507.581 465.674 507.642 465.735 507.703C465.796 507.764 465.826 507.825 465.887 507.917C465.918 507.978 465.979 508.039 466.009 508.1L466.04 508.13C466.07 508.191 466.131 508.252 466.162 508.313C466.192 508.374 466.223 508.435 466.253 508.466C466.314 508.557 466.345 508.618 466.375 508.71C466.406 508.771 466.436 508.832 466.467 508.893C466.528 509.045 466.619 509.198 466.68 509.35C466.711 509.411 466.741 509.472 466.741 509.533C466.772 509.594 466.772 509.655 466.802 509.686C466.833 509.777 466.863 509.838 466.894 509.93C466.924 509.991 466.924 510.052 466.955 510.143C466.985 510.204 466.985 510.265 466.985 510.326C466.985 510.387 467.016 510.479 467.016 510.54C467.016 510.601 467.046 510.662 467.046 510.753C467.046 510.814 467.077 510.875 467.077 510.967C467.077 511.028 467.077 511.089 467.107 511.15C467.107 511.15 467.107 511.18 467.107 511.211C467.107 511.272 467.107 511.333 467.107 511.394C467.107 511.455 467.107 511.485 467.107 511.546C467.138 512.126 467.077 512.705 466.985 513.254C466.863 513.956 466.65 514.688 466.375 515.359C466.314 515.481 466.284 515.603 466.223 515.725C466.162 515.847 466.101 515.969 466.07 516.091C465.948 516.335 465.826 516.579 465.704 516.823C465.613 517.006 465.521 517.189 465.43 517.372C465.369 517.494 465.308 517.616 465.216 517.738C464.332 519.263 463.356 520.666 462.624 521.825C462.441 522.13 462.258 522.435 462.105 522.709C462.044 522.831 461.983 522.953 461.922 523.045C461.892 523.106 461.861 523.197 461.831 523.258C461.8 523.319 461.77 523.411 461.739 523.472C461.739 523.502 461.709 523.563 461.709 523.594C461.617 523.929 461.587 524.234 461.678 524.478C461.709 524.539 461.709 524.57 461.739 524.631C461.77 524.661 461.8 524.722 461.831 524.753C464.484 526.705 470.554 517.036 473.604 523.197C474.793 531.341 455.822 537.105 456.768 539.576Z" fill="#69AACB"/>
<path fill-rule="evenodd" clip-rule="evenodd" d="M439.627 590.907H428.128C425.475 588.162 422.699 585.631 421.357 582.916C420.564 580.812 422.699 580.019 424.56 579.47C426.085 579.012 427.427 578.738 426.878 578.067C426.146 577.274 424.865 576.755 423.309 576.359C418.887 575.2 412.268 574.925 409.737 571.692C404.796 565.928 423.675 567.971 419.375 560.651C417.758 557.479 401.898 563.213 397.079 557.205C393.755 553.087 404.613 552.111 404.399 550.22C404.247 547.597 384.574 550.068 382.317 542.077C382.592 535.184 392.077 541.558 393.724 538.691C393.877 538.295 393.694 537.898 393.267 537.471C393.236 537.441 393.236 537.441 393.206 537.41C392.87 537.075 392.382 536.709 391.803 536.343C391.742 536.312 391.681 536.251 391.589 536.19C391.467 536.099 391.315 536.007 391.162 535.916C391.101 535.885 391.04 535.855 391.01 535.794C390.918 535.733 390.796 535.672 390.705 535.58C390.644 535.55 390.583 535.489 390.491 535.458C390.461 535.428 390.4 535.397 390.369 535.397C390.278 535.336 390.217 535.306 390.125 535.245C389.881 535.092 389.637 534.94 389.393 534.757C389.302 534.696 389.241 534.635 389.149 534.604C389.058 534.543 388.997 534.482 388.905 534.421C388.814 534.36 388.753 534.299 388.661 534.238C387.624 533.537 386.557 532.713 385.642 531.798C385.52 531.676 385.428 531.585 385.337 531.463C385.184 531.31 385.062 531.158 384.94 531.005C384.788 530.822 384.635 530.609 384.483 530.395C384.422 530.304 384.361 530.243 384.3 530.151C384.239 530.06 384.178 529.968 384.147 529.907C384.117 529.846 384.086 529.785 384.025 529.724C383.995 529.663 383.964 529.602 383.934 529.541C383.903 529.511 383.903 529.48 383.873 529.419L383.842 529.358C383.842 529.328 383.812 529.297 383.812 529.297C383.781 529.236 383.751 529.206 383.751 529.145C383.751 529.114 383.72 529.084 383.72 529.084C383.69 529.023 383.659 528.931 383.629 528.87C383.568 528.718 383.507 528.596 383.476 528.443C383.476 528.443 383.476 528.443 383.476 528.413C383.446 528.352 383.415 528.26 383.415 528.199C382.927 526.583 383.019 524.722 384.086 522.557C395.615 529.511 408.578 541.497 420.137 556.869C424.834 563.091 428.921 569.405 432.368 575.566C434.533 579.409 436.424 583.221 438.041 586.881C438.559 588.284 439.108 589.596 439.627 590.907Z" fill="#69AACB"/>
<path fill-rule="evenodd" clip-rule="evenodd" d="M240.248 530.456C240.217 530.548 240.217 530.609 240.187 530.7C240.156 530.822 240.095 530.944 240.065 531.066C240.065 531.066 240.065 531.066 240.065 531.097C240.034 531.158 240.034 531.219 240.004 531.28C239.943 531.402 239.912 531.524 239.851 531.646C239.821 531.707 239.79 531.768 239.79 531.798C239.76 531.859 239.729 531.951 239.699 532.012C239.668 532.103 239.607 532.195 239.546 532.256C239.485 532.347 239.455 532.408 239.394 532.5C239.333 532.591 239.302 532.652 239.241 532.744C239.18 532.805 239.15 532.866 239.089 532.957C238.875 533.262 238.631 533.537 238.387 533.811C238.357 533.842 238.326 533.872 238.296 533.903C238.265 533.933 238.265 533.933 238.235 533.964C238.204 533.994 238.143 534.055 238.113 534.086C237.838 534.36 237.564 534.604 237.259 534.818C236.954 535.062 236.649 535.275 236.313 535.489C236.191 535.58 236.039 535.672 235.917 535.733C235.764 535.824 235.642 535.885 235.49 535.977C234.3 536.648 233.019 537.166 231.769 537.624C231.525 537.715 231.281 537.807 231.037 537.898C230.915 537.929 230.793 537.99 230.671 538.02C230.427 538.112 230.183 538.173 229.969 538.264C229.085 538.569 228.261 538.813 227.56 539.088C227.407 539.149 227.285 539.21 227.163 539.24C227.133 539.271 227.072 539.271 227.041 539.301C226.95 539.332 226.858 539.362 226.797 539.423C226.706 539.454 226.645 539.484 226.553 539.545C226.462 539.576 226.401 539.606 226.34 539.667C226.248 539.728 226.126 539.789 226.035 539.85C225.852 539.972 225.699 540.094 225.577 540.216C225.547 540.247 225.486 540.308 225.455 540.338C225.242 540.582 225.15 540.826 225.181 541.101C226.187 544.7 238.326 540.338 236.71 547.933C232.043 556.076 211.212 547.933 210.327 550.769C209.534 552.782 221.155 556.839 216.397 560.438C209.443 565.684 193.674 555.07 191.021 558.059C184.311 564.891 205.539 567.88 198.524 572.821C193.583 576.664 181.901 572.516 178.028 575.047C176.259 576.328 185.409 578.097 182.755 581.879C180.712 584.228 177.448 586.119 174.093 588.132H153.719C153.384 587.705 153.048 587.278 152.713 586.82C152.865 585.844 152.987 584.807 153.048 583.709C153.597 576.328 152.713 567.026 154.543 561.353C155.153 559.462 156.068 557.998 157.44 557.113C157.928 556.869 158.386 556.747 158.782 556.747C160.49 556.717 161.405 558.699 162.076 560.895C163.022 563.976 163.449 567.514 165.004 566.538C165.706 566.233 166.224 565.714 166.59 565.043C168.085 562.298 167.322 556.9 167.2 552.05C167.109 549.153 167.231 546.438 168.176 544.608C168.817 543.327 169.854 542.504 171.47 542.29C172.416 542.229 173.209 542.29 173.819 542.504C177.418 543.663 176.503 548.695 176.96 551.562C177.174 552.813 177.631 553.636 178.821 553.545C178.851 553.545 178.851 553.545 178.882 553.545C183.243 551.684 180.407 544.639 180.468 539.393C180.498 537.044 181.078 535.062 183.121 534.055C183.884 533.659 184.555 533.445 185.104 533.323C190.167 532.439 188.855 541.68 193.247 541.131C197.151 541.619 194.071 519.69 207.552 521.032C220.636 524.448 204.441 532.469 208.802 536.404C212.798 538.63 234.3 513.59 239.912 524.844C240.583 527.01 240.644 528.901 240.248 530.456Z" fill="#4690B6"/>
<path fill-rule="evenodd" clip-rule="evenodd" d="M174.246 530.121C174.825 532.104 185.439 528.566 185.104 533.232C185.073 533.446 185.043 533.72 184.982 533.964C184.402 536.16 182.694 537.868 180.468 539.271C178.516 540.522 176.137 541.528 173.819 542.382C171.806 543.145 169.823 543.816 168.146 544.487C165.523 545.524 163.632 546.5 163.571 547.75C163.235 550.77 164.852 551.746 167.17 551.929C170.25 552.173 174.52 551.044 176.96 551.441C178.119 551.624 178.851 552.203 178.821 553.423C178.821 553.789 178.729 554.186 178.607 554.674C177.479 559.188 170.677 562.543 166.682 565.776C165.309 566.874 164.272 567.972 163.876 569.1C163.632 569.985 164.943 569.741 166.59 569.527C168.847 569.222 171.653 568.917 171.806 571.571C171.806 571.662 171.806 571.784 171.775 571.876C171.44 576.634 168.268 582.276 166.865 588.01H147.162C143.868 583.649 140.055 579.165 137.92 575.109C137.28 573.889 136.792 572.73 136.517 571.601C136.182 570.229 136.151 568.948 136.578 567.789C138.652 563.427 143.837 569.344 146.643 570.808C147.467 571.235 148.077 571.266 148.351 570.534C151.676 564.556 132.095 553.789 138.439 547.445C140.635 545.432 142.404 545.646 143.959 546.683C145.332 547.598 146.521 549.184 147.589 550.404C148.87 551.868 150.029 552.813 151.218 551.685C152.377 549.519 151.188 547.476 149.327 545.402C148.26 544.212 146.948 543.053 145.759 541.833C143.197 539.271 141.092 536.648 142.495 533.72C143.014 532.592 143.563 531.89 144.142 531.433C147.528 528.871 151.889 536.008 154.848 533.019C158.203 530.975 142.251 515.634 153.689 508.375C166.072 502.976 158.294 519.294 164.181 519.69C168.725 518.958 170.159 486.018 181.505 491.386C181.901 491.661 182.267 491.935 182.603 492.21C182.938 492.484 183.213 492.759 183.487 493.033C183.548 493.094 183.579 493.125 183.64 493.186C183.823 493.399 184.006 493.613 184.189 493.826C184.25 493.887 184.311 493.979 184.341 494.04C184.402 494.101 184.463 494.192 184.494 494.253C184.555 494.314 184.585 494.375 184.616 494.436C184.616 494.467 184.646 494.467 184.646 494.497C184.707 494.558 184.738 494.65 184.768 494.711C184.799 494.772 184.829 494.833 184.89 494.894C184.951 494.985 184.982 495.077 185.043 495.168C185.073 495.229 185.104 495.321 185.165 495.382C185.256 495.565 185.317 495.717 185.378 495.9C185.409 495.961 185.439 496.022 185.47 496.114C185.5 496.175 185.5 496.236 185.531 496.297C185.561 496.388 185.592 496.48 185.622 496.571C185.653 496.663 185.653 496.724 185.683 496.815C185.683 496.815 185.683 496.815 185.683 496.846C185.714 496.907 185.714 496.998 185.744 497.059C185.775 497.151 185.775 497.212 185.805 497.303C185.805 497.395 185.836 497.456 185.836 497.517C185.836 497.608 185.866 497.669 185.866 497.73C185.866 497.791 185.897 497.883 185.897 497.944C185.897 497.974 185.897 497.974 185.897 498.005C185.897 498.066 185.897 498.157 185.927 498.218C185.927 498.279 185.927 498.34 185.927 498.371C185.958 499.011 185.897 499.652 185.775 500.292C185.622 501.085 185.378 501.909 185.073 502.671C185.012 502.824 184.951 502.946 184.89 503.098C184.829 503.251 184.768 503.373 184.707 503.525C184.585 503.8 184.433 504.074 184.311 504.349C184.219 504.562 184.097 504.745 183.975 504.959C183.914 505.081 183.823 505.233 183.762 505.355C182.786 507.063 181.657 508.649 180.864 509.961C180.651 510.296 180.437 510.632 180.285 510.937C180.224 511.059 180.163 511.211 180.102 511.333C180.071 511.425 180.041 511.486 179.98 511.577C179.949 511.669 179.919 511.73 179.888 511.821C179.858 511.882 179.858 511.913 179.827 511.974C179.705 512.37 179.675 512.706 179.797 512.95C179.827 513.011 179.858 513.072 179.888 513.102C179.919 513.163 179.949 513.194 180.01 513.255C182.999 515.451 189.862 504.532 193.308 511.486C194.589 520.849 173.178 527.346 174.246 530.121Z" fill="#4690B6"/>
<path fill-rule="evenodd" clip-rule="evenodd" d="M166.56 569.558C166.194 572.882 165.249 576.725 164.334 580.538C163.693 583.1 163.083 585.662 162.656 588.041H141.947C138.958 584.93 135.847 582.093 134.291 579.043C133.376 576.664 135.786 575.749 137.921 575.139C139.629 574.621 141.154 574.316 140.544 573.553C139.72 572.669 138.287 572.089 136.518 571.632C131.546 570.32 124.043 570.015 121.207 566.386C115.625 559.889 136.945 562.177 132.095 553.911C130.265 550.343 112.392 556.809 106.933 550.007C103.181 545.371 115.442 544.273 115.168 542.138C115.015 539.18 92.7805 541.955 90.249 532.958C90.554 525.211 101.26 532.378 103.12 529.145C103.303 528.688 103.059 528.23 102.602 527.742C102.571 527.712 102.571 527.681 102.541 527.681C102.144 527.285 101.626 526.888 100.985 526.461C100.894 526.4 100.833 526.37 100.741 526.309C100.589 526.217 100.436 526.095 100.253 526.004C100.192 525.973 100.131 525.912 100.07 525.882C99.948 525.821 99.826 525.729 99.704 525.668C99.643 525.607 99.5515 525.577 99.4905 525.516C99.46 525.485 99.399 525.455 99.3685 525.424C99.277 525.363 99.1855 525.302 99.094 525.241C98.8195 525.058 98.545 524.875 98.2705 524.692C98.179 524.631 98.0875 524.57 97.996 524.509C97.9045 524.448 97.813 524.387 97.7215 524.326C97.63 524.265 97.5385 524.204 97.447 524.143C96.2575 523.35 95.068 522.435 94.031 521.398C93.909 521.276 93.787 521.154 93.665 521.032C93.5125 520.849 93.36 520.697 93.2075 520.514C93.0245 520.3 92.8415 520.056 92.689 519.843C92.628 519.751 92.567 519.66 92.506 519.568C92.445 519.477 92.384 519.385 92.323 519.294C92.2925 519.233 92.2315 519.141 92.201 519.08C92.1705 519.019 92.1095 518.928 92.079 518.867C92.0485 518.836 92.0485 518.775 92.018 518.745L91.9875 518.684V518.653C91.9875 518.623 91.957 518.623 91.957 518.592C91.9265 518.531 91.896 518.501 91.8655 518.44C91.8655 518.409 91.835 518.379 91.835 518.348C91.8045 518.257 91.774 518.196 91.713 518.104C91.652 517.952 91.591 517.769 91.53 517.616C91.53 517.616 91.53 517.616 91.53 517.586C91.4995 517.494 91.469 517.433 91.4385 517.342C91.408 517.22 91.3775 517.098 91.347 516.976C91.3165 516.884 91.3165 516.793 91.286 516.701C91.286 516.671 91.286 516.64 91.2555 516.61C91.225 516.518 91.225 516.396 91.1945 516.305V516.274C90.92 514.414 91.3165 512.248 92.8415 509.747C101.016 500.201 115.747 529.725 120.2 528.535C125.385 525.76 111.63 514.048 125.172 513.926C138.592 515.908 130.265 536.404 134.139 536.892C138.317 538.57 139.263 528.901 144.173 531.463C144.631 531.707 145.149 532.043 145.668 532.531C148.291 534.727 147.162 538.265 145.759 541.864C145.119 543.511 144.417 545.158 143.96 546.683C143.289 549.031 143.228 551.105 144.997 552.478C146.369 552.966 147.04 551.929 147.589 550.404C148.108 548.909 148.504 546.957 149.328 545.402C150.304 543.541 151.859 542.321 154.94 543.358C160.613 545.524 156.221 554.43 154.543 561.201C153.75 564.403 153.537 567.148 155.306 568.46C155.946 569.131 156.617 568.582 157.319 567.514C158.63 565.562 160.094 561.872 162.016 560.743C162.87 560.255 163.815 560.255 164.883 561.17C165.767 562.116 166.286 563.397 166.53 564.891C166.56 565.166 166.621 565.471 166.621 565.776C166.774 566.965 166.713 568.216 166.56 569.558Z" fill="#4690B6"/>
<path fill-rule="evenodd" clip-rule="evenodd" d="M240.156 530.701C240.126 530.823 240.065 530.945 240.034 531.067C240.034 531.067 240.034 531.067 240.034 531.097C240.004 531.158 240.004 531.219 239.973 531.28C239.912 531.402 239.882 531.524 239.821 531.646C239.79 531.707 239.76 531.768 239.76 531.799C239.729 531.86 239.699 531.951 239.668 532.012C239.638 532.104 239.577 532.195 239.516 532.256C239.455 532.348 239.424 532.409 239.363 532.5C239.302 532.592 239.272 532.653 239.211 532.744C239.15 532.805 239.119 532.866 239.058 532.958C238.845 533.263 238.601 533.537 238.357 533.812C238.326 533.873 238.265 533.903 238.235 533.934C238.204 533.964 238.143 534.025 238.113 534.056C237.838 534.33 237.564 534.574 237.259 534.788C236.954 535.032 236.649 535.245 236.313 535.459C236.191 535.55 236.039 535.642 235.917 535.703C235.764 535.794 235.642 535.855 235.49 535.947C234.3 536.618 233.019 537.136 231.769 537.594C231.525 537.685 231.281 537.777 231.037 537.868C230.915 537.899 230.793 537.96 230.671 537.99C230.427 538.082 230.183 538.143 229.969 538.234C229.085 538.539 228.261 538.783 227.56 539.058C227.407 539.119 227.285 539.149 227.163 539.21C227.133 539.241 227.072 539.241 227.041 539.271C226.95 539.302 226.858 539.332 226.797 539.393C226.706 539.424 226.645 539.454 226.553 539.515C226.462 539.546 226.401 539.576 226.34 539.637C226.248 539.698 226.126 539.759 226.035 539.82C225.852 539.942 225.699 540.064 225.577 540.186C225.547 540.217 225.486 540.278 225.455 540.308C225.242 540.552 225.15 540.796 225.181 541.071C226.187 544.67 238.326 540.308 236.71 547.903C232.043 556.046 211.212 547.903 210.327 550.739C209.534 552.752 221.155 556.809 216.397 560.408C209.443 565.654 193.674 555.04 191.021 558.029C184.311 564.861 205.539 567.85 198.524 572.791C193.583 576.634 181.901 572.486 178.028 575.017C176.259 576.298 185.409 578.067 182.755 581.849C180.712 584.198 177.448 586.089 174.093 588.102H158.752C160.429 585.631 162.29 583.13 164.303 580.599C166.59 577.732 169.061 574.865 171.745 571.967C177.448 565.806 184.036 559.676 191.326 553.789C208.223 540.156 225.699 530.579 240.217 526.156C240.614 527.895 240.553 529.389 240.156 530.701Z" fill="#69AACB"/>
<path fill-rule="evenodd" clip-rule="evenodd" d="M174.246 530.121C174.825 532.103 185.439 528.565 185.104 533.232C185.073 533.445 185.043 533.72 184.982 533.964C184.402 536.16 182.694 537.868 180.468 539.271C178.516 540.521 176.137 541.528 173.819 542.382C171.806 543.144 169.823 543.815 168.146 544.486C165.523 545.523 163.632 546.499 163.571 547.75C163.235 550.769 164.852 551.745 167.17 551.928C170.25 552.172 174.52 551.044 176.96 551.44C178.119 551.623 178.851 552.203 178.821 553.423C178.821 553.789 178.729 554.185 178.607 554.673C177.479 559.187 170.677 562.542 166.682 565.775C165.309 566.873 164.272 567.971 163.876 569.1C163.632 569.984 164.943 569.74 166.59 569.527C168.847 569.222 171.653 568.917 171.806 571.57C171.806 571.662 171.806 571.784 171.775 571.875C171.44 576.633 168.268 582.276 166.865 588.01H156.617C156.373 581.666 156.586 574.773 157.318 567.544C157.684 563.976 158.142 560.346 158.752 556.656C159.423 552.569 160.216 548.421 161.192 544.242C166.041 523.106 173.849 504.775 182.542 492.301C182.877 492.575 183.152 492.85 183.426 493.124C183.487 493.185 183.518 493.216 183.579 493.277C183.762 493.49 183.945 493.704 184.128 493.917C184.189 493.978 184.25 494.07 184.28 494.131C184.341 494.192 184.402 494.283 184.433 494.344C184.494 494.405 184.524 494.466 184.555 494.527C184.555 494.558 184.585 494.558 184.585 494.588C184.646 494.649 184.677 494.741 184.707 494.802C184.738 494.863 184.768 494.924 184.829 494.985C184.89 495.076 184.921 495.168 184.982 495.259C185.012 495.32 185.043 495.412 185.104 495.473C185.195 495.656 185.256 495.808 185.317 495.991C185.348 496.052 185.378 496.113 185.409 496.205C185.439 496.266 185.439 496.327 185.47 496.388C185.5 496.479 185.531 496.571 185.561 496.662C185.592 496.754 185.592 496.815 185.622 496.906C185.622 496.906 185.622 496.906 185.622 496.937C185.653 496.998 185.653 497.089 185.683 497.15C185.714 497.242 185.714 497.303 185.744 497.394C185.744 497.486 185.775 497.547 185.775 497.608C185.775 497.699 185.805 497.76 185.805 497.821C185.805 497.882 185.836 497.974 185.836 498.035C185.836 498.065 185.836 498.065 185.836 498.096C185.836 498.157 185.836 498.248 185.866 498.309C185.866 498.37 185.866 498.431 185.866 498.462C185.897 499.102 185.836 499.743 185.714 500.383C185.561 501.176 185.317 502 185.012 502.762C184.951 502.915 184.89 503.037 184.829 503.189C184.768 503.342 184.707 503.464 184.646 503.616C184.524 503.891 184.372 504.165 184.25 504.44C184.128 504.653 184.036 504.836 183.914 505.05C183.853 505.172 183.762 505.324 183.701 505.446C182.725 507.154 181.596 508.74 180.803 510.052C180.59 510.418 180.376 510.723 180.224 511.028C180.163 511.15 180.102 511.302 180.041 511.424C180.01 511.516 179.949 511.577 179.919 511.668C179.888 511.76 179.858 511.821 179.827 511.912C179.797 511.973 179.797 512.004 179.766 512.065C179.644 512.461 179.614 512.797 179.736 513.041C179.766 513.102 179.797 513.163 179.827 513.193C179.858 513.254 179.888 513.285 179.949 513.346C182.938 515.542 189.801 504.623 193.247 511.577C194.589 520.849 173.178 527.345 174.246 530.121Z" fill="#69AACB"/>
<path fill-rule="evenodd" clip-rule="evenodd" d="M154.939 588.04H141.977C138.988 584.929 135.877 582.093 134.321 579.043C133.406 576.664 135.816 575.749 137.951 575.139C139.659 574.62 141.184 574.315 140.574 573.553C139.75 572.668 138.317 572.089 136.548 571.631C131.576 570.32 124.073 570.015 121.237 566.385C115.655 559.889 136.975 562.176 132.125 553.911C130.295 550.342 112.422 556.808 106.963 550.007C103.211 545.371 115.472 544.273 115.198 542.138C115.045 539.179 92.8108 541.955 90.2793 532.957C90.5843 525.21 101.29 532.378 103.15 529.145C103.333 528.687 103.089 528.23 102.632 527.742C102.601 527.711 102.601 527.681 102.571 527.681C102.174 527.284 101.656 526.888 101.015 526.461C100.924 526.4 100.863 526.369 100.771 526.308C100.619 526.217 100.466 526.095 100.283 526.003C100.222 525.973 100.161 525.912 100.1 525.881C99.9783 525.82 99.8563 525.729 99.7343 525.668C99.6733 525.607 99.5818 525.576 99.5208 525.515C99.4903 525.485 99.4293 525.454 99.3988 525.424C99.3073 525.363 99.2158 525.302 99.1243 525.241C98.8498 525.058 98.5753 524.875 98.3008 524.692C98.2093 524.631 98.1178 524.57 98.0263 524.509C97.9348 524.448 97.8433 524.387 97.7518 524.326C97.6603 524.265 97.5688 524.204 97.4773 524.143C96.2878 523.35 95.0983 522.435 94.0613 521.398C93.9393 521.276 93.8173 521.154 93.6953 521.032C93.5428 520.849 93.3903 520.696 93.2378 520.513C93.0548 520.3 92.8718 520.056 92.7193 519.842C92.6583 519.751 92.5973 519.659 92.5363 519.568C92.4753 519.476 92.4143 519.385 92.3533 519.293C92.3228 519.232 92.2618 519.141 92.2313 519.08C92.2008 519.019 92.1398 518.927 92.1093 518.866C92.0788 518.836 92.0788 518.775 92.0483 518.744L92.0178 518.683C92.0178 518.653 91.9873 518.622 91.9873 518.592C91.9568 518.531 91.9263 518.5 91.8958 518.439C91.8958 518.409 91.8653 518.378 91.8653 518.348C91.8348 518.256 91.8043 518.195 91.7433 518.104C91.6823 517.951 91.6213 517.768 91.5603 517.616C91.5603 517.616 91.5603 517.616 91.5603 517.585C91.5298 517.494 91.4993 517.433 91.4688 517.341C90.9198 515.542 91.0113 513.437 92.2008 510.967C105.224 518.805 119.834 532.347 132.857 549.702C138.164 556.747 142.77 563.854 146.674 570.808C149.114 575.139 151.249 579.439 153.079 583.587C153.719 585.112 154.36 586.576 154.939 588.04Z" fill="#69AACB"/>
<path fill-rule="evenodd" clip-rule="evenodd" d="M340.136 588.405C340.35 587.155 340.655 585.965 341.021 584.776C341.448 587.399 341.692 590.083 341.783 592.767C341.326 591.272 340.777 589.839 340.136 588.405ZM70.5774 588.405C70.8214 587.155 71.1264 585.965 71.4619 584.776C71.8889 587.399 72.1329 590.083 72.2854 592.767C71.8279 591.272 71.2789 589.839 70.5774 588.405ZM209.352 588.405C209.596 587.155 209.901 585.965 210.237 584.776C210.664 587.399 210.908 590.083 211.06 592.767C210.603 591.272 210.054 589.839 209.352 588.405ZM275.964 588.405C275.751 587.155 275.446 585.965 275.08 584.776C274.653 587.399 274.409 590.083 274.317 592.767C274.714 591.272 275.293 589.839 275.964 588.405ZM271.938 577.395C270.993 575.717 269.895 574.009 268.553 572.332C267.668 575.29 266.997 578.249 266.54 581.268C267.302 582.763 268.004 584.288 268.553 585.874C269.498 583.007 270.627 580.17 271.938 577.395ZM268.675 571.966C270.139 573.216 271.45 574.558 272.67 575.931C273.951 573.43 275.354 571.051 277.032 568.763C276.361 567.848 275.659 566.933 274.897 566.079C275.781 566.75 276.666 567.452 277.428 568.184C279.868 564.89 282.735 561.718 286.121 558.912C286.883 557.417 287.707 555.953 288.591 554.459C288.164 555.618 287.768 556.716 287.432 557.814C287.554 557.722 287.646 557.661 287.737 557.57C287.615 557.722 287.524 557.844 287.402 557.997C285.297 564.707 284.443 570.807 284.535 576.541C285.816 578.493 286.883 580.506 287.829 582.519C288.652 578.035 289.933 573.491 291.824 569.038C291.092 568.092 290.33 567.086 289.476 566.079C290.421 566.811 291.306 567.574 292.16 568.336C293.227 565.896 294.478 563.517 295.972 561.169C295.088 559.979 294.173 558.79 293.136 557.57C294.295 558.485 295.393 559.43 296.46 560.406C297.65 558.576 298.931 556.807 300.456 555.038C299.297 557.204 298.26 559.247 297.467 561.291C299.022 562.816 300.456 564.402 301.798 565.988C303.201 563.639 304.848 561.352 306.586 559.095C304.787 555.984 302.652 552.842 300.09 549.64C303.079 552.08 305.702 554.672 308.05 557.387C310.399 554.672 313.052 552.08 316.041 549.64C313.479 552.842 311.344 556.014 309.484 559.095C311.283 561.352 312.9 563.639 314.333 565.988C315.675 564.402 317.109 562.846 318.664 561.291C317.81 559.247 316.834 557.173 315.675 555.038C317.139 556.807 318.451 558.576 319.671 560.406C320.738 559.461 321.867 558.485 322.995 557.57C321.958 558.759 321.013 559.949 320.159 561.169C321.653 563.517 322.904 565.896 323.971 568.336C324.825 567.574 325.74 566.811 326.655 566.079C325.801 567.086 325.039 568.092 324.307 569.038C326.198 573.491 327.479 578.035 328.302 582.519C329.248 580.506 330.315 578.493 331.596 576.541C331.688 570.807 330.834 564.676 328.729 557.997C328.607 557.844 328.485 557.722 328.394 557.57C328.485 557.661 328.577 557.722 328.699 557.814C328.302 556.716 327.936 555.618 327.54 554.459C328.424 555.953 329.248 557.417 330.01 558.912C333.396 561.748 336.263 564.89 338.672 568.184C339.496 567.452 340.35 566.75 341.234 566.079C340.472 566.933 339.74 567.848 339.099 568.763C340.777 571.051 342.18 573.46 343.43 575.931C344.62 574.558 345.962 573.216 347.456 571.966C345.138 564.554 341.387 557.143 335.348 549.64C344.04 556.716 349.896 565.286 353.892 574.284C354.837 573.033 355.813 571.844 356.881 570.654C355.783 565.683 353.892 560.528 350.933 555.069C354.471 559.339 357.186 563.761 359.229 568.367C360.083 567.604 360.937 566.842 361.883 566.11C361.059 567.116 360.266 568.123 359.534 569.068C361.456 573.521 362.706 578.066 363.53 582.549C364.475 580.536 365.573 578.523 366.824 576.571C366.824 576.48 366.824 576.327 366.824 576.236C365.756 574.467 364.475 572.698 363.011 570.868C364.384 571.966 365.665 573.125 366.824 574.314C366.641 568.184 365.451 561.626 362.767 554.459C366.366 560.284 368.715 566.262 370.087 572.21C370.972 571.173 371.917 570.166 372.924 569.16C372.192 568.153 371.368 567.116 370.514 566.11C371.582 566.933 372.558 567.726 373.503 568.641C374.388 567.726 375.425 566.933 376.462 566.11C375.608 567.116 374.784 568.153 374.052 569.16C375.089 570.166 376.035 571.173 376.889 572.21C378.292 566.293 380.61 560.315 384.209 554.459C381.555 561.626 380.305 568.184 380.152 574.314C381.342 573.125 382.592 571.966 383.995 570.868C382.501 572.698 381.22 574.467 380.152 576.236C380.152 576.327 380.152 576.48 380.152 576.571C381.433 578.523 382.501 580.536 383.446 582.549C384.27 578.066 385.49 573.521 387.442 569.068C386.71 568.123 385.947 567.116 385.093 566.11C386.039 566.842 386.923 567.604 387.747 568.367C389.79 563.761 392.505 559.339 396.104 555.069C393.115 560.528 391.224 565.683 390.126 570.654C391.193 571.844 392.23 573.033 393.115 574.284C397.11 565.286 402.966 556.746 411.689 549.64C405.65 557.143 401.838 564.554 399.581 571.966C401.045 573.216 402.356 574.558 403.576 575.931C404.827 573.43 406.26 571.051 407.907 568.763C407.267 567.848 406.535 566.933 405.803 566.079C406.657 566.75 407.511 567.452 408.334 568.184C410.744 564.89 413.611 561.718 417.027 558.912C417.759 557.417 418.613 555.953 419.497 554.459C419.07 555.618 418.674 556.716 418.338 557.814C418.43 557.722 418.521 557.661 418.643 557.57C418.521 557.722 418.399 557.844 418.247 557.997C416.142 564.707 415.349 570.807 415.41 576.541C416.661 578.493 417.759 580.506 418.704 582.519C419.467 578.035 420.748 573.491 422.639 569.038C421.907 568.092 421.144 567.086 420.321 566.079C421.205 566.811 422.12 567.574 422.974 568.336C424.987 563.731 427.732 559.308 431.27 555.038C428.312 560.498 426.39 565.652 425.323 570.624C426.39 571.813 427.366 573.003 428.312 574.253C430.203 569.983 432.46 565.835 435.327 561.87C434.29 560.437 433.192 559.003 432.002 557.57C433.405 558.668 434.747 559.827 435.998 561.016C437.828 558.515 439.902 556.136 442.159 553.879C441.183 552.446 440.115 551.043 438.956 549.609C440.359 550.768 441.64 551.897 442.952 553.086C444.202 551.897 445.514 550.738 446.886 549.609C445.727 551.043 444.69 552.446 443.714 553.879C445.971 556.136 447.984 558.515 449.845 561.016C451.095 559.827 452.407 558.668 453.84 557.57C452.651 559.003 451.522 560.437 450.516 561.87C453.383 565.835 455.701 570.014 457.592 574.253C458.476 573.003 459.483 571.813 460.581 570.624C459.483 565.652 457.531 560.498 454.603 555.038C458.202 559.308 460.886 563.731 462.899 568.336C463.753 567.574 464.668 566.811 465.583 566.079C464.729 567.086 463.966 568.092 463.234 569.038C465.125 573.491 466.406 578.035 467.23 582.519C468.175 580.506 469.243 578.493 470.524 576.541C470.615 570.807 469.761 564.676 467.657 557.997C467.535 557.844 467.413 557.722 467.321 557.57C467.413 557.661 467.504 557.722 467.626 557.814C467.23 556.716 466.864 555.618 466.467 554.459C467.352 555.953 468.175 557.417 468.938 558.912C472.323 561.748 475.19 564.89 477.6 568.184C478.423 567.452 479.277 566.75 480.162 566.079C479.399 566.933 478.698 567.848 478.027 568.763C479.704 571.051 481.107 573.46 482.388 575.931C483.547 574.558 484.859 573.216 486.384 571.966C484.066 564.554 480.314 557.143 474.275 549.64C482.968 556.716 488.824 565.286 492.819 574.284C493.765 573.033 494.741 571.844 495.808 570.654C494.71 565.683 492.819 560.528 489.861 555.069C493.399 559.339 496.113 563.761 498.157 568.367C499.011 567.604 499.865 566.842 500.81 566.11C499.987 567.116 499.194 568.123 498.462 569.068C500.383 573.521 501.634 578.066 502.457 582.549C503.403 580.536 504.501 578.523 505.751 576.571C505.751 576.48 505.751 576.327 505.751 576.236C504.684 574.467 503.403 572.698 501.939 570.868C503.311 571.966 504.592 573.125 505.751 574.314C505.568 568.184 504.379 561.626 501.695 554.459C505.294 560.284 507.642 566.262 509.015 572.21C509.899 571.173 510.845 570.166 511.851 569.16C511.119 568.153 510.296 567.116 509.442 566.11C510.509 566.933 511.485 567.726 512.431 568.641C513.376 567.726 514.352 566.933 515.389 566.11C514.535 567.116 513.712 568.153 512.98 569.16C514.017 570.166 514.962 571.173 515.816 572.21C517.219 566.293 519.537 560.315 523.136 554.459C520.483 561.626 519.232 568.184 519.08 574.314C520.269 573.125 521.52 571.966 522.923 570.868C521.428 572.698 520.147 574.467 519.08 576.236C519.08 576.327 519.08 576.48 519.08 576.571C520.361 578.523 521.428 580.536 522.374 582.549C523.197 578.066 524.478 573.521 526.369 569.068C525.637 568.123 524.875 567.116 524.021 566.11C524.966 566.842 525.851 567.604 526.674 568.367C528.718 563.761 531.432 559.339 535.031 555.069C532.042 560.528 530.151 565.683 529.053 570.654C530.121 571.844 531.158 573.033 532.042 574.284C536.038 565.286 541.894 556.746 550.617 549.64C544.578 557.143 540.765 564.554 538.508 571.966C539.972 573.216 541.284 574.558 542.504 575.931C543.754 573.43 545.188 571.051 546.835 568.763C546.194 567.848 545.462 566.933 544.73 566.079C545.584 566.75 546.438 567.452 547.262 568.184C549.671 564.89 552.538 561.718 555.954 558.912C556.686 557.417 557.54 555.953 558.425 554.459C557.998 555.618 557.601 556.716 557.266 557.814C557.357 557.722 557.449 557.661 557.571 557.57C557.449 557.722 557.327 557.844 557.174 557.997C555.07 564.707 554.277 570.807 554.338 576.541C555.588 578.493 556.686 580.506 557.632 582.519C558.394 578.035 559.675 573.491 561.566 569.038C560.834 568.092 560.072 567.086 559.248 566.079C560.133 566.811 561.048 567.574 561.902 568.336C563.915 563.731 566.66 559.308 570.198 555.038C567.239 560.498 565.318 565.652 564.25 570.624C565.318 571.813 566.294 573.003 567.239 574.253C571.174 565.256 577.091 556.716 585.783 549.609C577.213 560.284 573.156 570.715 571.54 581.268C572.302 582.763 572.943 584.288 573.553 585.874C576.877 575.534 582.672 565.408 592.737 557.57C582.886 569.282 579.775 580.872 579.256 592.767C581.025 587.307 584.014 581.909 589.352 577.761C585.112 582.793 583.282 587.795 582.581 592.919H33.7639C33.0929 587.795 31.2324 582.793 26.9929 577.761C32.2999 581.909 35.3499 587.338 37.0579 592.767C36.5394 580.872 33.4284 569.282 23.6074 557.57C33.6724 565.408 39.4064 575.565 42.7919 585.874C43.3409 584.288 44.0424 582.763 44.8049 581.268C43.1884 570.685 39.1014 560.284 30.5614 549.609C39.2539 556.685 45.1709 565.256 49.1054 574.253C50.0509 573.003 51.0269 571.813 52.0944 570.624C50.9964 565.652 49.1054 560.498 46.1469 555.038C49.6849 559.308 52.3994 563.731 54.4429 568.336C55.2969 567.574 56.1509 566.811 57.0964 566.079C56.2729 567.086 55.4799 568.092 54.7479 569.038C56.6694 573.491 57.9199 578.035 58.7434 582.519C59.6889 580.506 60.7869 578.493 62.0374 576.541C62.1289 570.807 61.3054 564.676 59.2009 557.997C59.0789 557.844 58.9569 557.722 58.8044 557.57C58.9264 557.661 59.0179 557.722 59.1094 557.814C58.7739 556.716 58.3774 555.618 57.9504 554.459C58.8349 555.953 59.7194 557.417 60.4209 558.912C63.8064 561.748 66.6734 564.89 69.1134 568.184C69.9369 567.452 70.7909 566.75 71.6449 566.079C70.9129 566.933 70.1809 567.848 69.5404 568.763C71.1569 571.051 72.6209 573.46 73.8714 575.931C75.0609 574.558 76.4029 573.216 77.8669 571.966C75.6099 564.554 71.7974 557.143 65.7584 549.64C74.4814 556.716 80.3679 565.286 84.3329 574.284C85.2174 573.033 86.2239 571.844 87.3219 570.654C86.2239 565.683 84.3329 560.528 81.3439 555.069C84.9429 559.339 87.6269 563.761 89.6399 568.367C90.4939 567.604 91.4089 566.842 92.3239 566.11C91.4699 567.116 90.7074 568.123 89.9754 569.068C91.8664 573.521 93.1474 578.066 93.9709 582.549C94.9164 580.536 95.9839 578.523 97.2649 576.571C97.2649 576.48 97.2649 576.327 97.2649 576.236C96.1974 574.467 94.9164 572.698 93.4219 570.868C94.8249 571.966 96.0754 573.125 97.2344 574.314C97.0514 568.184 95.8619 561.626 93.2084 554.459C96.8074 560.284 99.1254 566.262 100.528 572.21C101.382 571.173 102.328 570.166 103.365 569.16C102.633 568.153 101.809 567.116 100.955 566.11C101.992 566.933 102.968 567.726 103.914 568.641C104.859 567.726 105.835 566.933 106.903 566.11C106.049 567.116 105.225 568.153 104.493 569.16C105.469 570.166 106.415 571.173 107.33 572.21C108.702 566.293 111.051 560.315 114.65 554.459C111.966 561.626 110.746 568.184 110.593 574.314C111.752 573.125 113.033 571.966 114.406 570.868C112.911 572.698 111.661 574.467 110.593 576.236C110.593 576.327 110.593 576.48 110.593 576.571C111.844 578.523 112.942 580.536 113.887 582.549C114.65 578.066 115.931 573.521 117.822 569.068C117.151 568.123 116.327 567.116 115.504 566.11C116.449 566.842 117.303 567.604 118.157 568.367C120.201 563.761 122.915 559.339 126.453 555.069C123.495 560.528 121.573 565.683 120.506 570.654C121.573 571.844 122.549 573.033 123.495 574.284C127.429 565.286 133.346 556.746 142.039 549.64C136 557.143 132.187 564.554 129.93 571.966C131.394 573.216 132.706 574.558 133.926 575.931C135.207 573.43 136.61 571.051 138.287 568.763C137.616 567.848 136.915 566.933 136.152 566.079C137.037 566.75 137.921 567.452 138.684 568.184C141.124 564.89 143.991 561.718 147.376 558.912C148.139 557.417 148.962 555.953 149.847 554.459C149.42 555.618 149.023 556.716 148.688 557.814C148.81 557.722 148.901 557.661 148.993 557.57C148.871 557.722 148.779 557.844 148.657 557.997C146.553 564.707 145.699 570.807 145.79 576.541C147.071 578.493 148.139 580.506 149.084 582.519C149.908 578.035 151.189 573.491 153.08 569.038C152.348 568.092 151.585 567.086 150.731 566.079C151.677 566.811 152.561 567.574 153.415 568.336C155.428 563.731 158.112 559.308 161.711 555.038C158.722 560.498 156.831 565.652 155.733 570.624C156.801 571.813 157.838 573.003 158.722 574.253C160.613 569.983 162.931 565.835 165.737 561.87C164.761 560.437 163.633 559.003 162.443 557.57C163.846 558.668 165.188 559.827 166.439 561.016C168.238 558.515 170.282 556.136 172.569 553.879C171.593 552.446 170.526 551.043 169.397 549.609C170.77 550.768 172.081 551.897 173.332 553.086C174.582 551.897 175.894 550.738 177.327 549.609C176.168 551.043 175.101 552.446 174.125 553.879C176.382 556.136 178.456 558.515 180.286 561.016C181.536 559.827 182.848 558.668 184.281 557.57C183.092 559.003 181.963 560.437 180.957 561.87C183.793 565.835 186.081 570.014 187.972 574.253C188.917 573.003 189.893 571.813 190.961 570.624C189.893 565.652 187.972 560.498 185.013 555.038C188.551 559.308 191.266 563.731 193.309 568.336C194.163 567.574 195.017 566.811 195.963 566.079C195.139 567.086 194.346 568.092 193.614 569.038C195.536 573.491 196.786 578.035 197.61 582.519C198.555 580.506 199.653 578.493 200.904 576.541C200.995 570.807 200.172 564.676 198.067 557.997C197.945 557.844 197.823 557.722 197.671 557.57C197.793 557.661 197.884 557.722 197.976 557.814C197.64 556.716 197.244 555.618 196.817 554.459C197.701 555.953 198.586 557.417 199.287 558.912C202.673 561.748 205.54 564.89 207.98 568.184C208.803 567.452 209.657 566.75 210.511 566.079C209.779 566.933 209.047 567.848 208.407 568.763C210.023 571.051 211.487 573.46 212.738 575.931C213.927 574.558 215.269 573.216 216.733 571.966C214.476 564.554 210.664 557.143 204.625 549.64C213.348 556.716 219.234 565.286 223.199 574.284C224.084 573.033 225.121 571.844 226.188 570.654C225.09 565.683 223.199 560.528 220.21 555.069C223.809 559.339 226.493 563.761 228.506 568.367C229.36 567.604 230.275 566.842 231.19 566.11C230.336 567.116 229.574 568.123 228.842 569.068C230.733 573.521 232.014 578.066 232.837 582.549C233.783 580.536 234.85 578.523 236.131 576.571C236.131 576.48 236.131 576.327 236.131 576.236C235.064 574.467 233.783 572.698 232.288 570.868C233.691 571.966 234.942 573.125 236.101 574.314C235.918 568.184 234.728 561.626 232.075 554.459C235.674 560.284 237.992 566.262 239.395 572.21C240.249 571.173 241.194 570.166 242.231 569.16C241.499 568.153 240.676 567.116 239.822 566.11C240.859 566.933 241.835 567.726 242.78 568.641C243.726 567.726 244.702 566.933 245.769 566.11C244.915 567.116 244.092 568.153 243.36 569.16C244.336 570.166 245.281 571.173 246.196 572.21C247.569 566.293 249.917 560.315 253.516 554.459C250.832 561.626 249.612 568.184 249.46 574.314C250.619 573.125 251.9 571.966 253.272 570.868C251.778 572.698 250.527 574.467 249.46 576.236C249.46 576.327 249.46 576.48 249.46 576.571C250.71 578.523 251.808 580.536 252.754 582.549C253.577 578.066 254.797 573.521 256.749 569.068C256.017 568.123 255.194 567.116 254.401 566.11C255.346 566.842 256.2 567.604 257.054 568.367C259.098 563.761 261.812 559.339 265.35 555.069C262.392 560.528 260.47 565.683 259.403 570.654C260.47 571.844 261.446 573.033 262.392 574.284C266.326 565.286 272.243 556.746 280.936 549.64C274.775 557.112 270.962 564.524 268.675 571.966ZM296.948 562.541C295.881 565.317 295.057 568.001 294.478 570.624C295.545 571.813 296.582 573.003 297.467 574.253C298.351 572.24 299.358 570.288 300.425 568.336C299.388 566.415 298.26 564.493 296.948 562.541ZM308.02 561.779C306.647 564.463 305.549 567.147 304.604 569.8C305.885 571.722 307.013 573.613 308.02 575.595C309.057 573.643 310.216 571.722 311.497 569.8C310.551 567.116 309.453 564.432 308.02 561.779ZM303.14 574.528C302.591 576.785 302.103 579.011 301.767 581.268C302.53 582.763 303.17 584.288 303.78 585.874C304.207 584.501 304.726 583.098 305.244 581.756C304.726 579.377 304.055 576.937 303.14 574.528ZM319.152 562.541C317.81 564.493 316.682 566.415 315.675 568.336C316.743 570.288 317.719 572.271 318.634 574.253C319.518 573.003 320.525 571.813 321.623 570.624C321.043 567.97 320.22 565.317 319.152 562.541ZM312.9 574.528C312.046 576.907 311.344 579.347 310.856 581.756C311.375 583.098 311.893 584.471 312.32 585.874C312.93 584.288 313.571 582.763 314.333 581.268C313.967 579.042 313.51 576.785 312.9 574.528ZM171.898 589.503C171.685 588.68 171.471 587.887 171.166 587.063C170.953 588.924 170.77 590.845 170.709 592.767C171.044 591.669 171.441 590.601 171.898 589.503ZM167.323 579.713C166.866 579.042 166.347 578.371 165.768 577.761C166.378 578.249 166.957 578.706 167.537 579.255C168.635 576.754 169.885 574.314 171.349 571.935C170.373 569.587 169.153 567.299 167.75 565.012C165.31 570.41 163.846 575.87 162.992 581.329C163.755 582.824 164.395 584.349 165.005 585.935C165.646 583.8 166.439 581.756 167.323 579.713ZM171.654 583.952C172.264 584.806 172.813 585.721 173.271 586.636C173.789 585.721 174.338 584.806 174.948 583.952C174.521 581.665 174.003 579.347 173.271 577.059C172.6 579.377 172.02 581.665 171.654 583.952ZM174.674 589.503C175.101 590.601 175.497 591.669 175.833 592.767C175.741 590.845 175.619 588.954 175.406 587.063C175.101 587.887 174.857 588.68 174.674 589.503ZM168.574 563.212C170.343 565.073 171.868 566.994 173.271 569.007C174.674 566.994 176.26 565.073 177.968 563.212C176.687 560.498 175.101 557.753 173.271 554.977C171.441 557.753 169.885 560.467 168.574 563.212ZM175.192 571.905C176.656 574.284 177.937 576.724 179.035 579.225C179.584 578.706 180.133 578.218 180.804 577.73C180.255 578.34 179.737 579.011 179.249 579.682C180.103 581.726 180.865 583.8 181.567 585.843C182.116 584.257 182.817 582.732 183.58 581.238C182.726 575.778 181.231 570.319 178.822 564.92C177.388 567.269 176.199 569.556 175.192 571.905ZM240.615 580.079C241.377 581.238 242.079 582.427 242.658 583.617C243.299 582.427 244 581.238 244.763 580.079C244.946 578.31 245.19 576.48 245.525 574.711C244.702 573.094 243.756 571.508 242.658 569.922C241.591 571.508 240.645 573.064 239.791 574.711C240.127 576.48 240.401 578.31 240.615 580.079ZM275.964 580.323C276.818 581.604 277.55 582.946 278.221 584.349C278.679 583.617 279.197 582.976 279.716 582.305C279.929 579.804 280.234 577.273 280.753 574.741C280.204 573.704 279.594 572.576 278.923 571.539C277.642 574.436 276.696 577.364 275.964 580.323ZM279.167 586.453C279.289 586.728 279.411 587.033 279.563 587.277C279.563 586.697 279.563 586.087 279.594 585.447C279.441 585.782 279.319 586.118 279.167 586.453ZM279.533 570.227C280.173 570.837 280.722 571.508 281.302 572.179C282.186 568.397 283.498 564.585 285.236 560.803C282.857 563.975 281.027 567.086 279.533 570.227ZM258.884 572.515C258.03 577.059 257.847 581.512 258.152 585.843C258.976 582.824 259.952 579.804 261.141 576.846C260.47 575.443 259.738 573.948 258.884 572.515ZM294.081 572.515C293.258 577.059 293.105 581.512 293.349 585.843C294.173 582.824 295.149 579.804 296.338 576.846C295.698 575.443 294.935 573.948 294.081 572.515ZM213.439 577.395C214.385 575.717 215.483 574.009 216.764 572.332C217.648 575.29 218.319 578.249 218.777 581.268C218.014 582.763 217.374 584.288 216.764 585.874C215.879 583.007 214.751 580.17 213.439 577.395ZM209.352 580.323C208.529 581.604 207.766 582.946 207.126 584.349C206.668 583.617 206.15 582.976 205.57 582.305C205.387 579.804 205.052 577.273 204.594 574.741C205.143 573.704 205.753 572.576 206.394 571.539C207.705 574.436 208.681 577.364 209.352 580.323ZM206.15 586.453C206.028 586.728 205.906 587.033 205.814 587.277C205.814 586.697 205.784 586.087 205.784 585.447C205.906 585.782 206.028 586.118 206.15 586.453ZM205.814 570.227C205.204 570.837 204.625 571.508 204.045 572.179C203.161 568.397 201.91 564.585 200.141 560.803C202.459 563.975 204.35 567.086 205.814 570.227ZM226.493 572.515C227.317 577.059 227.469 581.512 227.225 585.843C226.402 582.824 225.426 579.804 224.236 576.846C224.846 575.443 225.639 573.948 226.493 572.515ZM191.266 572.515C192.12 577.059 192.303 581.512 191.998 585.843C191.174 582.824 190.198 579.804 189.009 576.846C189.68 575.443 190.412 573.948 191.266 572.515ZM137.189 588.405C136.976 587.155 136.671 585.965 136.305 584.776C135.878 587.399 135.634 590.083 135.542 592.767C135.939 591.272 136.518 589.839 137.189 588.405ZM133.163 577.395C132.218 575.717 131.12 574.009 129.778 572.332C128.893 575.29 128.222 578.249 127.765 581.268C128.527 582.763 129.229 584.288 129.778 585.874C130.723 583.007 131.852 580.17 133.163 577.395ZM101.84 580.079C102.602 581.238 103.304 582.427 103.883 583.617C104.524 582.427 105.225 581.238 105.988 580.079C106.171 578.31 106.415 576.48 106.75 574.711C105.927 573.094 104.981 571.508 103.883 569.922C102.816 571.508 101.87 573.064 101.016 574.711C101.352 576.48 101.626 578.31 101.84 580.079ZM137.189 580.323C138.043 581.604 138.775 582.946 139.446 584.349C139.904 583.617 140.422 582.976 140.941 582.305C141.154 579.804 141.459 577.273 141.978 574.741C141.429 573.704 140.819 572.576 140.148 571.539C138.867 574.436 137.921 577.364 137.189 580.323ZM140.392 586.453C140.514 586.728 140.636 587.033 140.788 587.277C140.788 586.697 140.788 586.087 140.819 585.447C140.666 585.782 140.514 586.118 140.392 586.453ZM140.727 570.227C141.368 570.837 141.917 571.508 142.496 572.179C143.381 568.397 144.692 564.585 146.431 560.803C144.082 563.975 142.252 567.086 140.727 570.227ZM120.109 572.515C119.255 577.059 119.072 581.512 119.377 585.843C120.201 582.824 121.177 579.804 122.366 576.846C121.695 575.443 120.963 573.948 120.109 572.515ZM155.306 572.515C154.483 577.059 154.33 581.512 154.574 585.843C155.398 582.824 156.374 579.804 157.563 576.846C156.923 575.443 156.16 573.948 155.306 572.515ZM74.6339 577.395C75.5794 575.717 76.6774 574.009 77.9584 572.332C78.8429 575.29 79.5139 578.249 79.9714 581.268C79.2089 582.763 78.5684 584.288 77.9584 585.874C77.0739 583.007 75.9759 580.17 74.6339 577.395ZM70.5774 580.323C69.7539 581.604 68.9914 582.946 68.3204 584.349C67.8934 583.617 67.3749 582.976 66.8259 582.305C66.6429 579.804 66.3074 577.273 65.8499 574.741C66.3989 573.704 67.0089 572.576 67.6494 571.539C68.8999 574.436 69.9064 577.364 70.5774 580.323ZM67.3749 586.453C67.2529 586.728 67.1309 587.033 67.0394 587.277C67.0394 586.697 67.0089 586.087 67.0089 585.447C67.1004 585.782 67.2529 586.118 67.3749 586.453ZM67.0394 570.227C66.4294 570.837 65.8499 571.508 65.2704 572.179C64.3859 568.397 63.1354 564.585 61.3664 560.803C63.6844 563.975 65.5754 567.086 67.0394 570.227ZM87.7184 572.515C88.5419 577.059 88.6944 581.512 88.4504 585.843C87.6269 582.824 86.6509 579.804 85.4614 576.846C86.0714 575.443 86.8339 573.948 87.7184 572.515ZM52.4604 572.515C53.3144 577.059 53.4974 581.512 53.1924 585.843C52.3689 582.824 51.3929 579.804 50.2034 576.846C50.8439 575.443 51.6064 573.948 52.4604 572.515ZM478.911 588.405C479.125 587.155 479.43 585.965 479.796 584.776C480.223 587.399 480.467 590.083 480.558 592.767C480.101 591.272 479.552 589.839 478.911 588.405ZM545.462 588.405C545.249 587.155 544.944 585.965 544.578 584.776C544.151 587.399 543.937 590.083 543.815 592.767C544.273 591.272 544.822 589.839 545.462 588.405ZM541.467 577.395C540.521 575.717 539.423 574.009 538.142 572.332C537.258 575.29 536.587 578.249 536.129 581.268C536.861 582.763 537.532 584.288 538.142 585.874C539.027 583.007 540.125 580.17 541.467 577.395ZM441.427 589.503C441.244 588.68 441 587.887 440.695 587.063C440.481 588.924 440.298 590.845 440.237 592.767C440.573 591.669 441 590.601 441.427 589.503ZM436.821 579.713C436.364 579.042 435.845 578.371 435.266 577.761C435.906 578.249 436.455 578.706 437.035 579.255C438.133 576.754 439.444 574.314 440.878 571.935C439.902 569.587 438.682 567.299 437.248 565.012C434.839 570.41 433.344 575.87 432.49 581.329C433.253 582.824 433.893 584.349 434.503 585.935C435.205 583.8 435.967 581.756 436.821 579.713ZM441.152 583.952C441.762 584.806 442.311 585.721 442.83 586.636C443.287 585.721 443.867 584.806 444.446 583.952C444.05 581.665 443.501 579.347 442.83 577.059C442.098 579.377 441.579 581.665 441.152 583.952ZM444.202 589.503C444.66 590.601 445.056 591.669 445.392 592.767C445.3 590.845 445.148 588.954 444.934 587.063C444.629 587.887 444.416 588.68 444.202 589.503ZM438.072 563.212C439.841 565.073 441.396 566.994 442.83 569.007C444.233 566.994 445.788 565.073 447.527 563.212C446.185 560.498 444.66 557.753 442.83 554.977C441 557.753 439.414 560.467 438.072 563.212ZM444.721 571.905C446.215 574.284 447.466 576.724 448.564 579.225C449.113 578.706 449.723 578.218 450.333 577.73C449.784 578.34 449.265 579.011 448.777 579.682C449.631 581.726 450.394 583.8 451.095 585.843C451.705 584.257 452.346 582.732 453.108 581.238C452.254 575.778 450.79 570.319 448.35 564.92C446.947 567.269 445.727 569.556 444.721 571.905ZM510.113 580.079C510.875 581.238 511.577 582.427 512.217 583.617C512.827 582.427 513.498 581.238 514.261 580.079C514.444 578.31 514.718 576.48 515.084 574.711C514.23 573.094 513.285 571.508 512.217 569.922C511.119 571.508 510.174 573.064 509.35 574.711C509.686 576.48 509.96 578.31 510.113 580.079ZM545.462 580.323C546.316 581.604 547.079 582.946 547.719 584.349C548.177 583.617 548.695 582.976 549.275 582.305C549.458 579.804 549.793 577.273 550.251 574.741C549.702 573.704 549.092 572.576 548.451 571.539C547.201 574.436 546.194 577.364 545.462 580.323ZM548.726 586.453C548.848 586.728 548.939 587.033 549.061 587.277C549.061 586.697 549.061 586.087 549.092 585.447C549 585.782 548.848 586.118 548.726 586.453ZM549.061 570.227C549.671 570.837 550.251 571.508 550.83 572.179C551.715 568.397 552.965 564.585 554.734 560.803C552.416 563.975 550.525 567.086 549.061 570.227ZM528.382 572.515C527.559 577.059 527.406 581.512 527.65 585.843C528.474 582.824 529.45 579.804 530.639 576.846C530.029 575.443 529.267 573.948 528.382 572.515ZM563.64 572.515C562.786 577.059 562.603 581.512 562.878 585.843C563.732 582.824 564.708 579.804 565.928 576.846C565.196 575.443 564.494 573.948 563.64 572.515ZM482.937 577.395C483.883 575.717 484.981 574.009 486.323 572.332C487.177 575.29 487.878 578.249 488.305 581.268C487.573 582.763 486.902 584.288 486.323 585.874C485.377 583.007 484.249 580.17 482.937 577.395ZM478.911 580.323C478.057 581.604 477.325 582.946 476.654 584.349C476.197 583.617 475.678 582.976 475.099 582.305C474.916 579.804 474.641 577.273 474.123 574.741C474.672 573.704 475.282 572.576 475.953 571.539C477.234 574.436 478.179 577.364 478.911 580.323ZM475.709 586.453C475.587 586.728 475.465 587.033 475.312 587.277C475.312 586.697 475.312 586.087 475.282 585.447C475.434 585.782 475.587 586.118 475.709 586.453ZM475.373 570.227C474.733 570.837 474.184 571.508 473.604 572.179C472.72 568.397 471.408 564.585 469.67 560.803C471.988 563.975 473.848 567.086 475.373 570.227ZM495.991 572.515C496.845 577.059 497.028 581.512 496.723 585.843C495.9 582.824 494.924 579.804 493.734 576.846C494.375 575.443 495.137 573.948 495.991 572.515ZM460.794 572.515C461.618 577.059 461.77 581.512 461.526 585.843C460.703 582.824 459.696 579.804 458.537 576.846C459.178 575.443 459.91 573.948 460.794 572.515ZM406.687 588.405C406.474 587.155 406.169 585.965 405.803 584.776C405.376 587.399 405.162 590.083 405.04 592.767C405.498 591.272 406.047 589.839 406.687 588.405ZM402.661 577.395C401.716 575.717 400.618 574.009 399.337 572.332C398.452 575.29 397.781 578.249 397.324 581.268C398.056 582.763 398.727 584.288 399.337 585.874C400.221 583.007 401.35 580.17 402.661 577.395ZM371.338 580.079C372.1 581.238 372.802 582.427 373.442 583.617C374.052 582.427 374.723 581.238 375.486 580.079C375.669 578.31 375.943 576.48 376.309 574.711C375.455 573.094 374.51 571.508 373.442 569.922C372.344 571.508 371.399 573.064 370.575 574.711C370.911 576.48 371.155 578.31 371.338 580.079ZM406.687 580.323C407.541 581.604 408.304 582.946 408.944 584.349C409.402 583.617 409.92 582.976 410.5 582.305C410.683 579.804 411.018 577.273 411.476 574.741C410.927 573.704 410.317 572.576 409.676 571.539C408.395 574.436 407.419 577.364 406.687 580.323ZM409.951 586.453C410.073 586.728 410.164 587.033 410.286 587.277C410.286 586.697 410.286 586.087 410.317 585.447C410.195 585.782 410.073 586.118 409.951 586.453ZM410.286 570.227C410.896 570.837 411.476 571.508 412.055 572.179C412.909 568.397 414.19 564.585 415.959 560.803C413.641 563.975 411.75 567.086 410.286 570.227ZM389.607 572.515C388.784 577.059 388.631 581.512 388.875 585.843C389.699 582.824 390.675 579.804 391.864 576.846C391.254 575.443 390.461 573.948 389.607 572.515ZM424.835 572.515C423.981 577.059 423.798 581.512 424.072 585.843C424.926 582.824 425.902 579.804 427.122 576.846C426.421 575.443 425.689 573.948 424.835 572.515ZM344.162 577.395C345.108 575.717 346.206 574.009 347.548 572.332C348.402 575.29 349.103 578.249 349.53 581.268C348.798 582.763 348.127 584.288 347.548 585.874C346.602 583.007 345.474 580.17 344.162 577.395ZM340.136 580.323C339.282 581.604 338.55 582.946 337.879 584.349C337.422 583.617 336.903 582.976 336.324 582.305C336.141 579.804 335.866 577.273 335.348 574.741C335.897 573.704 336.507 572.576 337.178 571.539C338.459 574.436 339.404 577.364 340.136 580.323ZM336.934 586.453C336.812 586.728 336.69 587.033 336.537 587.277C336.537 586.697 336.537 586.087 336.507 585.447C336.659 585.782 336.781 586.118 336.934 586.453ZM336.568 570.227C335.927 570.837 335.378 571.508 334.799 572.179C333.914 568.397 332.603 564.585 330.864 560.803C333.213 563.975 335.073 567.086 336.568 570.227ZM357.216 572.515C358.04 577.059 358.253 581.512 357.948 585.843C357.125 582.824 356.149 579.804 354.959 576.846C355.6 575.443 356.362 573.948 357.216 572.515ZM322.019 572.515C322.843 577.059 322.995 581.512 322.751 585.843C321.928 582.824 320.921 579.804 319.762 576.846C320.403 575.443 321.135 573.948 322.019 572.515Z" fill="#0E80BA"/>
<path fill-rule="evenodd" clip-rule="evenodd" d="M509.35 359.442C537.227 359.442 559.95 336.72 559.95 308.843C559.95 280.996 537.227 258.243 509.35 258.243C481.504 258.243 458.751 280.966 458.751 308.843C458.751 336.72 481.473 359.442 509.35 359.442Z" fill="#42BFFE"/>
<path d="M509.656 347.944C488.763 347.944 471.744 330.956 471.744 310.033C471.744 289.14 488.733 272.121 509.656 272.121C530.548 272.121 547.567 289.11 547.567 310.033C547.567 330.925 530.579 347.944 509.656 347.944ZM509.656 274.866C490.258 274.866 474.459 290.635 474.459 310.063C474.459 329.461 490.227 345.26 509.656 345.26C529.054 345.26 544.853 329.492 544.853 310.063C544.853 290.635 529.084 274.866 509.656 274.866Z" fill="white"/>
<path d="M509.655 347.944C503.616 347.944 498.004 343.887 493.826 336.537C489.8 329.43 487.573 320.006 487.573 310.063C487.573 300.089 489.8 290.695 493.826 283.589C498.004 276.238 503.616 272.182 509.655 272.182C515.694 272.182 521.306 276.238 525.485 283.589C529.511 290.695 531.737 300.12 531.737 310.063C531.737 320.036 529.511 329.43 525.485 336.537C521.306 343.887 515.694 347.944 509.655 347.944ZM509.655 274.866C504.653 274.866 499.865 278.434 496.174 284.9C492.362 291.61 490.257 300.547 490.257 310.032C490.257 319.518 492.362 328.454 496.174 335.164C499.834 341.63 504.623 345.199 509.655 345.199C514.657 345.199 519.446 341.63 523.136 335.164C526.949 328.454 529.053 319.518 529.053 310.032C529.053 300.547 526.949 291.61 523.136 284.9C519.476 278.404 514.688 274.866 509.655 274.866Z" fill="white"/>
<path d="M511.028 273.493H508.313V346.571H511.028V273.493Z" fill="white"/>
<path d="M546.194 308.69H473.116V311.405H546.194V308.69Z" fill="white"/>
<path d="M509.656 293.288C500.201 293.288 491.325 290.177 483.975 284.321L482.755 283.345L483.914 282.277C490.929 275.75 500.079 272.151 509.686 272.151C519.263 272.151 528.413 275.75 535.459 282.277L536.618 283.345L535.398 284.321C528.108 290.085 518.989 293.288 509.656 293.288ZM486.964 283.162C493.552 288.011 501.39 290.573 509.656 290.573C517.83 290.573 525.821 287.95 532.348 283.162C526.004 277.794 517.982 274.835 509.656 274.835C501.299 274.866 493.308 277.794 486.964 283.162Z" fill="white"/>
<path d="M509.655 347.944C500.078 347.944 490.928 344.376 483.883 337.849L482.724 336.781L483.944 335.805C491.325 329.919 500.2 326.808 509.625 326.808C518.927 326.808 528.047 330.01 535.306 335.805L536.556 336.781L535.397 337.849C528.382 344.345 519.232 347.944 509.655 347.944ZM486.963 336.934C493.307 342.302 501.298 345.23 509.655 345.23C517.982 345.23 525.973 342.302 532.347 336.934C525.79 332.145 517.799 329.522 509.655 329.522C501.39 329.492 493.582 332.054 486.963 336.934Z" fill="white"/>
<defs>
<linearGradient id="paint0_linear_796_6637" x1="233.428" y1="193.703" x2="178.222" y2="193.703" gradientUnits="userSpaceOnUse">
<stop stop-color="#81CBF1"/>
<stop offset="0.216" stop-color="#88CEF2"/>
<stop offset="0.548" stop-color="#97D5F4"/>
<stop offset="0.954" stop-color="#AFE0F8"/>
<stop offset="1" stop-color="#B2E1F9"/>
</linearGradient>
<linearGradient id="paint1_linear_796_6637" x1="261.146" y1="222.584" x2="194.482" y2="222.584" gradientUnits="userSpaceOnUse">
<stop stop-color="#81CBF1"/>
<stop offset="0.216" stop-color="#88CEF2"/>
<stop offset="0.548" stop-color="#97D5F4"/>
<stop offset="0.954" stop-color="#AFE0F8"/>
<stop offset="1" stop-color="#B2E1F9"/>
</linearGradient>
<linearGradient id="paint2_linear_796_6637" x1="503.294" y1="111.723" x2="325.21" y2="111.723" gradientUnits="userSpaceOnUse">
<stop stop-color="#4AACDD"/>
<stop offset="1" stop-color="#71C1EA"/>
</linearGradient>
<linearGradient id="paint3_linear_796_6637" x1="353.497" y1="197.785" x2="309.736" y2="197.785" gradientUnits="userSpaceOnUse">
<stop stop-color="#4AACDD"/>
<stop offset="1" stop-color="#71C1EA"/>
</linearGradient>
<linearGradient id="paint4_linear_796_6637" x1="310.995" y1="225.237" x2="287.665" y2="225.237" gradientUnits="userSpaceOnUse">
<stop stop-color="#4AACDD"/>
<stop offset="1" stop-color="#71C1EA"/>
</linearGradient>
</defs>
</svg>
