<svg width="1520" height="597" viewBox="0 0 1520 597" fill="none" xmlns="http://www.w3.org/2000/svg">
<g opacity="0.48" clip-path="url(#clip0_796_6850)">
<mask id="mask0_796_6850" style="mask-type:luminance" maskUnits="userSpaceOnUse" x="898" y="-4" width="613" height="601">
<path d="M940.926 388.749L1332.85 -3.16992H1510.03L1146.96 359.904C1089.82 417.047 1089.82 510.547 1146.96 567.692L1176.27 597H941.396L940.932 596.536C883.79 539.394 883.79 445.894 940.932 388.749" fill="white"/>
</mask>
<g mask="url(#mask0_796_6850)">
<path d="M883.784 -3.16992H1510.03V597H883.784V-3.16992Z" fill="url(#paint0_linear_796_6850)"/>
</g>
<mask id="mask1_796_6850" style="mask-type:luminance" maskUnits="userSpaceOnUse" x="1104" y="-4" width="428" height="601">
<path d="M1146.96 359.904L1510.04 -3.16992H1531.12V202.378L1299.43 434.076C1255.58 477.926 1245.38 543.189 1268.82 597H1176.27L1146.97 567.692C1089.83 510.55 1089.83 417.05 1146.97 359.904" fill="white"/>
</mask>
<g mask="url(#mask1_796_6850)">
<path d="M1089.82 -3.16992H1531.12V597H1089.82V-3.16992Z" fill="url(#paint1_linear_796_6850)"/>
</g>
<mask id="mask2_796_6850" style="mask-type:luminance" maskUnits="userSpaceOnUse" x="1256" y="202" width="276" height="395">
<path d="M1299.43 434.077L1531.12 202.378V597H1268.82C1245.38 543.189 1255.58 477.926 1299.43 434.077" fill="white"/>
</mask>
<g mask="url(#mask2_796_6850)">
<path d="M1245.38 202.378H1531.12V597H1245.38V202.378Z" fill="url(#paint2_linear_796_6850)"/>
</g>
<g filter="url(#filter0_bf_796_6850)">
<rect x="-30" y="-104" width="1561" height="223" fill="url(#paint3_linear_796_6850)"/>
<rect x="-29.5" y="-103.5" width="1560" height="222" stroke="white" stroke-opacity="0.28"/>
</g>
<g filter="url(#filter1_bf_796_6850)">
<rect x="-30" y="-104" width="1561" height="223" fill="white" fill-opacity="0.01"/>
<rect x="-29.5" y="-103.5" width="1560" height="222" stroke="white" stroke-opacity="0.28"/>
</g>
</g>
<defs>
<filter id="filter0_bf_796_6850" x="-113.2" y="-187.2" width="1727.4" height="389.4" filterUnits="userSpaceOnUse" color-interpolation-filters="sRGB">
<feFlood flood-opacity="0" result="BackgroundImageFix"/>
<feGaussianBlur in="BackgroundImageFix" stdDeviation="30"/>
<feComposite in2="SourceAlpha" operator="in" result="effect1_backgroundBlur_796_6850"/>
<feBlend mode="normal" in="SourceGraphic" in2="effect1_backgroundBlur_796_6850" result="shape"/>
<feGaussianBlur stdDeviation="41.6" result="effect2_foregroundBlur_796_6850"/>
</filter>
<filter id="filter1_bf_796_6850" x="-113.2" y="-187.2" width="1727.4" height="389.4" filterUnits="userSpaceOnUse" color-interpolation-filters="sRGB">
<feFlood flood-opacity="0" result="BackgroundImageFix"/>
<feGaussianBlur in="BackgroundImageFix" stdDeviation="30"/>
<feComposite in2="SourceAlpha" operator="in" result="effect1_backgroundBlur_796_6850"/>
<feBlend mode="normal" in="SourceGraphic" in2="effect1_backgroundBlur_796_6850" result="shape"/>
<feGaussianBlur stdDeviation="41.6" result="effect2_foregroundBlur_796_6850"/>
</filter>
<linearGradient id="paint0_linear_796_6850" x1="1738.81" y1="381.933" x2="868.918" y2="98.535" gradientUnits="userSpaceOnUse">
<stop stop-color="#1FA2FF"/>
<stop offset="0.5" stop-color="#1A9FE2" stop-opacity="0.5"/>
<stop offset="1" stop-color="#2196F3"/>
</linearGradient>
<linearGradient id="paint1_linear_796_6850" x1="1692.34" y1="381.933" x2="1048.23" y2="234.063" gradientUnits="userSpaceOnUse">
<stop stop-color="#1FA2FF"/>
<stop offset="0.5" stop-color="#1A9FE2" stop-opacity="0.63"/>
<stop offset="1" stop-color="#2196F3"/>
</linearGradient>
<linearGradient id="paint2_linear_796_6850" x1="1635.51" y1="455.59" x2="1217.81" y2="361.157" gradientUnits="userSpaceOnUse">
<stop stop-color="#1FA2FF"/>
<stop offset="0.5" stop-color="#1A9FE2" stop-opacity="0.64"/>
<stop offset="1" stop-color="#2196F3"/>
</linearGradient>
<linearGradient id="paint3_linear_796_6850" x1="-150" y1="74.4" x2="1531.66" y2="39.9469" gradientUnits="userSpaceOnUse">
<stop stop-color="white"/>
<stop offset="0.172712" stop-color="#FBFDFE" stop-opacity="0.980409"/>
<stop offset="1" stop-color="#4690D5" stop-opacity="0"/>
</linearGradient>
<clipPath id="clip0_796_6850">
<rect width="1578.62" height="600.17" fill="white" transform="matrix(-1 0 0 1 1531.12 -3.62207)"/>
</clipPath>
</defs>
</svg>
