<svg width="221" height="89" viewBox="0 0 221 89" fill="none" xmlns="http://www.w3.org/2000/svg">
<path d="M1.38663 10.2563V3.89271H3.65492C4.15001 3.89271 4.56016 3.98282 4.88539 4.16304C5.21061 4.34326 5.45401 4.58977 5.61559 4.90257C5.77717 5.21329 5.85795 5.56337 5.85795 5.95281C5.85795 6.34433 5.77613 6.69648 5.61248 7.00928C5.45091 7.32 5.20647 7.56651 4.87917 7.7488C4.55395 7.92902 4.14483 8.01913 3.65181 8.01913H2.09197V7.20503H3.56481C3.8776 7.20503 4.13136 7.15117 4.32608 7.04346C4.5208 6.93367 4.66374 6.78452 4.75488 6.59601C4.84603 6.40751 4.8916 6.19311 4.8916 5.95281C4.8916 5.71252 4.84603 5.49916 4.75488 5.31272C4.66374 5.12629 4.51977 4.98025 4.32298 4.8746C4.12826 4.76895 3.87139 4.71613 3.55238 4.71613H2.34677V10.2563H1.38663ZM8.90616 10.3527C8.43593 10.3527 8.03095 10.2522 7.69123 10.0513C7.35357 9.84826 7.09257 9.56343 6.9082 9.19678C6.72591 8.82805 6.63477 8.39614 6.63477 7.90106C6.63477 7.41218 6.72591 6.98131 6.9082 6.60844C7.09257 6.23557 7.34943 5.94453 7.6788 5.73531C8.01024 5.52609 8.39761 5.42148 8.84091 5.42148C9.1102 5.42148 9.37121 5.46601 9.62393 5.55509C9.87666 5.64416 10.1035 5.78399 10.3044 5.97456C10.5054 6.16514 10.6638 6.41269 10.7798 6.7172C10.8958 7.01963 10.9538 7.38733 10.9538 7.82027V8.14964H7.15989V7.45361H10.0434C10.0434 7.20918 9.9937 6.99271 9.89427 6.8042C9.79483 6.61362 9.65501 6.46344 9.47479 6.35365C9.29664 6.24386 9.08742 6.18896 8.84712 6.18896C8.58612 6.18896 8.35825 6.25318 8.16353 6.38161C7.97088 6.50798 7.82173 6.67369 7.71609 6.87877C7.61251 7.08178 7.56072 7.30239 7.56072 7.54062V8.08438C7.56072 8.40339 7.61665 8.67476 7.72852 8.89848C7.84245 9.1222 8.00092 9.2931 8.20392 9.41118C8.40693 9.52718 8.64412 9.58518 8.91548 9.58518C9.09156 9.58518 9.2521 9.56032 9.39711 9.51061C9.54211 9.45882 9.66744 9.38218 9.77308 9.28067C9.87873 9.17917 9.95952 9.05384 10.0154 8.9047L10.8948 9.06317C10.8244 9.3221 10.698 9.54893 10.5157 9.74365C10.3355 9.9363 10.1087 10.0865 9.83523 10.1942C9.56386 10.2998 9.25417 10.3527 8.90616 10.3527ZM11.9847 10.2563V5.48362H12.8827V6.24179H12.9324C13.0194 5.98492 13.1727 5.78295 13.3922 5.63588C13.6139 5.48673 13.8645 5.41215 14.1442 5.41215C14.2022 5.41215 14.2706 5.41423 14.3493 5.41837C14.4301 5.42251 14.4932 5.42769 14.5388 5.4339V6.32258C14.5015 6.31222 14.4352 6.30083 14.34 6.2884C14.2447 6.2739 14.1494 6.26665 14.0541 6.26665C13.8345 6.26665 13.6388 6.31325 13.4668 6.40647C13.297 6.49762 13.1623 6.62501 13.0629 6.78866C12.9634 6.95024 12.9137 7.1346 12.9137 7.34175V10.2563H11.9847ZM17.8962 5.48362V6.22936H15.1991V5.48362H17.8962ZM15.9386 10.2563V4.93053C15.9386 4.63224 16.0039 4.38469 16.1344 4.1879C16.2649 3.98904 16.4379 3.84092 16.6533 3.74356C16.8687 3.64413 17.1028 3.59442 17.3555 3.59442C17.542 3.59442 17.7015 3.60995 17.8341 3.64102C17.9666 3.67003 18.065 3.69695 18.1292 3.72181L17.9117 4.47377C17.8682 4.46134 17.8123 4.44684 17.7439 4.43026C17.6756 4.41162 17.5927 4.4023 17.4954 4.4023C17.2696 4.4023 17.108 4.45823 17.0106 4.57009C16.9153 4.68195 16.8677 4.84353 16.8677 5.05482V10.2563H15.9386ZM20.6772 10.3527C20.2297 10.3527 19.8393 10.2501 19.5057 10.0451C19.1722 9.83998 18.9133 9.55307 18.7289 9.18435C18.5446 8.81562 18.4524 8.38475 18.4524 7.89173C18.4524 7.39665 18.5446 6.9637 18.7289 6.59291C18.9133 6.22211 19.1722 5.93417 19.5057 5.72909C19.8393 5.52401 20.2297 5.42148 20.6772 5.42148C21.1246 5.42148 21.5151 5.52401 21.8486 5.72909C22.1821 5.93417 22.4411 6.22211 22.6254 6.59291C22.8098 6.9637 22.902 7.39665 22.902 7.89173C22.902 8.38475 22.8098 8.81562 22.6254 9.18435C22.4411 9.55307 22.1821 9.83998 21.8486 10.0451C21.5151 10.2501 21.1246 10.3527 20.6772 10.3527ZM20.6803 9.57275C20.9703 9.57275 21.2106 9.49611 21.4012 9.34282C21.5917 9.18953 21.7326 8.98548 21.8238 8.73069C21.917 8.4759 21.9636 8.19521 21.9636 7.88863C21.9636 7.58412 21.917 7.30447 21.8238 7.04967C21.7326 6.79281 21.5917 6.58669 21.4012 6.43133C21.2106 6.27597 20.9703 6.19829 20.6803 6.19829C20.3882 6.19829 20.1458 6.27597 19.9532 6.43133C19.7626 6.58669 19.6207 6.79281 19.5275 7.04967C19.4364 7.30447 19.3908 7.58412 19.3908 7.88863C19.3908 8.19521 19.4364 8.4759 19.5275 8.73069C19.6207 8.98548 19.7626 9.18953 19.9532 9.34282C20.1458 9.49611 20.3882 9.57275 20.6803 9.57275ZM23.939 10.2563V5.48362H24.837V6.24179H24.8867C24.9737 5.98492 25.127 5.78295 25.3466 5.63588C25.5682 5.48673 25.8189 5.41215 26.0985 5.41215C26.1565 5.41215 26.2249 5.41423 26.3036 5.41837C26.3844 5.42251 26.4476 5.42769 26.4932 5.4339V6.32258C26.4559 6.31222 26.3896 6.30083 26.2943 6.2884C26.199 6.2739 26.1037 6.26665 26.0084 6.26665C25.7889 6.26665 25.5931 6.31325 25.4212 6.40647C25.2513 6.49762 25.1167 6.62501 25.0172 6.78866C24.9178 6.95024 24.8681 7.1346 24.8681 7.34175V10.2563H23.939ZM27.2972 10.2563V5.48362H28.1889V6.26043H28.248C28.3474 5.99735 28.51 5.79227 28.7358 5.6452C28.9616 5.49605 29.2319 5.42148 29.5468 5.42148C29.8658 5.42148 30.133 5.49605 30.3485 5.6452C30.566 5.79434 30.7265 5.99942 30.8301 6.26043H30.8798C30.9937 6.00564 31.175 5.80263 31.4236 5.65141C31.6722 5.49812 31.9684 5.42148 32.3123 5.42148C32.7452 5.42148 33.0984 5.55716 33.3718 5.82852C33.6473 6.09989 33.7851 6.50901 33.7851 7.05589V10.2563H32.856V7.14289C32.856 6.81974 32.768 6.58566 32.5919 6.44065C32.4158 6.29565 32.2056 6.22314 31.9611 6.22314C31.6587 6.22314 31.4236 6.31636 31.2558 6.5028C31.088 6.68716 31.0041 6.92435 31.0041 7.21436V10.2563H30.0781V7.08385C30.0781 6.82491 29.9974 6.61673 29.8358 6.4593C29.6742 6.30186 29.4639 6.22314 29.205 6.22314C29.0289 6.22314 28.8663 6.26975 28.7172 6.36297C28.5701 6.45412 28.451 6.58151 28.3598 6.74516C28.2708 6.90881 28.2262 7.09835 28.2262 7.31379V10.2563H27.2972ZM36.4193 10.362C36.1168 10.362 35.8434 10.3061 35.5989 10.1942C35.3545 10.0803 35.1608 9.91559 35.0179 9.70015C34.877 9.48472 34.8066 9.2206 34.8066 8.9078C34.8066 8.63851 34.8584 8.41686 34.962 8.24285C35.0655 8.06885 35.2054 7.93109 35.3814 7.82959C35.5575 7.72809 35.7543 7.65144 35.9718 7.59965C36.1893 7.54787 36.411 7.50851 36.6368 7.48158C36.9226 7.44843 37.1546 7.4215 37.3328 7.40079C37.5109 7.378 37.6404 7.34175 37.7212 7.29204C37.802 7.24232 37.8424 7.16153 37.8424 7.04967V7.02792C37.8424 6.75655 37.7657 6.5463 37.6124 6.39715C37.4612 6.248 37.2354 6.17343 36.9351 6.17343C36.6223 6.17343 36.3758 6.24282 36.1955 6.38161C36.0174 6.51833 35.8941 6.67059 35.8258 6.83838L34.9526 6.63952C35.0562 6.34951 35.2074 6.11543 35.4063 5.93728C35.6072 5.75706 35.8382 5.62655 36.0992 5.54576C36.3602 5.46291 36.6347 5.42148 36.9226 5.42148C37.1132 5.42148 37.3152 5.44426 37.5285 5.48983C37.744 5.53334 37.9449 5.61412 38.1313 5.7322C38.3199 5.85027 38.4742 6.0191 38.5943 6.23868C38.7145 6.45619 38.7745 6.73895 38.7745 7.08696V10.2563H37.8672V9.60383H37.8299C37.7699 9.72397 37.6798 9.84205 37.5596 9.95805C37.4395 10.0741 37.2851 10.1704 37.0966 10.247C36.9081 10.3237 36.6823 10.362 36.4193 10.362ZM36.6212 9.61626C36.8781 9.61626 37.0977 9.5655 37.28 9.464C37.4643 9.3625 37.6042 9.22992 37.6994 9.06627C37.7968 8.90055 37.8455 8.72344 37.8455 8.53493V7.9197C37.8123 7.95284 37.7481 7.98392 37.6528 8.01292C37.5596 8.03985 37.4529 8.06367 37.3328 8.08438C37.2126 8.10303 37.0956 8.12063 36.9817 8.13721C36.8677 8.15171 36.7724 8.16414 36.6958 8.17449C36.5156 8.19728 36.3509 8.2356 36.2017 8.28946C36.0547 8.34332 35.9366 8.421 35.8475 8.52251C35.7605 8.62194 35.717 8.75451 35.717 8.92023C35.717 9.15017 35.802 9.32417 35.9718 9.44225C36.1417 9.55825 36.3581 9.61626 36.6212 9.61626ZM40.9411 7.42254V10.2563H40.012V5.48362H40.9038V6.26043H40.9628C41.0726 6.00771 41.2445 5.8047 41.4786 5.65141C41.7148 5.49812 42.012 5.42148 42.3704 5.42148C42.6956 5.42148 42.9805 5.48983 43.2249 5.62655C43.4693 5.7612 43.6589 5.96214 43.7935 6.22936C43.9282 6.49658 43.9955 6.82699 43.9955 7.22057V10.2563H43.0664V7.33243C43.0664 6.98649 42.9763 6.71616 42.7961 6.52144C42.6159 6.32465 42.3683 6.22625 42.0535 6.22625C41.838 6.22625 41.6464 6.27286 41.4786 6.36608C41.3129 6.45929 41.1814 6.59601 41.084 6.77623C40.9887 6.95438 40.9411 7.16982 40.9411 7.42254ZM47.2519 10.3527C46.7899 10.3527 46.3922 10.2481 46.0587 10.0388C45.7273 9.82755 45.4725 9.5365 45.2943 9.1657C45.1162 8.79491 45.0271 8.37025 45.0271 7.89173C45.0271 7.407 45.1182 6.97924 45.3005 6.60844C45.4828 6.23557 45.7397 5.94453 46.0711 5.73531C46.4026 5.52609 46.7931 5.42148 47.2426 5.42148C47.6051 5.42148 47.9282 5.4888 48.212 5.62345C48.4958 5.75602 48.7247 5.94246 48.8987 6.18275C49.0748 6.42304 49.1794 6.70373 49.2126 7.02481H48.3083C48.2586 6.80109 48.1447 6.60844 47.9666 6.44687C47.7905 6.28529 47.5543 6.2045 47.2581 6.2045C46.9992 6.2045 46.7723 6.27286 46.5776 6.40958C46.385 6.54423 46.2348 6.73688 46.1271 6.98753C46.0193 7.23611 45.9655 7.53026 45.9655 7.86998C45.9655 8.218 46.0183 8.51836 46.124 8.77108C46.2296 9.02381 46.3788 9.21956 46.5714 9.35835C46.7661 9.49714 46.995 9.56654 47.2581 9.56654C47.4342 9.56654 47.5937 9.53443 47.7366 9.47021C47.8816 9.40393 48.0028 9.30967 48.1002 9.18746C48.1996 9.06524 48.269 8.91816 48.3083 8.74623H49.2126C49.1794 9.05488 49.0789 9.33039 48.9112 9.57275C48.7434 9.81512 48.5186 10.0057 48.2369 10.1445C47.9572 10.2833 47.6289 10.3527 47.2519 10.3527ZM52.2631 10.3527C51.7929 10.3527 51.3879 10.2522 51.0482 10.0513C50.7105 9.84826 50.4495 9.56343 50.2651 9.19678C50.0828 8.82805 49.9917 8.39614 49.9917 7.90106C49.9917 7.41218 50.0828 6.98131 50.2651 6.60844C50.4495 6.23557 50.7064 5.94453 51.0357 5.73531C51.3672 5.52609 51.7545 5.42148 52.1978 5.42148C52.4671 5.42148 52.7281 5.46601 52.9809 5.55509C53.2336 5.64416 53.4604 5.78399 53.6614 5.97456C53.8623 6.16514 54.0208 6.41269 54.1368 6.7172C54.2528 7.01963 54.3108 7.38733 54.3108 7.82027V8.14964H50.5168V7.45361H53.4003C53.4003 7.20918 53.3506 6.99271 53.2512 6.8042C53.1518 6.61362 53.0119 6.46344 52.8317 6.35365C52.6536 6.24386 52.4444 6.18896 52.2041 6.18896C51.943 6.18896 51.7152 6.25318 51.5205 6.38161C51.3278 6.50798 51.1787 6.67369 51.073 6.87877C50.9694 7.08178 50.9177 7.30239 50.9177 7.54062V8.08438C50.9177 8.40339 50.9736 8.67476 51.0854 8.89848C51.1994 9.1222 51.3579 9.2931 51.5609 9.41118C51.7639 9.52718 52.0011 9.58518 52.2724 9.58518C52.4485 9.58518 52.609 9.56032 52.754 9.51061C52.899 9.45882 53.0244 9.38218 53.13 9.28067C53.2357 9.17917 53.3165 9.05384 53.3724 8.9047L54.2517 9.06317C54.1813 9.3221 54.0549 9.54893 53.8726 9.74365C53.6924 9.9363 53.4656 10.0865 53.1922 10.1942C52.9208 10.2998 52.6111 10.3527 52.2631 10.3527Z" fill="black"/>
<path d="M48.182 86.3052H47.1628L49.4529 79.9415H50.5621L52.8522 86.3052H51.833L50.0339 81.0974H49.9842L48.182 86.3052ZM48.3529 83.8132H51.659V84.621H48.3529V83.8132ZM55.6301 86.4015C55.1681 86.4015 54.7704 86.2969 54.4369 86.0877C54.1054 85.8764 53.8506 85.5853 53.6725 85.2145C53.4943 84.8437 53.4053 84.4191 53.4053 83.9406C53.4053 83.4558 53.4964 83.0281 53.6787 82.6573C53.861 82.2844 54.1179 81.9934 54.4493 81.7841C54.7807 81.5749 55.1712 81.4703 55.6207 81.4703C55.9833 81.4703 56.3064 81.5376 56.5902 81.6723C56.874 81.8049 57.1029 81.9913 57.2769 82.2316C57.453 82.4719 57.5576 82.7526 57.5907 83.0736H56.6865C56.6368 82.8499 56.5229 82.6573 56.3447 82.4957C56.1686 82.3341 55.9325 82.2533 55.6363 82.2533C55.3773 82.2533 55.1505 82.3217 54.9558 82.4584C54.7631 82.5931 54.613 82.7857 54.5052 83.0364C54.3975 83.2849 54.3437 83.5791 54.3437 83.9188C54.3437 84.2668 54.3965 84.5672 54.5021 84.8199C54.6078 85.0726 54.7569 85.2684 54.9496 85.4072C55.1443 85.546 55.3732 85.6154 55.6363 85.6154C55.8124 85.6154 55.9719 85.5833 56.1148 85.519C56.2598 85.4528 56.381 85.3585 56.4783 85.2363C56.5778 85.1141 56.6472 84.967 56.6865 84.7951H57.5907C57.5576 85.1037 57.4571 85.3792 57.2893 85.6216C57.1215 85.8639 56.8968 86.0545 56.6151 86.1933C56.3354 86.3321 56.0071 86.4015 55.6301 86.4015ZM60.5947 86.4015C60.1327 86.4015 59.735 86.2969 59.4015 86.0877C59.07 85.8764 58.8152 85.5853 58.6371 85.2145C58.4589 84.8437 58.3699 84.4191 58.3699 83.9406C58.3699 83.4558 58.461 83.0281 58.6433 82.6573C58.8256 82.2844 59.0825 81.9934 59.4139 81.7841C59.7453 81.5749 60.1358 81.4703 60.5853 81.4703C60.9479 81.4703 61.271 81.5376 61.5548 81.6723C61.8386 81.8049 62.0675 81.9913 62.2415 82.2316C62.4176 82.4719 62.5222 82.7526 62.5553 83.0736H61.6511C61.6014 82.8499 61.4875 82.6573 61.3093 82.4957C61.1332 82.3341 60.8971 82.2533 60.6009 82.2533C60.3419 82.2533 60.1151 82.3217 59.9204 82.4584C59.7277 82.5931 59.5776 82.7857 59.4698 83.0364C59.3621 83.2849 59.3083 83.5791 59.3083 83.9188C59.3083 84.2668 59.3611 84.5672 59.4667 84.8199C59.5724 85.0726 59.7215 85.2684 59.9142 85.4072C60.1089 85.546 60.3378 85.6154 60.6009 85.6154C60.777 85.6154 60.9365 85.5833 61.0794 85.519C61.2244 85.4528 61.3456 85.3585 61.4429 85.2363C61.5424 85.1141 61.6118 84.967 61.6511 84.7951H62.5553C62.5222 85.1037 62.4217 85.3792 62.2539 85.6216C62.0861 85.8639 61.8614 86.0545 61.5797 86.1933C61.3 86.3321 60.9717 86.4015 60.5947 86.4015ZM65.6059 86.4015C65.1356 86.4015 64.7307 86.301 64.3909 86.1001C64.0533 85.8971 63.7923 85.6123 63.6079 85.2456C63.4256 84.8769 63.3345 84.445 63.3345 83.9499C63.3345 83.461 63.4256 83.0301 63.6079 82.6573C63.7923 82.2844 64.0491 81.9934 64.3785 81.7841C64.7099 81.5749 65.0973 81.4703 65.5406 81.4703C65.8099 81.4703 66.0709 81.5148 66.3236 81.6039C66.5764 81.693 66.8032 81.8328 67.0041 82.0234C67.2051 82.214 67.3635 82.4615 67.4795 82.766C67.5955 83.0685 67.6535 83.4362 67.6535 83.8691V84.1985H63.8596V83.5024H66.7431C66.7431 83.258 66.6934 83.0415 66.594 82.853C66.4945 82.6624 66.3547 82.5123 66.1745 82.4025C65.9963 82.2927 65.7871 82.2378 65.5468 82.2378C65.2858 82.2378 65.058 82.302 64.8632 82.4304C64.6706 82.5568 64.5214 82.7225 64.4158 82.9276C64.3122 83.1306 64.2604 83.3512 64.2604 83.5894V84.1332C64.2604 84.4522 64.3164 84.7236 64.4282 84.9473C64.5422 85.171 64.7006 85.3419 64.9036 85.46C65.1066 85.576 65.3438 85.634 65.6152 85.634C65.7913 85.634 65.9518 85.6092 66.0968 85.5594C66.2418 85.5076 66.3671 85.431 66.4728 85.3295C66.5784 85.228 66.6592 85.1027 66.7152 84.9535L67.5945 85.112C67.5241 85.3709 67.3977 85.5978 67.2154 85.7925C67.0352 85.9851 66.8084 86.1353 66.5349 86.243C66.2636 86.3487 65.9539 86.4015 65.6059 86.4015ZM72.2608 82.6977L71.4187 82.8468C71.3835 82.7391 71.3276 82.6366 71.251 82.5392C71.1764 82.4418 71.0749 82.3621 70.9464 82.2999C70.818 82.2378 70.6575 82.2067 70.4648 82.2067C70.2017 82.2067 69.9822 82.2658 69.8061 82.3838C69.63 82.4998 69.542 82.65 69.542 82.8344C69.542 82.9939 69.601 83.1223 69.7191 83.2197C69.8372 83.317 70.0277 83.3968 70.2908 83.4589L71.049 83.6329C71.4881 83.7344 71.8154 83.8908 72.0309 84.1021C72.2463 84.3134 72.354 84.5879 72.354 84.9256C72.354 85.2114 72.2712 85.4662 72.1054 85.6899C71.9418 85.9116 71.7129 86.0856 71.4187 86.212C71.1267 86.3383 70.788 86.4015 70.4027 86.4015C69.8682 86.4015 69.4322 86.2876 69.0945 86.0597C68.7569 85.8298 68.5497 85.5035 68.4731 85.0809L69.3711 84.9442C69.427 85.1783 69.542 85.3554 69.716 85.4755C69.89 85.5936 70.1168 85.6527 70.3965 85.6527C70.701 85.6527 70.9444 85.5895 71.1267 85.4631C71.309 85.3347 71.4001 85.1783 71.4001 84.9939C71.4001 84.8448 71.3442 84.7194 71.2323 84.6179C71.1225 84.5164 70.9537 84.4398 70.7258 84.388L69.9179 84.2109C69.4726 84.1094 69.1432 83.9478 68.9298 83.7262C68.7186 83.5045 68.6129 83.2238 68.6129 82.8841C68.6129 82.6024 68.6916 82.3559 68.8491 82.1446C69.0065 81.9333 69.224 81.7686 69.5016 81.6505C69.7792 81.5304 70.0971 81.4703 70.4555 81.4703C70.9713 81.4703 71.3773 81.5822 71.6735 81.8059C71.9698 82.0275 72.1655 82.3248 72.2608 82.6977ZM76.952 82.6977L76.1099 82.8468C76.0747 82.7391 76.0188 82.6366 75.9421 82.5392C75.8675 82.4418 75.766 82.3621 75.6376 82.2999C75.5092 82.2378 75.3486 82.2067 75.156 82.2067C74.8929 82.2067 74.6733 82.2658 74.4972 82.3838C74.3212 82.4998 74.2331 82.65 74.2331 82.8344C74.2331 82.9939 74.2922 83.1223 74.4102 83.2197C74.5283 83.317 74.7189 83.3968 74.982 83.4589L75.7401 83.6329C76.1793 83.7344 76.5066 83.8908 76.722 84.1021C76.9375 84.3134 77.0452 84.5879 77.0452 84.9256C77.0452 85.2114 76.9623 85.4662 76.7966 85.6899C76.633 85.9116 76.4041 86.0856 76.1099 86.212C75.8178 86.3383 75.4791 86.4015 75.0938 86.4015C74.5594 86.4015 74.1233 86.2876 73.7857 86.0597C73.448 85.8298 73.2409 85.5035 73.1642 85.0809L74.0622 84.9442C74.1182 85.1783 74.2331 85.3554 74.4071 85.4755C74.5811 85.5936 74.808 85.6527 75.0876 85.6527C75.3921 85.6527 75.6355 85.5895 75.8178 85.4631C76.0001 85.3347 76.0913 85.1783 76.0913 84.9939C76.0913 84.8448 76.0353 84.7194 75.9235 84.6179C75.8137 84.5164 75.6449 84.4398 75.417 84.388L74.6091 84.2109C74.1637 84.1094 73.8344 83.9478 73.621 83.7262C73.4097 83.5045 73.3041 83.2238 73.3041 82.8841C73.3041 82.6024 73.3828 82.3559 73.5402 82.1446C73.6977 81.9333 73.9152 81.7686 74.1927 81.6505C74.4703 81.5304 74.7883 81.4703 75.1467 81.4703C75.6625 81.4703 76.0685 81.5822 76.3647 81.8059C76.6609 82.0275 76.8567 82.3248 76.952 82.6977ZM78.0667 86.3052V81.5324H78.9958V86.3052H78.0667ZM78.5359 80.796C78.3743 80.796 78.2355 80.7422 78.1195 80.6345C78.0056 80.5247 77.9486 80.3942 77.9486 80.2429C77.9486 80.0897 78.0056 79.9591 78.1195 79.8514C78.2355 79.7416 78.3743 79.6867 78.5359 79.6867C78.6975 79.6867 78.8352 79.7416 78.9492 79.8514C79.0652 79.9591 79.1232 80.0897 79.1232 80.2429C79.1232 80.3942 79.0652 80.5247 78.9492 80.6345C78.8352 80.7422 78.6975 80.796 78.5359 80.796ZM80.3202 86.3052V79.9415H81.2493V82.3062H81.3052C81.3591 82.2067 81.4368 82.0918 81.5383 81.9612C81.6398 81.8307 81.7806 81.7168 81.9608 81.6195C82.1411 81.52 82.3793 81.4703 82.6755 81.4703C83.0608 81.4703 83.4047 81.5677 83.7071 81.7624C84.0096 81.9571 84.2467 82.2378 84.4187 82.6044C84.5927 82.9711 84.6797 83.4123 84.6797 83.9281C84.6797 84.4439 84.5937 84.8862 84.4218 85.2549C84.2499 85.6216 84.0137 85.9043 83.7133 86.1032C83.413 86.3 83.0701 86.3984 82.6848 86.3984C82.3948 86.3984 82.1576 86.3497 81.9733 86.2524C81.791 86.155 81.6481 86.0411 81.5445 85.9106C81.4409 85.7801 81.3612 85.664 81.3052 85.5625H81.2275V86.3052H80.3202ZM81.2306 83.9188C81.2306 84.2544 81.2793 84.5485 81.3767 84.8013C81.474 85.054 81.6149 85.2518 81.7993 85.3948C81.9836 85.5356 82.2094 85.606 82.4767 85.606C82.7542 85.606 82.9862 85.5325 83.1727 85.3854C83.3591 85.2363 83.5 85.0343 83.5953 84.7795C83.6926 84.5247 83.7413 84.2378 83.7413 83.9188C83.7413 83.6039 83.6937 83.3212 83.5984 83.0705C83.5051 82.8199 83.3643 82.6221 83.1758 82.4771C82.9893 82.332 82.7563 82.2595 82.4767 82.2595C82.2074 82.2595 81.9795 82.3289 81.7931 82.4677C81.6087 82.6065 81.4689 82.8002 81.3736 83.0488C81.2783 83.2974 81.2306 83.5874 81.2306 83.9188ZM85.7229 86.3052V81.5324H86.652V86.3052H85.7229ZM86.1921 80.796C86.0306 80.796 85.8918 80.7422 85.7758 80.6345C85.6618 80.5247 85.6049 80.3942 85.6049 80.2429C85.6049 80.0897 85.6618 79.9591 85.7758 79.8514C85.8918 79.7416 86.0306 79.6867 86.1921 79.6867C86.3537 79.6867 86.4915 79.7416 86.6054 79.8514C86.7214 79.9591 86.7794 80.0897 86.7794 80.2429C86.7794 80.3942 86.7214 80.5247 86.6054 80.6345C86.4915 80.7422 86.3537 80.796 86.1921 80.796ZM88.831 79.9415V86.3052H87.9019V79.9415H88.831ZM90.0809 86.3052V81.5324H91.0099V86.3052H90.0809ZM90.55 80.796C90.3885 80.796 90.2497 80.7422 90.1337 80.6345C90.0197 80.5247 89.9628 80.3942 89.9628 80.2429C89.9628 80.0897 90.0197 79.9591 90.1337 79.8514C90.2497 79.7416 90.3885 79.6867 90.55 79.6867C90.7116 79.6867 90.8494 79.7416 90.9633 79.8514C91.0793 79.9591 91.1373 80.0897 91.1373 80.2429C91.1373 80.3942 91.0793 80.5247 90.9633 80.6345C90.8494 80.7422 90.7116 80.796 90.55 80.796ZM94.4877 81.5324V82.2782H91.8807V81.5324H94.4877ZM92.5799 80.389H93.5089V84.9038C93.5089 85.084 93.5359 85.2197 93.5897 85.3109C93.6436 85.3999 93.713 85.461 93.7979 85.4942C93.8849 85.5253 93.9792 85.5408 94.0807 85.5408C94.1552 85.5408 94.2205 85.5356 94.2764 85.5253C94.3323 85.5149 94.3758 85.5066 94.4069 85.5004L94.5747 86.2679C94.5208 86.2886 94.4442 86.3093 94.3448 86.33C94.2453 86.3528 94.121 86.3652 93.9719 86.3673C93.7275 86.3715 93.4996 86.328 93.2883 86.2368C93.077 86.1457 92.9061 86.0048 92.7756 85.8142C92.6451 85.6237 92.5799 85.3844 92.5799 85.0965V80.389ZM96.1027 88.0949C95.9639 88.0949 95.8375 88.0836 95.7236 88.0608C95.6097 88.0401 95.5247 88.0173 95.4688 87.9924L95.6925 87.2311C95.8624 87.2767 96.0136 87.2964 96.1462 87.2902C96.2788 87.284 96.3958 87.2342 96.4973 87.141C96.6009 87.0478 96.692 86.8956 96.7708 86.6843L96.8857 86.3673L95.1394 81.5324H96.1338L97.3425 85.2363H97.3922L98.6009 81.5324H99.5983L97.6315 86.9422C97.5403 87.1907 97.4243 87.401 97.2834 87.5729C97.1426 87.7469 96.9748 87.8774 96.7801 87.9644C96.5854 88.0514 96.3596 88.0949 96.1027 88.0949Z" fill="black"/>
<path d="M189.377 81.6909C189.348 81.4196 189.226 81.2083 189.01 81.057C188.797 80.9058 188.519 80.8302 188.178 80.8302C187.937 80.8302 187.731 80.8665 187.559 80.939C187.387 81.0115 187.256 81.1099 187.165 81.2342C187.074 81.3584 187.027 81.5003 187.025 81.6598C187.025 81.7924 187.055 81.9074 187.115 82.0047C187.177 82.1021 187.261 82.185 187.367 82.2533C187.472 82.3196 187.589 82.3755 187.718 82.4211C187.846 82.4667 187.976 82.505 188.106 82.5361L188.703 82.6852C188.943 82.7412 189.174 82.8168 189.396 82.9121C189.619 83.0074 189.819 83.1275 189.995 83.2725C190.174 83.4175 190.314 83.5926 190.418 83.7976C190.522 84.0027 190.573 84.243 190.573 84.5185C190.573 84.8914 190.478 85.2197 190.287 85.5035C190.097 85.7852 189.821 86.0058 189.461 86.1653C189.103 86.3228 188.669 86.4015 188.159 86.4015C187.664 86.4015 187.234 86.3249 186.869 86.1716C186.507 86.0183 186.223 85.7946 186.018 85.5004C185.815 85.2062 185.705 84.8479 185.689 84.4253H186.823C186.839 84.6469 186.908 84.8313 187.028 84.9784C187.148 85.1255 187.305 85.2352 187.497 85.3078C187.692 85.3803 187.909 85.4165 188.15 85.4165C188.4 85.4165 188.62 85.3792 188.808 85.3046C188.999 85.228 189.148 85.1224 189.256 84.9877C189.364 84.851 189.418 84.6915 189.421 84.5092C189.418 84.3435 189.37 84.2068 189.275 84.099C189.179 83.9892 189.046 83.8981 188.874 83.8256C188.704 83.751 188.505 83.6847 188.277 83.6267L187.553 83.4403C187.029 83.3056 186.615 83.1016 186.31 82.8282C186.008 82.5527 185.857 82.187 185.857 81.7313C185.857 81.3564 185.958 81.028 186.161 80.7463C186.366 80.4646 186.645 80.246 186.997 80.0907C187.349 79.9333 187.748 79.8545 188.193 79.8545C188.645 79.8545 189.04 79.9333 189.38 80.0907C189.722 80.246 189.99 80.4625 190.185 80.7401C190.38 81.0156 190.48 81.3325 190.486 81.6909H189.377ZM191.601 86.3052V79.9415H195.74V80.9079H192.754V82.6355H195.526V83.6019H192.754V85.3388H195.765V86.3052H191.601ZM202.602 83.1234C202.602 83.809 202.474 84.3963 202.217 84.8852C201.962 85.372 201.614 85.7448 201.173 86.0038C200.734 86.2627 200.236 86.3922 199.678 86.3922C199.121 86.3922 198.622 86.2627 198.181 86.0038C197.741 85.7428 197.393 85.3689 197.137 84.8821C196.882 84.3932 196.754 83.807 196.754 83.1234C196.754 82.4377 196.882 81.8515 197.137 81.3647C197.393 80.8758 197.741 80.5019 198.181 80.2429C198.622 79.984 199.121 79.8545 199.678 79.8545C200.236 79.8545 200.734 79.984 201.173 80.2429C201.614 80.5019 201.962 80.8758 202.217 81.3647C202.474 81.8515 202.602 82.4377 202.602 83.1234ZM201.443 83.1234C201.443 82.6407 201.368 82.2336 201.216 81.9022C201.067 81.5687 200.86 81.317 200.595 81.1472C200.33 80.9752 200.024 80.8892 199.678 80.8892C199.332 80.8892 199.027 80.9752 198.762 81.1472C198.497 81.317 198.288 81.5687 198.137 81.9022C197.988 82.2336 197.913 82.6407 197.913 83.1234C197.913 83.606 197.988 84.0141 198.137 84.3476C198.288 84.6791 198.497 84.9307 198.762 85.1027C199.027 85.2725 199.332 85.3575 199.678 85.3575C200.024 85.3575 200.33 85.2725 200.595 85.1027C200.86 84.9307 201.067 84.6791 201.216 84.3476C201.368 84.0141 201.443 83.606 201.443 83.1234Z" fill="black"/>
<path d="M96.5751 9.51855V3.15492H98.8434C99.3385 3.15492 99.7486 3.24503 100.074 3.42525C100.399 3.60547 100.642 3.85198 100.804 4.16477C100.966 4.4755 101.046 4.82558 101.046 5.21502C101.046 5.60653 100.965 5.95869 100.801 6.27148C100.639 6.58221 100.395 6.82872 100.068 7.01101C99.7424 7.19123 99.3333 7.28134 98.8403 7.28134H97.2805V6.46724H98.7533C99.0661 6.46724 99.3198 6.41338 99.5146 6.30566C99.7093 6.19587 99.8522 6.04673 99.9434 5.85822C100.035 5.66971 100.08 5.45531 100.08 5.21502C100.08 4.97473 100.035 4.76136 99.9434 4.57493C99.8522 4.38849 99.7082 4.24245 99.5115 4.13681C99.3167 4.03116 99.0599 3.97834 98.7409 3.97834H97.5352V9.51855H96.5751ZM102.097 9.51855V4.74583H102.995V5.50399H103.045C103.132 5.24713 103.285 5.04516 103.505 4.89808C103.727 4.74893 103.977 4.67436 104.257 4.67436C104.315 4.67436 104.383 4.67643 104.462 4.68058C104.543 4.68472 104.606 4.6899 104.652 4.69611V5.58478C104.614 5.57443 104.548 5.56303 104.453 5.5506C104.357 5.5361 104.262 5.52885 104.167 5.52885C103.947 5.52885 103.752 5.57546 103.58 5.66868C103.41 5.75982 103.275 5.88722 103.176 6.05087C103.076 6.21245 103.027 6.39681 103.027 6.60396V9.51855H102.097ZM106.802 9.6242C106.499 9.6242 106.226 9.56827 105.982 9.45641C105.737 9.34248 105.543 9.17779 105.4 8.96236C105.26 8.74692 105.189 8.48281 105.189 8.17001C105.189 7.90072 105.241 7.67907 105.345 7.50506C105.448 7.33105 105.588 7.1933 105.764 7.0918C105.94 6.99029 106.137 6.91365 106.354 6.86186C106.572 6.81007 106.794 6.77071 107.019 6.74379C107.305 6.71064 107.537 6.68371 107.715 6.663C107.894 6.64021 108.023 6.60396 108.104 6.55424C108.185 6.50453 108.225 6.42374 108.225 6.31188V6.29013C108.225 6.01876 108.148 5.8085 107.995 5.65936C107.844 5.51021 107.618 5.43564 107.318 5.43564C107.005 5.43564 106.758 5.50503 106.578 5.64382C106.4 5.78054 106.277 5.93279 106.208 6.10059L105.335 5.90172C105.439 5.61171 105.59 5.37763 105.789 5.19948C105.99 5.01926 106.221 4.88876 106.482 4.80797C106.743 4.72511 107.017 4.68368 107.305 4.68368C107.496 4.68368 107.698 4.70647 107.911 4.75204C108.127 4.79554 108.327 4.87633 108.514 4.99441C108.702 5.11248 108.857 5.28131 108.977 5.50089C109.097 5.71839 109.157 6.00115 109.157 6.34917V9.51855H108.25V8.86603H108.213C108.152 8.98618 108.062 9.10426 107.942 9.22026C107.822 9.33626 107.668 9.43259 107.479 9.50923C107.291 9.58588 107.065 9.6242 106.802 9.6242ZM107.004 8.87846C107.261 8.87846 107.48 8.82771 107.663 8.72621C107.847 8.6247 107.987 8.49213 108.082 8.32848C108.179 8.16276 108.228 7.98565 108.228 7.79714V7.18191C108.195 7.21505 108.131 7.24612 108.035 7.27512C107.942 7.30205 107.836 7.32588 107.715 7.34659C107.595 7.36523 107.478 7.38284 107.364 7.39941C107.25 7.41391 107.155 7.42634 107.078 7.4367C106.898 7.45949 106.733 7.49781 106.584 7.55167C106.437 7.60553 106.319 7.68321 106.23 7.78471C106.143 7.88414 106.1 8.01672 106.1 8.18244C106.1 8.41238 106.185 8.58638 106.354 8.70446C106.524 8.82046 106.741 8.87846 107.004 8.87846ZM112.405 9.61488C111.943 9.61488 111.545 9.51027 111.212 9.30105C110.88 9.08975 110.626 8.79871 110.447 8.42791C110.269 8.05711 110.18 7.63246 110.18 7.15394C110.18 6.66921 110.271 6.24145 110.454 5.87065C110.636 5.49778 110.893 5.20674 111.224 4.99751C111.556 4.78829 111.946 4.68368 112.396 4.68368C112.758 4.68368 113.081 4.75101 113.365 4.88565C113.649 5.01823 113.878 5.20466 114.052 5.44496C114.228 5.68525 114.332 5.96594 114.366 6.28702H113.461C113.412 6.0633 113.298 5.87065 113.12 5.70907C112.944 5.5475 112.707 5.46671 112.411 5.46671C112.152 5.46671 111.925 5.53507 111.731 5.67179C111.538 5.80643 111.388 5.99908 111.28 6.24973C111.172 6.49831 111.119 6.79247 111.119 7.13219C111.119 7.4802 111.171 7.78057 111.277 8.03329C111.383 8.28601 111.532 8.48177 111.724 8.62056C111.919 8.75935 112.148 8.82875 112.411 8.82875C112.587 8.82875 112.747 8.79664 112.89 8.73242C113.035 8.66613 113.156 8.57188 113.253 8.44966C113.353 8.32744 113.422 8.18037 113.461 8.00843H114.366C114.332 8.31709 114.232 8.5926 114.064 8.83496C113.896 9.07733 113.672 9.2679 113.39 9.40669C113.11 9.54548 112.782 9.61488 112.405 9.61488ZM117.587 4.74583V5.49157H114.98V4.74583H117.587ZM115.679 3.60236H116.608V8.11719C116.608 8.29741 116.635 8.43309 116.689 8.52424C116.743 8.61331 116.812 8.67442 116.897 8.70756C116.984 8.73864 117.079 8.75417 117.18 8.75417C117.255 8.75417 117.32 8.74899 117.376 8.73864C117.432 8.72828 117.475 8.71999 117.506 8.71378L117.674 9.48127C117.62 9.50198 117.544 9.5227 117.444 9.54341C117.345 9.5662 117.22 9.57863 117.071 9.5807C116.827 9.58484 116.599 9.54134 116.388 9.4502C116.176 9.35905 116.005 9.21819 115.875 9.02761C115.744 8.83703 115.679 8.59777 115.679 8.30984V3.60236ZM118.615 9.51855V4.74583H119.544V9.51855H118.615ZM119.084 4.00941C118.922 4.00941 118.784 3.95555 118.668 3.84783C118.554 3.73804 118.497 3.60754 118.497 3.45632C118.497 3.30303 118.554 3.17253 118.668 3.06481C118.784 2.95502 118.922 2.90012 119.084 2.90012C119.246 2.90012 119.383 2.95502 119.497 3.06481C119.613 3.17253 119.671 3.30303 119.671 3.45632C119.671 3.60754 119.613 3.73804 119.497 3.84783C119.383 3.95555 119.246 4.00941 119.084 4.00941ZM122.804 9.61488C122.342 9.61488 121.944 9.51027 121.611 9.30105C121.28 9.08975 121.025 8.79871 120.847 8.42791C120.668 8.05711 120.579 7.63246 120.579 7.15394C120.579 6.66921 120.67 6.24145 120.853 5.87065C121.035 5.49778 121.292 5.20674 121.623 4.99751C121.955 4.78829 122.345 4.68368 122.795 4.68368C123.157 4.68368 123.48 4.75101 123.764 4.88565C124.048 5.01823 124.277 5.20466 124.451 5.44496C124.627 5.68525 124.732 5.96594 124.765 6.28702H123.861C123.811 6.0633 123.697 5.87065 123.519 5.70907C123.343 5.5475 123.107 5.46671 122.81 5.46671C122.551 5.46671 122.325 5.53507 122.13 5.67179C121.937 5.80643 121.787 5.99908 121.679 6.24973C121.572 6.49831 121.518 6.79247 121.518 7.13219C121.518 7.4802 121.571 7.78057 121.676 8.03329C121.782 8.28601 121.931 8.48177 122.124 8.62056C122.318 8.75935 122.547 8.82875 122.81 8.82875C122.986 8.82875 123.146 8.79664 123.289 8.73242C123.434 8.66613 123.555 8.57188 123.652 8.44966C123.752 8.32744 123.821 8.18037 123.861 8.00843H124.765C124.732 8.31709 124.631 8.5926 124.463 8.83496C124.296 9.07733 124.071 9.2679 123.789 9.40669C123.509 9.54548 123.181 9.61488 122.804 9.61488ZM127.815 9.61488C127.345 9.61488 126.94 9.51441 126.6 9.31348C126.263 9.11047 126.002 8.82564 125.817 8.45898C125.635 8.09026 125.544 7.65835 125.544 7.16326C125.544 6.67439 125.635 6.24352 125.817 5.87065C126.002 5.49778 126.259 5.20674 126.588 4.99751C126.919 4.78829 127.307 4.68368 127.75 4.68368C128.019 4.68368 128.28 4.72822 128.533 4.81729C128.786 4.90637 129.013 5.04619 129.214 5.23677C129.415 5.42735 129.573 5.67489 129.689 5.9794C129.805 6.28184 129.863 6.64953 129.863 7.08248V7.41184H126.069V6.71582H128.953C128.953 6.47138 128.903 6.25491 128.803 6.06641C128.704 5.87583 128.564 5.72564 128.384 5.61586C128.206 5.50607 127.997 5.45117 127.756 5.45117C127.495 5.45117 127.267 5.51539 127.073 5.64382C126.88 5.77018 126.731 5.9359 126.625 6.14098C126.522 6.34399 126.47 6.5646 126.47 6.80282V7.34659C126.47 7.6656 126.526 7.93697 126.638 8.16069C126.752 8.38441 126.91 8.55531 127.113 8.67338C127.316 8.78939 127.553 8.84739 127.825 8.84739C128.001 8.84739 128.161 8.82253 128.306 8.77282C128.451 8.72103 128.577 8.64438 128.682 8.54288C128.788 8.44138 128.869 8.31605 128.925 8.1669L129.804 8.32537C129.734 8.58431 129.607 8.81114 129.425 9.00586C129.245 9.19851 129.018 9.34869 128.744 9.45641C128.473 9.56206 128.163 9.61488 127.815 9.61488ZM134.47 5.91104L133.628 6.06019C133.593 5.95247 133.537 5.84993 133.46 5.75257C133.386 5.65521 133.284 5.57546 133.156 5.51332C133.027 5.45117 132.867 5.4201 132.674 5.4201C132.411 5.4201 132.192 5.47914 132.016 5.59721C131.839 5.71322 131.751 5.8634 131.751 6.04776C131.751 6.20727 131.81 6.3357 131.929 6.43306C132.047 6.53042 132.237 6.61017 132.5 6.67232L133.258 6.84632C133.698 6.94783 134.025 7.10423 134.24 7.31552C134.456 7.52681 134.563 7.80128 134.563 8.13894C134.563 8.4248 134.481 8.6796 134.315 8.90332C134.151 9.12497 133.922 9.29898 133.628 9.42534C133.336 9.5517 132.997 9.61488 132.612 9.61488C132.078 9.61488 131.642 9.50095 131.304 9.27308C130.966 9.04315 130.759 8.71689 130.683 8.2943L131.581 8.15758C131.636 8.39166 131.751 8.56877 131.925 8.68892C132.099 8.807 132.326 8.86603 132.606 8.86603C132.91 8.86603 133.154 8.80285 133.336 8.67649C133.518 8.54806 133.61 8.39166 133.61 8.2073C133.61 8.05815 133.554 7.93282 133.442 7.83132C133.332 7.72982 133.163 7.65317 132.935 7.60138L132.127 7.42427C131.682 7.32277 131.353 7.16119 131.139 6.93954C130.928 6.71789 130.822 6.4372 130.822 6.09748C130.822 5.81576 130.901 5.56925 131.059 5.35795C131.216 5.14666 131.433 4.98198 131.711 4.8639C131.989 4.74376 132.307 4.68368 132.665 4.68368C133.181 4.68368 133.587 4.79554 133.883 5.01926C134.179 5.24091 134.375 5.53817 134.47 5.91104Z" fill="black"/>
<ellipse cx="115.876" cy="45.781" rx="26.6612" ry="26.5921" fill="#EFF1F5"/>
<path d="M116.106 20.0718C124.83 20.6348 142.11 26.8828 141.435 47.3711C141.435 55.1574 134.707 73.4833 111.347 71.2318C108.025 70.9828 100.056 68.656 94.7495 61.3412C93.4645 59.6977 90.5469 54.9167 90.0449 48.6059" stroke="#0885DA" stroke-width="3.64279" stroke-linecap="round"/>
<path d="M194.291 21.0098C208.014 21.0098 219.131 32.1044 219.131 45.7803C219.131 59.4563 208.014 70.5508 194.291 70.5508C180.568 70.5507 169.451 59.4563 169.451 45.7803C169.451 32.1044 180.568 21.0098 194.291 21.0098Z" fill="white" stroke="#00D83F" stroke-width="3.64279"/>
<ellipse cx="72.5719" cy="45.7806" rx="26.6612" ry="26.5921" fill="#EFF1F5"/>
<path d="M72.8017 20.0713C81.5262 20.6343 98.8063 26.8823 98.1308 47.3706C98.1307 55.1569 91.4024 73.4828 68.0425 71.2314C64.7213 70.9823 56.7521 68.6555 51.4453 61.3407C50.1603 59.6973 47.2427 54.9162 46.7407 48.6054" stroke="#0885DA" stroke-width="3.64279" stroke-linecap="round"/>
<ellipse cx="29.2672" cy="45.7806" rx="26.6612" ry="26.5921" fill="#EFF1F5"/>
<path d="M29.4965 20.0713C38.221 20.6343 55.5011 26.8823 54.8256 47.3706C54.8256 55.1569 48.7496 73.5407 25.3897 71.2893C22.0685 71.0402 13.8197 68.7491 8.51292 61.4343C7.22793 59.7909 3.93754 54.9162 3.43555 48.6054" stroke="#0885DA" stroke-width="3.64279" stroke-linecap="round"/>
<path d="M17.6807 50.04L21.6242 42.2344V42.1711H17.0468V40.7675H23.3628V42.2027L19.4238 50.04H17.6807ZM27.9403 50.1668C27.2883 50.1668 26.7087 50.0551 26.2017 49.8318C25.6976 49.6084 25.2991 49.2975 25.0064 48.8991C24.7136 48.5007 24.5581 48.0403 24.54 47.5182H26.2424C26.2575 47.7687 26.3405 47.9875 26.4914 48.1747C26.6423 48.3588 26.8431 48.5022 27.0936 48.6048C27.3441 48.7074 27.6248 48.7587 27.9357 48.7587C28.2678 48.7587 28.562 48.7014 28.8186 48.5867C29.0752 48.469 29.2759 48.306 29.4208 48.0977C29.5657 47.8894 29.6366 47.6495 29.6336 47.3778C29.6366 47.0971 29.5642 46.8496 29.4163 46.6353C29.2684 46.421 29.054 46.2534 28.7733 46.1327C28.4956 46.012 28.1606 45.9516 27.7682 45.9516H26.9487V44.6567H27.7682C28.0912 44.6567 28.3734 44.6009 28.6149 44.4892C28.8594 44.3775 29.051 44.2205 29.1899 44.0183C29.3287 43.8131 29.3966 43.5761 29.3936 43.3075C29.3966 43.0449 29.3378 42.817 29.217 42.6238C29.0993 42.4276 28.9318 42.2752 28.7145 42.1665C28.5002 42.0579 28.2481 42.0035 27.9584 42.0035C27.6746 42.0035 27.412 42.0548 27.1706 42.1575C26.9291 42.2601 26.7344 42.4065 26.5865 42.5966C26.4386 42.7838 26.3601 43.0071 26.3511 43.2667H24.7347C24.7468 42.7476 24.8962 42.2918 25.1829 41.8994C25.4727 41.504 25.8591 41.1961 26.342 40.9758C26.825 40.7524 27.3668 40.6407 27.9674 40.6407C28.5862 40.6407 29.1235 40.7569 29.5792 40.9893C30.038 41.2187 30.3927 41.5281 30.6432 41.9175C30.8938 42.3069 31.019 42.737 31.019 43.2079C31.022 43.7301 30.8681 44.1677 30.5572 44.5209C30.2493 44.874 29.8449 45.1049 29.3438 45.2136V45.286C29.9958 45.3766 30.4953 45.6181 30.8425 46.0105C31.1926 46.3998 31.3661 46.8843 31.3631 47.4638C31.3631 47.983 31.2152 48.4478 30.9194 48.8583C30.6266 49.2658 30.2222 49.5858 29.706 49.8182C29.1929 50.0506 28.6043 50.1668 27.9403 50.1668ZM37.875 48.3014V47.8125C37.875 47.4533 37.9504 47.1227 38.1013 46.8209C38.2553 46.5191 38.4786 46.2761 38.7714 46.092C39.0642 45.9078 39.4189 45.8158 39.8354 45.8158C40.264 45.8158 40.6232 45.9078 40.913 46.092C41.2028 46.2731 41.4216 46.5145 41.5695 46.8164C41.7204 47.1182 41.7959 47.4502 41.7959 47.8125V48.3014C41.7959 48.6606 41.7204 48.9911 41.5695 49.293C41.4186 49.5948 41.1967 49.8378 40.9039 50.0219C40.6142 50.2061 40.258 50.2981 39.8354 50.2981C39.4128 50.2981 39.0552 50.2061 38.7624 50.0219C38.4696 49.8378 38.2477 49.5948 38.0968 49.293C37.9489 48.9911 37.875 48.6606 37.875 48.3014ZM39.0567 47.8125V48.3014C39.0567 48.5399 39.114 48.7587 39.2287 48.9579C39.3434 49.1572 39.5457 49.2568 39.8354 49.2568C40.1282 49.2568 40.3289 49.1587 40.4376 48.9625C40.5493 48.7633 40.6051 48.5429 40.6051 48.3014V47.8125C40.6051 47.571 40.5523 47.3506 40.4466 47.1514C40.341 46.9492 40.1373 46.8481 39.8354 46.8481C39.5517 46.8481 39.351 46.9492 39.2332 47.1514C39.1155 47.3506 39.0567 47.571 39.0567 47.8125ZM33.1617 42.9951V42.5061C33.1617 42.1439 33.2387 41.8119 33.3926 41.51C33.5466 41.2082 33.7699 40.9667 34.0627 40.7856C34.3555 40.6015 34.7102 40.5094 35.1267 40.5094C35.5523 40.5094 35.91 40.6015 36.1997 40.7856C36.4925 40.9667 36.7129 41.2082 36.8608 41.51C37.0087 41.8119 37.0826 42.1439 37.0826 42.5061V42.9951C37.0826 43.3573 37.0072 43.6893 36.8563 43.9911C36.7084 44.29 36.488 44.5299 36.1952 44.711C35.9024 44.8921 35.5463 44.9827 35.1267 44.9827C34.7011 44.9827 34.3419 44.8921 34.0491 44.711C33.7594 44.5299 33.539 44.2885 33.3881 43.9866C33.2372 43.6848 33.1617 43.3543 33.1617 42.9951ZM34.3525 42.5061V42.9951C34.3525 43.2365 34.4083 43.4569 34.52 43.6561C34.6347 43.8523 34.8369 43.9504 35.1267 43.9504C35.4165 43.9504 35.6157 43.8523 35.7244 43.6561C35.836 43.4569 35.8919 43.2365 35.8919 42.9951V42.5061C35.8919 42.2646 35.839 42.0443 35.7334 41.8451C35.6278 41.6428 35.4255 41.5417 35.1267 41.5417C34.84 41.5417 34.6392 41.6428 34.5245 41.8451C34.4098 42.0473 34.3525 42.2676 34.3525 42.5061ZM33.6779 50.04L40.0527 40.7675H41.1846L34.8098 50.04H33.6779Z" fill="black"/>
<path d="M64.8369 50.1668C64.1638 50.1668 63.5662 50.0536 63.044 49.8272C62.5248 49.6009 62.1173 49.2915 61.8215 48.8991C61.5287 48.5037 61.3839 48.0554 61.3869 47.5544C61.3839 47.165 61.4684 46.8073 61.6404 46.4813C61.8125 46.1553 62.0449 45.8837 62.3377 45.6664C62.6335 45.446 62.9625 45.3057 63.3247 45.2453V45.1819C62.8478 45.0763 62.4614 44.8333 62.1656 44.453C61.8728 44.0696 61.728 43.6274 61.731 43.1264C61.728 42.6495 61.8608 42.2239 62.1294 41.8496C62.3981 41.4753 62.7663 41.181 63.2341 40.9667C63.702 40.7494 64.2363 40.6407 64.8369 40.6407C65.4315 40.6407 65.9613 40.7494 66.4261 40.9667C66.894 41.181 67.2622 41.4753 67.5309 41.8496C67.8025 42.2239 67.9383 42.6495 67.9383 43.1264C67.9383 43.6274 67.7889 44.0696 67.4901 44.453C67.1943 44.8333 66.8125 45.0763 66.3446 45.1819V45.2453C66.7068 45.3057 67.0328 45.446 67.3226 45.6664C67.6154 45.8837 67.8478 46.1553 68.0198 46.4813C68.1949 46.8073 68.2824 47.165 68.2824 47.5544C68.2824 48.0554 68.1345 48.5037 67.8387 48.8991C67.5429 49.2915 67.1354 49.6009 66.6163 49.8272C66.1001 50.0536 65.507 50.1668 64.8369 50.1668ZM64.8369 48.8719C65.184 48.8719 65.4859 48.8131 65.7424 48.6953C65.999 48.5746 66.1982 48.4056 66.3401 48.1882C66.482 47.9709 66.5544 47.7204 66.5574 47.4367C66.5544 47.1409 66.4774 46.8798 66.3265 46.6534C66.1786 46.424 65.9749 46.2444 65.7153 46.1146C65.4587 45.9848 65.1659 45.9199 64.8369 45.9199C64.5049 45.9199 64.2091 45.9848 63.9495 46.1146C63.6899 46.2444 63.4847 46.424 63.3338 46.6534C63.1859 46.8798 63.1134 47.1409 63.1164 47.4367C63.1134 47.7204 63.1828 47.9709 63.3247 48.1882C63.4666 48.4026 63.6658 48.5701 63.9223 48.6908C64.1819 48.8115 64.4868 48.8719 64.8369 48.8719ZM64.8369 44.6477C65.1207 44.6477 65.3712 44.5903 65.5885 44.4756C65.8089 44.3609 65.9824 44.2009 66.1092 43.9957C66.236 43.7904 66.3009 43.5535 66.3039 43.2848C66.3009 43.0192 66.2375 42.7868 66.1137 42.5876C65.99 42.3854 65.8179 42.2299 65.5976 42.1212C65.3772 42.0096 65.1237 41.9537 64.8369 41.9537C64.5441 41.9537 64.2861 42.0096 64.0627 42.1212C63.8424 42.2299 63.6703 42.3854 63.5466 42.5876C63.4258 42.7868 63.367 43.0192 63.37 43.2848C63.367 43.5535 63.4273 43.7904 63.5511 43.9957C63.6779 44.1979 63.8514 44.3579 64.0718 44.4756C64.2951 44.5903 64.5502 44.6477 64.8369 44.6477ZM73.1983 50.2166C72.4527 50.2166 71.8128 50.028 71.2786 49.6507C70.7473 49.2703 70.3383 48.7225 70.0516 48.0071C69.7679 47.2888 69.626 46.424 69.626 45.4128C69.629 44.4017 69.7724 43.5414 70.0561 42.8321C70.3429 42.1197 70.7519 41.5764 71.2831 41.2021C71.8174 40.8279 72.4558 40.6407 73.1983 40.6407C73.9408 40.6407 74.5792 40.8279 75.1135 41.2021C75.6477 41.5764 76.0567 42.1197 76.3405 42.8321C76.6272 43.5444 76.7706 44.4047 76.7706 45.4128C76.7706 46.427 76.6272 47.2933 76.3405 48.0117C76.0567 48.727 75.6477 49.2734 75.1135 49.6507C74.5822 50.028 73.9438 50.2166 73.1983 50.2166ZM73.1983 48.7995C73.7778 48.7995 74.2351 48.5142 74.5702 47.9438C74.9082 47.3703 75.0772 46.5266 75.0772 45.4128C75.0772 44.6763 75.0003 44.0576 74.8463 43.5565C74.6924 43.0554 74.4751 42.6781 74.1944 42.4246C73.9137 42.168 73.5816 42.0397 73.1983 42.0397C72.6218 42.0397 72.166 42.3265 71.831 42.9C71.4959 43.4705 71.3269 44.3081 71.3239 45.4128C71.3208 46.1523 71.3948 46.7741 71.5457 47.2782C71.6997 47.7823 71.917 48.1626 72.1977 48.4192C72.4784 48.6727 72.8119 48.7995 73.1983 48.7995ZM83.2326 48.3014V47.8125C83.2326 47.4533 83.3081 47.1227 83.459 46.8209C83.6129 46.5191 83.8363 46.2761 84.1291 46.092C84.4219 45.9078 84.7765 45.8158 85.1931 45.8158C85.6217 45.8158 85.9809 45.9078 86.2706 46.092C86.5604 46.2731 86.7792 46.5145 86.9271 46.8164C87.0781 47.1182 87.1535 47.4502 87.1535 47.8125V48.3014C87.1535 48.6606 87.0781 48.9911 86.9271 49.293C86.7762 49.5948 86.5544 49.8378 86.2616 50.0219C85.9718 50.2061 85.6156 50.2981 85.1931 50.2981C84.7705 50.2981 84.4128 50.2061 84.12 50.0219C83.8272 49.8378 83.6054 49.5948 83.4545 49.293C83.3066 48.9911 83.2326 48.6606 83.2326 48.3014ZM84.4143 47.8125V48.3014C84.4143 48.5399 84.4717 48.7587 84.5864 48.9579C84.7011 49.1572 84.9033 49.2568 85.1931 49.2568C85.4858 49.2568 85.6866 49.1587 85.7952 48.9625C85.9069 48.7633 85.9628 48.5429 85.9628 48.3014V47.8125C85.9628 47.571 85.9099 47.3506 85.8043 47.1514C85.6986 46.9492 85.4949 46.8481 85.1931 46.8481C84.9093 46.8481 84.7086 46.9492 84.5909 47.1514C84.4732 47.3506 84.4143 47.571 84.4143 47.8125ZM78.5194 42.9951V42.5061C78.5194 42.1439 78.5963 41.8119 78.7503 41.51C78.9042 41.2082 79.1276 40.9667 79.4204 40.7856C79.7131 40.6015 80.0678 40.5094 80.4843 40.5094C80.9099 40.5094 81.2676 40.6015 81.5574 40.7856C81.8502 40.9667 82.0705 41.2082 82.2184 41.51C82.3663 41.8119 82.4403 42.1439 82.4403 42.5061V42.9951C82.4403 43.3573 82.3648 43.6893 82.2139 43.9911C82.066 44.29 81.8456 44.5299 81.5529 44.711C81.2601 44.8921 80.9039 44.9827 80.4843 44.9827C80.0588 44.9827 79.6996 44.8921 79.4068 44.711C79.117 44.5299 78.8967 44.2885 78.7457 43.9866C78.5948 43.6848 78.5194 43.3543 78.5194 42.9951ZM79.7101 42.5061V42.9951C79.7101 43.2365 79.766 43.4569 79.8776 43.6561C79.9923 43.8523 80.1946 43.9504 80.4843 43.9504C80.7741 43.9504 80.9733 43.8523 81.082 43.6561C81.1937 43.4569 81.2495 43.2365 81.2495 42.9951V42.5061C81.2495 42.2646 81.1967 42.0443 81.091 41.8451C80.9854 41.6428 80.7832 41.5417 80.4843 41.5417C80.1976 41.5417 79.9969 41.6428 79.8822 41.8451C79.7675 42.0473 79.7101 42.2676 79.7101 42.5061ZM79.0355 50.04L85.4104 40.7675H86.5423L80.1674 50.04H79.0355Z" fill="black"/>
<path d="M107.024 50.04L110.967 42.2344V42.1711H106.39V40.7675H112.706V42.2027L108.767 50.04H107.024ZM117.277 50.1668C116.604 50.1668 116.006 50.0536 115.484 49.8272C114.965 49.6009 114.557 49.2915 114.261 48.8991C113.969 48.5037 113.824 48.0554 113.827 47.5544C113.824 47.165 113.908 46.8073 114.08 46.4813C114.252 46.1553 114.485 45.8837 114.777 45.6664C115.073 45.446 115.402 45.3057 115.765 45.2453V45.1819C115.288 45.0763 114.901 44.8333 114.605 44.453C114.313 44.0696 114.168 43.6274 114.171 43.1264C114.168 42.6495 114.301 42.2239 114.569 41.8496C114.838 41.4753 115.206 41.181 115.674 40.9667C116.142 40.7494 116.676 40.6407 117.277 40.6407C117.871 40.6407 118.401 40.7494 118.866 40.9667C119.334 41.181 119.702 41.4753 119.971 41.8496C120.242 42.2239 120.378 42.6495 120.378 43.1264C120.378 43.6274 120.229 44.0696 119.93 44.453C119.634 44.8333 119.252 45.0763 118.784 45.1819V45.2453C119.147 45.3057 119.473 45.446 119.762 45.6664C120.055 45.8837 120.288 46.1553 120.46 46.4813C120.635 46.8073 120.722 47.165 120.722 47.5544C120.722 48.0554 120.574 48.5037 120.279 48.8991C119.983 49.2915 119.575 49.6009 119.056 49.8272C118.54 50.0536 117.947 50.1668 117.277 50.1668ZM117.277 48.8719C117.624 48.8719 117.926 48.8131 118.182 48.6953C118.439 48.5746 118.638 48.4056 118.78 48.1882C118.922 47.9709 118.994 47.7204 118.997 47.4367C118.994 47.1409 118.917 46.8798 118.766 46.6534C118.618 46.424 118.415 46.2444 118.155 46.1146C117.899 45.9848 117.606 45.9199 117.277 45.9199C116.945 45.9199 116.649 45.9848 116.389 46.1146C116.13 46.2444 115.924 46.424 115.774 46.6534C115.626 46.8798 115.553 47.1409 115.556 47.4367C115.553 47.7204 115.623 47.9709 115.765 48.1882C115.906 48.4026 116.106 48.5701 116.362 48.6908C116.622 48.8115 116.927 48.8719 117.277 48.8719ZM117.277 44.6477C117.56 44.6477 117.811 44.5903 118.028 44.4756C118.249 44.3609 118.422 44.2009 118.549 43.9957C118.676 43.7904 118.741 43.5535 118.744 43.2848C118.741 43.0192 118.677 42.7868 118.554 42.5876C118.43 42.3854 118.258 42.2299 118.037 42.1212C117.817 42.0096 117.563 41.9537 117.277 41.9537C116.984 41.9537 116.726 42.0096 116.503 42.1212C116.282 42.2299 116.11 42.3854 115.986 42.5876C115.866 42.7868 115.807 43.0192 115.81 43.2848C115.807 43.5535 115.867 43.7904 115.991 43.9957C116.118 44.1979 116.291 44.3579 116.512 44.4756C116.735 44.5903 116.99 44.6477 117.277 44.6477ZM127.168 48.3014V47.8125C127.168 47.4533 127.244 47.1227 127.395 46.8209C127.549 46.5191 127.772 46.2761 128.065 46.092C128.358 45.9078 128.712 45.8158 129.129 45.8158C129.557 45.8158 129.917 45.9078 130.206 46.092C130.496 46.2731 130.715 46.5145 130.863 46.8164C131.014 47.1182 131.089 47.4502 131.089 47.8125V48.3014C131.089 48.6606 131.014 48.9911 130.863 49.293C130.712 49.5948 130.49 49.8378 130.197 50.0219C129.908 50.2061 129.551 50.2981 129.129 50.2981C128.706 50.2981 128.349 50.2061 128.056 50.0219C127.763 49.8378 127.541 49.5948 127.39 49.293C127.242 48.9911 127.168 48.6606 127.168 48.3014ZM128.35 47.8125V48.3014C128.35 48.5399 128.407 48.7587 128.522 48.9579C128.637 49.1572 128.839 49.2568 129.129 49.2568C129.422 49.2568 129.622 49.1587 129.731 48.9625C129.843 48.7633 129.899 48.5429 129.899 48.3014V47.8125C129.899 47.571 129.846 47.3506 129.74 47.1514C129.634 46.9492 129.431 46.8481 129.129 46.8481C128.845 46.8481 128.644 46.9492 128.527 47.1514C128.409 47.3506 128.35 47.571 128.35 47.8125ZM122.455 42.9951V42.5061C122.455 42.1439 122.532 41.8119 122.686 41.51C122.84 41.2082 123.063 40.9667 123.356 40.7856C123.649 40.6015 124.004 40.5094 124.42 40.5094C124.846 40.5094 125.203 40.6015 125.493 40.7856C125.786 40.9667 126.006 41.2082 126.154 41.51C126.302 41.8119 126.376 42.1439 126.376 42.5061V42.9951C126.376 43.3573 126.301 43.6893 126.15 43.9911C126.002 44.29 125.781 44.5299 125.489 44.711C125.196 44.8921 124.84 44.9827 124.42 44.9827C123.995 44.9827 123.635 44.8921 123.343 44.711C123.053 44.5299 122.832 44.2885 122.682 43.9866C122.531 43.6848 122.455 43.3543 122.455 42.9951ZM123.646 42.5061V42.9951C123.646 43.2365 123.702 43.4569 123.813 43.6561C123.928 43.8523 124.13 43.9504 124.42 43.9504C124.71 43.9504 124.909 43.8523 125.018 43.6561C125.129 43.4569 125.185 43.2365 125.185 42.9951V42.5061C125.185 42.2646 125.133 42.0443 125.027 41.8451C124.921 41.6428 124.719 41.5417 124.42 41.5417C124.133 41.5417 123.933 41.6428 123.818 41.8451C123.703 42.0473 123.646 42.2676 123.646 42.5061ZM122.971 50.04L129.346 40.7675H130.478L124.103 50.04H122.971Z" fill="black"/>
<path d="M183.494 40.7675V50.04H181.814V42.402H181.76L179.591 43.7874V42.248L181.896 40.7675H183.494ZM189.276 50.2166C188.53 50.2166 187.89 50.028 187.356 49.6507C186.825 49.2703 186.416 48.7225 186.129 48.0071C185.845 47.2888 185.703 46.424 185.703 45.4128C185.706 44.4017 185.85 43.5414 186.134 42.8321C186.42 42.1197 186.829 41.5764 187.361 41.2021C187.895 40.8279 188.533 40.6407 189.276 40.6407C190.018 40.6407 190.657 40.8279 191.191 41.2021C191.725 41.5764 192.134 42.1197 192.418 42.8321C192.705 43.5444 192.848 44.4047 192.848 45.4128C192.848 46.427 192.705 47.2933 192.418 48.0117C192.134 48.727 191.725 49.2734 191.191 49.6507C190.66 50.028 190.021 50.2166 189.276 50.2166ZM189.276 48.7995C189.855 48.7995 190.313 48.5142 190.648 47.9438C190.986 47.3703 191.155 46.5266 191.155 45.4128C191.155 44.6763 191.078 44.0576 190.924 43.5565C190.77 43.0554 190.553 42.6781 190.272 42.4246C189.991 42.168 189.659 42.0397 189.276 42.0397C188.699 42.0397 188.243 42.3265 187.908 42.9C187.573 43.4705 187.404 44.3081 187.401 45.4128C187.398 46.1523 187.472 46.7741 187.623 47.2782C187.777 47.7823 187.994 48.1626 188.275 48.4192C188.556 48.6727 188.889 48.7995 189.276 48.7995ZM197.78 50.2166C197.034 50.2166 196.394 50.028 195.86 49.6507C195.329 49.2703 194.92 48.7225 194.633 48.0071C194.349 47.2888 194.207 46.424 194.207 45.4128C194.21 44.4017 194.354 43.5414 194.638 42.8321C194.924 42.1197 195.333 41.5764 195.865 41.2021C196.399 40.8279 197.037 40.6407 197.78 40.6407C198.522 40.6407 199.161 40.8279 199.695 41.2021C200.229 41.5764 200.638 42.1197 200.922 42.8321C201.209 43.5444 201.352 44.4047 201.352 45.4128C201.352 46.427 201.209 47.2933 200.922 48.0117C200.638 48.727 200.229 49.2734 199.695 49.6507C199.164 50.028 198.525 50.2166 197.78 50.2166ZM197.78 48.7995C198.359 48.7995 198.817 48.5142 199.152 47.9438C199.49 47.3703 199.659 46.5266 199.659 45.4128C199.659 44.6763 199.582 44.0576 199.428 43.5565C199.274 43.0554 199.056 42.6781 198.776 42.4246C198.495 42.168 198.163 42.0397 197.78 42.0397C197.203 42.0397 196.747 42.3265 196.412 42.9C196.077 43.4705 195.908 44.3081 195.905 45.4128C195.902 46.1523 195.976 46.7741 196.127 47.2782C196.281 47.7823 196.498 48.1626 196.779 48.4192C197.06 48.6727 197.393 48.7995 197.78 48.7995ZM207.814 48.3014V47.8125C207.814 47.4533 207.889 47.1227 208.04 46.8209C208.194 46.5191 208.418 46.2761 208.71 46.092C209.003 45.9078 209.358 45.8158 209.774 45.8158C210.203 45.8158 210.562 45.9078 210.852 46.092C211.142 46.2731 211.361 46.5145 211.509 46.8164C211.659 47.1182 211.735 47.4502 211.735 47.8125V48.3014C211.735 48.6606 211.659 48.9911 211.509 49.293C211.358 49.5948 211.136 49.8378 210.843 50.0219C210.553 50.2061 210.197 50.2981 209.774 50.2981C209.352 50.2981 208.994 50.2061 208.701 50.0219C208.409 49.8378 208.187 49.5948 208.036 49.293C207.888 48.9911 207.814 48.6606 207.814 48.3014ZM208.996 47.8125V48.3014C208.996 48.5399 209.053 48.7587 209.168 48.9579C209.282 49.1572 209.485 49.2568 209.774 49.2568C210.067 49.2568 210.268 49.1587 210.377 48.9625C210.488 48.7633 210.544 48.5429 210.544 48.3014V47.8125C210.544 47.571 210.491 47.3506 210.386 47.1514C210.28 46.9492 210.076 46.8481 209.774 46.8481C209.491 46.8481 209.29 46.9492 209.172 47.1514C209.055 47.3506 208.996 47.571 208.996 47.8125ZM203.101 42.9951V42.5061C203.101 42.1439 203.178 41.8119 203.332 41.51C203.486 41.2082 203.709 40.9667 204.002 40.7856C204.295 40.6015 204.649 40.5094 205.066 40.5094C205.491 40.5094 205.849 40.6015 206.139 40.7856C206.432 40.9667 206.652 41.2082 206.8 41.51C206.948 41.8119 207.022 42.1439 207.022 42.5061V42.9951C207.022 43.3573 206.946 43.6893 206.795 43.9911C206.647 44.29 206.427 44.5299 206.134 44.711C205.841 44.8921 205.485 44.9827 205.066 44.9827C204.64 44.9827 204.281 44.8921 203.988 44.711C203.698 44.5299 203.478 44.2885 203.327 43.9866C203.176 43.6848 203.101 43.3543 203.101 42.9951ZM204.292 42.5061V42.9951C204.292 43.2365 204.347 43.4569 204.459 43.6561C204.574 43.8523 204.776 43.9504 205.066 43.9504C205.356 43.9504 205.555 43.8523 205.663 43.6561C205.775 43.4569 205.831 43.2365 205.831 42.9951V42.5061C205.831 42.2646 205.778 42.0443 205.672 41.8451C205.567 41.6428 205.365 41.5417 205.066 41.5417C204.779 41.5417 204.578 41.6428 204.464 41.8451C204.349 42.0473 204.292 42.2676 204.292 42.5061ZM203.617 50.04L209.992 40.7675H211.124L204.749 50.04H203.617Z" fill="black"/>
</svg>
